<?xml version="1.0" standalone="no"?>
<!DOCTYPE svg PUBLIC "-//W3C//DTD SVG 1.1//EN" "http://www.w3.org/Graphics/SVG/1.1/DTD/svg11.dtd" >
<svg xmlns="http://www.w3.org/2000/svg" xmlns:xlink="http://www.w3.org/1999/xlink" version="1.1">
<metadata></metadata>
<defs>
<font id="robotobold" horiz-adv-x="1150" >
<font-face units-per-em="2048" ascent="1536" descent="-512" />
<missing-glyph horiz-adv-x="504" />
<glyph unicode="&#xfb01;" horiz-adv-x="1233" d="M20 861v210h159v50q2 202 124.5 311t344.5 109q134 0 325 -58l-41 -237q-97 29 -150.5 37.5t-115.5 8.5q-200 0 -200 -177v-44h211v-210h-211v-861h-287v861h-159zM820 0v1071h287v-1071h-287z" />
<glyph unicode="&#xfb02;" horiz-adv-x="1242" d="M29 861v210h159v83q2 186 117 286.5t325 100.5q149 0 485 -31v-1510h-287v1299q-86 10 -159 10q-194 0 -194 -166v-72h213v-210h-213v-861h-287v861h-159z" />
<glyph horiz-adv-x="0" />
<glyph horiz-adv-x="0" />
<glyph unicode="&#xd;" horiz-adv-x="504" />
<glyph horiz-adv-x="0" />
<glyph unicode=" "  horiz-adv-x="504" />
<glyph unicode="&#x09;" horiz-adv-x="504" />
<glyph unicode="&#xa0;" horiz-adv-x="504" />
<glyph unicode="!" horiz-adv-x="551" d="M123 134.5q0 65.5 44 108.5t115 43q72 0 116.5 -42.5t44.5 -108.5t-44.5 -108.5t-116.5 -42.5q-71 0 -115 42.5t-44 108zM130 1441h305l-34 -998h-238z" />
<glyph unicode="&#x22;" horiz-adv-x="650" d="M63 977v544h200v-137l-39 -407h-161zM386 977v544h199v-137l-39 -407h-160z" />
<glyph unicode="#" horiz-adv-x="1207" d="M63 406v170h255l49 281h-229v173h260l72 411h180l-72 -411h192l72 411h182l-73 -411h217v-173h-247l-50 -281h222v-170h-251l-72 -406h-181l71 406h-191l-71 -406h-181l71 406h-225zM499 576h191l50 281h-193z" />
<glyph unicode="$" horiz-adv-x="1163" d="M91 452h286q0 -117 56 -180t161 -63q87 0 137.5 46t50.5 124q0 81 -45 129t-153 89t-186 81t-134 92t-87 122t-31 167q0 168 106.5 274.5t284.5 124.5v212h158v-215q175 -24 274 -145.5t99 -314.5h-286q0 119 -49 178t-131 59q-81 0 -125.5 -46.5t-44.5 -127.5 q0 -75 43.5 -120.5t161.5 -93t194.5 -89.5t129 -95t80 -121t27.5 -158q0 -168 -105 -273t-289 -124v-197h-157v196q-203 22 -314.5 144t-111.5 325z" />
<glyph unicode="%" horiz-adv-x="1496" d="M94 1094v70q0 133 86 215.5t226 82.5q141 0 227.5 -81.5t86.5 -221.5v-71q0 -134 -86.5 -215t-225.5 -81q-141 0 -227.5 81.5t-86.5 220.5zM284 1088q0 -59 34 -95.5t89.5 -36.5t88.5 37t33 98v73q0 60 -33 96.5t-90 36.5q-55 0 -88.5 -36t-33.5 -101v-72zM325 183 l704 1127l139 -75l-704 -1127zM783 280v73q0 134 87 215.5t226 81.5q141 0 227.5 -80.5t86.5 -222.5v-71q0 -132 -85.5 -214t-226.5 -82q-143 0 -229 82.5t-86 217.5zM973 276q0 -54 35.5 -92.5t89.5 -38.5q121 0 121 133v75q0 60 -34 96t-89.5 36t-89 -36t-33.5 -99v-74z " />
<glyph unicode="&#x26;" horiz-adv-x="1330" d="M70 388q0 100 56 185t206 189q-65 86 -101.5 162t-36.5 158q0 168 106.5 273.5t286.5 105.5q161 0 264.5 -96t103.5 -239q0 -173 -174 -304l-111 -80l249 -290q58 115 58 254h244q0 -281 -130 -456l216 -250h-325l-74 85q-160 -105 -366 -105q-214 0 -343 112.5 t-129 295.5zM357 404q0 -86 55 -140t143 -54q103 0 195 57l-284 329l-20 -15q-89 -75 -89 -177zM450 1086q0 -74 88 -187l76 50q58 38 80.5 73.5t22.5 85t-36.5 86.5t-94.5 37q-61 0 -98.5 -40t-37.5 -105z" />
<glyph unicode="'" horiz-adv-x="327" d="M62 975v546h210v-146l-28 -400h-182z" />
<glyph unicode="(" horiz-adv-x="711" d="M123 534v52q0 227 60.5 432t178 362.5t255.5 219.5l55 -155q-144 -107 -225.5 -330.5t-81.5 -522.5v-31q0 -300 80.5 -524.5t226.5 -335.5l-55 -151q-135 60 -251.5 213t-177.5 353t-65 418z" />
<glyph unicode=")" horiz-adv-x="714" d="M40 -299q140 106 221.5 326.5t84.5 508.5v52q0 296 -81 522t-225 338l55 152q135 -59 254 -212t185 -357t69 -423v-45q0 -223 -64.5 -430t-185 -365.5t-258.5 -217.5z" />
<glyph unicode="*" horiz-adv-x="918" d="M27 1040l58 180l308 -124l-20 345h194l-20 -352l300 122l59 -181l-317 -89l208 -263l-157 -112l-181 289l-178 -279l-157 107l214 269z" />
<glyph unicode="+" horiz-adv-x="1106" d="M56 548v259h359v387h272v-387h357v-259h-357v-403h-272v403h-359z" />
<glyph unicode="," horiz-adv-x="495" d="M35 -283l35 64q67 121 69 241v222h241l-1 -198q-1 -110 -55.5 -222t-139.5 -185z" />
<glyph unicode="-" horiz-adv-x="786" d="M109 502v231h557v-231h-557z" />
<glyph unicode="." horiz-adv-x="589" d="M125 141q0 68 46 110.5t115 42.5q70 0 116 -42.5t46 -110.5t-45.5 -110t-116.5 -42q-70 0 -115.5 42t-45.5 110z" />
<glyph unicode="/" horiz-adv-x="757" d="M-13 -124l531 1565h213l-531 -1565h-213z" />
<glyph unicode="0" horiz-adv-x="1163" d="M94 581v265q0 302 125.5 458.5t361 156.5t360 -155t127.5 -445v-265q0 -299 -123.5 -457.5t-362.5 -158.5q-236 0 -360.5 155.5t-127.5 445.5zM380 558q0 -176 48 -261.5t154 -85.5q105 0 151.5 82t48.5 251v343q0 179 -49 261t-153 82q-101 0 -149 -78t-51 -243v-351z " />
<glyph unicode="1" horiz-adv-x="1163" d="M165 997v233l597 213h31v-1443h-286v1103z" />
<glyph unicode="2" horiz-adv-x="1163" d="M69 988q0 132 63 240.5t178 170.5t260 62q223 0 346.5 -107t123.5 -302q0 -107 -55.5 -217.5t-190.5 -258.5l-328 -345h620v-231h-988v196l466 497q96 105 142 183t46 149q0 96 -48.5 151t-138.5 55q-97 0 -153 -67t-56 -176h-287z" />
<glyph unicode="3" horiz-adv-x="1163" d="M63 395h286q0 -81 61 -132.5t150 -51.5q102 0 160 54t58 143q0 216 -237 216h-152v223h153q108 0 160.5 54.5t52.5 144.5q0 88 -52 136.5t-143 48.5q-82 0 -137.5 -45.5t-55.5 -117.5h-286q0 113 61 202.5t170.5 140t240.5 50.5q229 0 358.5 -109.5t129.5 -301.5 q0 -99 -60 -182t-158 -127q121 -44 181 -131t60 -206q0 -192 -140 -308t-371 -116q-215 0 -352.5 114t-137.5 301z" />
<glyph unicode="4" horiz-adv-x="1163" d="M54 492l601 949h289v-898h164v-231h-164v-312h-286v312h-591zM340 543h318v508l-18 -32z" />
<glyph unicode="5" horiz-adv-x="1163" d="M104 401h283q9 -90 63 -140t141 -50q97 0 149.5 69.5t52.5 197.5q0 123 -60.5 188.5t-171.5 65.5q-102 0 -165 -54l-28 -26l-227 57l83 732h808v-238h-574l-35 -310q102 54 217 54q205 0 322 -127.5t117 -357.5q0 -139 -59 -249.5t-168.5 -171.5t-259.5 -61 q-131 0 -242.5 53t-176.5 149t-69 219z" />
<glyph unicode="6" horiz-adv-x="1163" d="M99 561v103q0 235 88.5 414.5t254.5 278t385 99.5h47v-235h-28q-194 -3 -312 -101t-142 -273q115 117 290 117q188 0 299 -134.5t111 -354.5q0 -140 -61 -254t-172.5 -177.5t-251.5 -63.5q-228 0 -368 158.5t-140 422.5zM386 516q0 -144 56.5 -224.5t158.5 -80.5 q92 0 149 72.5t57 188.5q0 118 -57.5 190.5t-154.5 72.5q-69 0 -125.5 -36.5t-83.5 -95.5v-87z" />
<glyph unicode="7" horiz-adv-x="1163" d="M60 1210v231h1018v-160l-557 -1281h-302l558 1210h-717z" />
<glyph unicode="8" horiz-adv-x="1163" d="M94 395q0 120 61.5 209t165.5 138q-92 49 -144 130t-52 186q0 184 122.5 293.5t333.5 109.5q210 0 333.5 -108.5t123.5 -294.5q0 -105 -52.5 -186t-144.5 -130q104 -50 165.5 -138.5t61.5 -208.5q0 -192 -130.5 -303.5t-355.5 -111.5t-356.5 112t-131.5 303zM380 416 q0 -92 53.5 -148.5t148.5 -56.5q93 0 146 54.5t53 150.5q0 94 -54.5 150.5t-146.5 56.5q-91 0 -145.5 -56t-54.5 -151zM412 1044q0 -86 44.5 -138.5t125.5 -52.5t125 52.5t44 138.5q0 85 -44.5 136t-125.5 51q-80 0 -124.5 -49.5t-44.5 -137.5z" />
<glyph unicode="9" horiz-adv-x="1163" d="M85 951q0 142 62 260.5t173 184t249 65.5q143 0 254 -71t172 -205t62 -306v-106q0 -360 -179 -566t-508 -220l-70 -1v239l63 1q374 17 404 350q-112 -110 -261 -110q-191 0 -306 131.5t-115 353.5zM370 954q0 -117 54 -193t152 -76q69 0 119 35.5t76 86.5v118 q0 145 -55.5 225.5t-148.5 80.5q-86 0 -141.5 -79t-55.5 -198z" />
<glyph unicode=":" horiz-adv-x="572" d="M124 141q0 68 46 110.5t115 42.5q70 0 116 -42.5t46 -110.5t-45.5 -110t-116.5 -42q-70 0 -115.5 42t-45.5 110zM124 952q0 68 46 110.5t115 42.5q70 0 116 -42.5t46 -110.5t-45.5 -110t-116.5 -42q-70 0 -115.5 42t-45.5 110z" />
<glyph unicode=";" horiz-adv-x="531" d="M57 -283l35 64q67 121 69 241v222h241l-1 -198q-1 -110 -55.5 -222t-139.5 -185zM107 952q0 68 46 110.5t115 42.5q70 0 116 -42.5t46 -110.5t-45.5 -110t-116.5 -42q-70 0 -115.5 42t-45.5 110z" />
<glyph unicode="&#x3c;" horiz-adv-x="1031" d="M53 497v234l853 361v-277l-564 -203l564 -199v-277z" />
<glyph unicode="=" horiz-adv-x="1160" d="M135 310v234h885v-234h-885zM135 739v233h885v-233h-885z" />
<glyph unicode="&#x3e;" horiz-adv-x="1047" d="M119 135v276l575 204l-575 201v275l862 -361v-233z" />
<glyph unicode="?" horiz-adv-x="1008" d="M45 1058q2 189 122 296t328 107q210 0 326 -101.5t116 -286.5q0 -84 -38 -158.5t-132 -166.5l-80 -76q-75 -72 -86 -169l-4 -60h-253q0 138 33.5 220t123 162t119 130t29.5 105q0 168 -154 168q-73 0 -117 -45t-46 -125h-287zM315 139q0 66 45 109t115 43t115.5 -43 t45.5 -109t-44.5 -108.5t-116.5 -42.5t-116 42.5t-44 108.5z" />
<glyph unicode="@" horiz-adv-x="1814" d="M86 458q12 274 125 490.5t307.5 335t438.5 118.5q249 0 428 -106.5t268 -304.5t79 -460q-11 -254 -125.5 -403t-307.5 -149q-85 0 -147 36.5t-94 105.5q-99 -139 -258 -139q-145 0 -224 122t-59 322q18 163 82.5 290t163.5 195.5t214 68.5q142 0 242 -65l62 -43l-50 -572 q-10 -78 17 -119.5t87 -41.5q91 0 152 106t67 279q17 345 -139 530.5t-462 185.5q-191 0 -340.5 -97t-235.5 -275.5t-97 -409.5q-16 -350 140.5 -541.5t468.5 -191.5q82 0 172 18t156 49l37 -152q-60 -40 -162.5 -64t-206.5 -24q-261 0 -445.5 105t-275 310.5t-78.5 490.5z M737 426q-11 -131 22.5 -199t108.5 -68q49 0 92.5 43t72.5 123l41 468q-38 13 -79 13q-114 0 -177 -97t-81 -283z" />
<glyph unicode="A" horiz-adv-x="1364" d="M7 0l537 1441h275l539 -1441h-316l-100 297h-520l-99 -297h-316zM502 538h360l-181 539z" />
<glyph unicode="B" horiz-adv-x="1293" d="M129 0v1441h505q262 0 397.5 -100.5t135.5 -294.5q0 -106 -54.5 -186.5t-151.5 -117.5q111 -28 175 -112.5t64 -205.5q0 -208 -132.5 -315t-378.5 -109h-560zM426 239h254q105 0 164 50t59 138q0 198 -205 201h-272v-389zM426 838h219q225 4 225 179q0 98 -57 141 t-179 43h-208v-363z" />
<glyph unicode="C" horiz-adv-x="1326" d="M85 679v88q0 208 73.5 366.5t209.5 243t316 84.5q250 0 402 -133.5t176 -375.5h-297q-11 140 -77.5 203t-203.5 63q-148 0 -222 -106.5t-76 -330.5v-109q0 -233 71 -341t223 -108q138 0 205.5 62.5t77.5 194.5h297q-17 -232 -171.5 -366t-408.5 -134q-277 0 -436 186.5 t-159 512.5z" />
<glyph unicode="D" horiz-adv-x="1317" d="M129 0v1441h443q190 0 340 -85.5t234.5 -243.5t84.5 -359v-66q0 -201 -83 -357.5t-233.5 -242.5t-339.5 -87h-446zM426 239h143q174 0 266.5 113.5t94.5 325.5v76q0 220 -91.5 333.5t-266.5 113.5h-146v-962z" />
<glyph unicode="E" horiz-adv-x="1140" d="M129 0v1441h964v-240h-667v-344h570v-232h-570v-386h669v-239h-966z" />
<glyph unicode="F" horiz-adv-x="1110" d="M129 0v1441h938v-240h-641v-372h570v-240h-570v-589h-297z" />
<glyph unicode="G" horiz-adv-x="1381" d="M93 664v98q0 216 73 374t210 241.5t321 83.5q256 0 400.5 -122t171.5 -356h-289q-20 124 -87.5 181.5t-186.5 57.5q-152 0 -231 -114t-80 -339v-92q0 -227 86 -342.5t253 -115.5t238 71v249h-270v218h567v-575q-80 -96 -226.5 -149t-324.5 -53q-187 0 -328.5 82t-218 237 t-78.5 365z" />
<glyph unicode="H" horiz-adv-x="1432" d="M129 0v1441h297v-584h579v584h297v-1441h-297v618h-579v-618h-297z" />
<glyph unicode="I" horiz-adv-x="591" d="M148 0v1441h297v-1441h-297z" />
<glyph unicode="J" horiz-adv-x="1132" d="M40 426h299q0 -106 44.5 -156.5t140.5 -50.5q85 0 135.5 58.5t50.5 166.5v997h297v-997q0 -138 -61 -243.5t-172 -163t-250 -57.5q-229 0 -356.5 116.5t-127.5 329.5z" />
<glyph unicode="K" horiz-adv-x="1287" d="M129 0v1441h297v-653l130 179l368 474h365l-512 -640l527 -801h-354l-370 578l-154 -166v-412h-297z" />
<glyph unicode="L" horiz-adv-x="1097" d="M129 0v1441h297v-1202h630v-239h-927z" />
<glyph unicode="M" horiz-adv-x="1776" d="M129 0v1441h388l370 -1045l368 1045h390v-1441h-298v394l30 680l-389 -1074h-204l-388 1073l30 -679v-394h-297z" />
<glyph unicode="N" horiz-adv-x="1431" d="M129 0v1441h297l579 -950v950h296v-1441h-297l-578 948v-948h-297z" />
<glyph unicode="O" horiz-adv-x="1399" d="M85 680v71q0 213 77 375t217 248.5t320 86.5t320 -86.5t217 -248.5t77 -374v-64q0 -213 -75.5 -373.5t-215.5 -247.5t-321 -87q-179 0 -319.5 86t-218 246t-78.5 368zM386 688q0 -221 81 -342.5t234 -121.5q149 0 229.5 117t81.5 342v70q0 227 -81.5 345t-231.5 118 t-231 -116.5t-82 -341.5v-70z" />
<glyph unicode="P" horiz-adv-x="1307" d="M129 0v1441h562q162 0 285.5 -59t190 -168.5t66.5 -249.5q0 -212 -145.5 -334t-401.5 -122h-260v-508h-297zM426 748h265q118 0 180 55.5t62 158.5q0 106 -62.5 171.5t-172.5 67.5h-272v-453z" />
<glyph unicode="Q" horiz-adv-x="1399" d="M83 680v71q0 213 77 375t217 248.5t320 86.5t320 -86.5t217 -248.5t77 -374v-64q0 -202 -65.5 -351t-181.5 -239l240 -188l-189 -167l-307 246q-53 -9 -109 -9q-179 0 -319.5 86t-218 246t-78.5 368zM384 688q0 -221 81 -342.5t234 -121.5q149 0 229.5 117t81.5 342v70 q0 227 -81.5 345t-231.5 118t-231 -116.5t-82 -341.5v-70z" />
<glyph unicode="R" horiz-adv-x="1293" d="M129 0v1441h535q256 0 394.5 -113.5t138.5 -321.5q0 -148 -64 -246.5t-193 -156.5l311 -589v-14h-318l-271 528h-236v-528h-297zM426 768h239q112 0 173.5 57t61.5 157q0 102 -58 160.5t-178 58.5h-238v-433z" />
<glyph unicode="S" horiz-adv-x="1246" d="M68 453h298q0 -238 285 -238q106 0 165.5 43t59.5 120q0 84 -59.5 129t-214 95t-244.5 99q-245 133 -245 357q0 117 66 208.5t189 143t276 51.5q155 0 275.5 -56t187.5 -158t67 -231h-297q0 99 -62.5 154t-174.5 55q-109 0 -169.5 -46t-60.5 -122q0 -70 70.5 -117.5 t208.5 -89.5q253 -76 369 -189t116 -281q0 -187 -141.5 -293.5t-381.5 -106.5q-166 0 -302.5 61t-208.5 167t-72 245z" />
<glyph unicode="T" horiz-adv-x="1254" d="M40 1201v240h1174v-240h-442v-1201h-297v1201h-435z" />
<glyph unicode="U" horiz-adv-x="1334" d="M115 481v960h297v-951q0 -142 67.5 -206.5t187.5 -64.5q251 0 255 263v959h298v-949q0 -237 -148 -374.5t-405 -137.5q-252 0 -400.5 134t-151.5 367z" />
<glyph unicode="V" horiz-adv-x="1325" d="M7 1441h330l324 -1084l327 1084h331l-502 -1441h-310z" />
<glyph unicode="W" horiz-adv-x="1773" d="M35 1441h296l195 -1023l237 1023h252l236 -1025l194 1025h296l-319 -1441h-299l-235 964l-235 -964h-299z" />
<glyph unicode="X" horiz-adv-x="1287" d="M22 0l430 727l-419 714h341l270 -497l271 497h341l-419 -714l430 -727h-345l-278 505l-277 -505h-345z" />
<glyph unicode="Y" horiz-adv-x="1253" d="M2 1441h326l298 -649l300 649h324l-473 -918v-523h-302v523z" />
<glyph unicode="Z" horiz-adv-x="1228" d="M72 0v174l713 1027h-712v240h1081v-170l-710 -1032h726v-239h-1098z" />
<glyph unicode="[" horiz-adv-x="563" d="M119 -336v2013h427v-221h-140v-1571h140v-221h-427z" />
<glyph unicode="\" horiz-adv-x="855" d="M0 1441h292l602 -1565h-293z" />
<glyph unicode="]" horiz-adv-x="563" d="M13 -115h141v1571h-141v221h428v-2013h-428v221z" />
<glyph unicode="^" horiz-adv-x="886" d="M44 722l296 719h207l296 -719h-226l-173 452l-173 -452h-227z" />
<glyph unicode="_" horiz-adv-x="904" d="M1 0h902v-224h-902v224z" />
<glyph unicode="`" horiz-adv-x="670" d="M51 1521h312l196 -307h-234z" />
<glyph unicode="a" horiz-adv-x="1087" d="M67 301q0 170 126.5 261t364.5 92h132v62q0 74 -38 118.5t-120 44.5q-73 0 -114 -34.5t-41 -95.5h-286q0 93 57.5 172.5t162.5 124.5t235 45q198 0 314.5 -99.5t116.5 -279.5v-464q1 -153 43 -231v-17h-289q-20 39 -29 96q-104 -116 -270 -116q-158 0 -261.5 91 t-103.5 230zM353 322q0 -54 38 -88.5t103 -34.5q63 0 116.5 28t79.5 76v184h-107q-215 0 -229 -148z" />
<glyph unicode="b" horiz-adv-x="1141" d="M110 0v1521h286v-546q99 116 260 116q196 0 307.5 -144t111.5 -405v-16q0 -258 -110 -402t-307 -144q-174 0 -278 134l-13 -114h-257zM396 324q52 -113 190 -113q139 0 182 136q21 66 21 199q0 163 -51.5 237.5t-153.5 74.5q-137 0 -188 -112v-422z" />
<glyph unicode="c" horiz-adv-x="1057" d="M65 530v18q0 248 132 395.5t361 147.5q201 0 322.5 -114.5t123.5 -304.5h-268q-2 83 -51.5 135t-131.5 52q-100 0 -151 -72.5t-51 -236.5v-29q0 -166 50.5 -238t153.5 -72q80 0 129.5 43.5t51.5 115.5h268q-1 -109 -59.5 -199.5t-160 -140.5t-224.5 -50q-229 0 -362 146 t-133 404z" />
<glyph unicode="d" horiz-adv-x="1142" d="M65 544q0 250 112.5 398.5t307.5 148.5q157 0 258 -117v547h288v-1521h-259l-14 114q-107 -134 -275 -134q-189 0 -303.5 149t-114.5 415zM351 523q0 -151 52.5 -231t152.5 -80q133 0 187 112v422q-53 112 -185 112q-207 0 -207 -335z" />
<glyph unicode="e" horiz-adv-x="1095" d="M71 510v28q0 161 62.5 288t177 196t260.5 69q220 0 346 -138.5t126 -393.5v-116h-682q14 -105 84 -168.5t177 -63.5q165 0 258 120l141 -158q-65 -91 -174.5 -142t-243.5 -51q-236 0 -384 144.5t-148 385.5zM364 638h398v22q-2 95 -51.5 147t-140.5 52q-85 0 -138 -57.5 t-68 -163.5z" />
<glyph unicode="f" horiz-adv-x="726" d="M29 861v210h159v91q0 180 103.5 279.5t289.5 99.5q60 0 146 -19l-3 -222q-36 9 -87 9q-162 0 -162 -152v-86h213v-210h-213v-861h-287v861h-159z" />
<glyph unicode="g" horiz-adv-x="1157" d="M68 532v12q0 246 117.5 396.5t316.5 150.5q176 0 274 -121l12 101h259v-1035q0 -141 -63.5 -245t-179.5 -158.5t-271 -54.5q-118 0 -230 47t-169 122l126 174q107 -120 260 -120q114 0 177 61t63 173v57q-99 -112 -260 -112q-193 0 -312.5 151t-119.5 401zM354 523 q0 -146 58.5 -228.5t160.5 -82.5q131 0 187 98v450q-57 98 -185 98q-103 0 -162 -84t-59 -251z" />
<glyph unicode="h" horiz-adv-x="1134" d="M103 0v1521h286v-567q114 137 286 137q349 0 354 -405v-686h-287v678q0 92 -39.5 136t-131.5 44q-125 0 -182 -97v-761h-286z" />
<glyph unicode="i" horiz-adv-x="537" d="M108 1348q0 65 43 106.5t117 41.5t117.5 -41.5t43.5 -106.5t-44 -106.5t-116.5 -41.5t-116.5 41.5t-44 106.5zM125 0v1071h287v-1071h-287z" />
<glyph unicode="j" horiz-adv-x="526" d="M-94 -189q51 -9 90 -9q130 0 130 138v1131h287v-1129q0 -178 -94 -276.5t-271 -98.5q-75 0 -142 17v227zM103 1348q0 65 43 106.5t117.5 41.5t117.5 -41.5t43 -106.5t-44 -106.5t-116.5 -41.5t-116.5 41.5t-44 106.5z" />
<glyph unicode="k" horiz-adv-x="1083" d="M110 0v1521h286v-843l55 71l275 322h343l-387 -446l421 -625h-329l-275 430l-103 -103v-327h-286z" />
<glyph unicode="l" horiz-adv-x="537" d="M125 0v1521h287v-1521h-287z" />
<glyph unicode="m" horiz-adv-x="1755" d="M110 0v1071h268l9 -120q114 140 308 140q207 0 284 -163q113 163 322 163q174 0 259 -101.5t85 -305.5v-684h-287v683q0 91 -35.5 133t-125.5 42q-129 0 -178 -122l1 -736h-286v682q0 93 -37 134.5t-125 41.5q-122 0 -176 -101v-757h-286z" />
<glyph unicode="n" horiz-adv-x="1135" d="M104 0v1071h269l9 -124q115 144 308 144q170 0 253.5 -100t85.5 -299v-692h-287v685q0 91 -39.5 132t-131.5 41q-121 0 -181 -103v-755h-286z" />
<glyph unicode="o" horiz-adv-x="1146" d="M65 533v12q0 160 61.5 284.5t177 193t267.5 68.5q217 0 354 -132.5t153 -360.5l2 -73q0 -247 -137.5 -396t-369 -149t-370 148.5t-138.5 404.5zM351 525q0 -153 57.5 -233.5t164.5 -80.5q104 0 162.5 79.5t58.5 254.5q0 150 -58.5 232t-164.5 82q-105 0 -162.5 -81.5 t-57.5 -252.5z" />
<glyph unicode="p" horiz-adv-x="1141" d="M110 -412v1483h265l10 -105q104 125 271 125q198 0 308 -146.5t110 -403.5v-15q0 -248 -112.5 -397t-303.5 -149q-162 0 -262 113v-505h-286zM396 317q52 -106 187 -106q205 0 205 335q0 150 -53 231t-154 81q-135 0 -185 -103v-438z" />
<glyph unicode="q" horiz-adv-x="1145" d="M65 545q0 253 112.5 399.5t308.5 146.5q172 0 274 -132l19 112h252v-1483h-288v504q-99 -112 -259 -112q-191 0 -305 148.5t-114 416.5zM351 525q0 -154 54 -234t152 -80q132 0 186 105v442q-53 101 -184 101q-99 0 -153.5 -80t-54.5 -254z" />
<glyph unicode="r" horiz-adv-x="739" d="M110 0v1071h270l8 -128q86 148 239 148q47 0 89 -13l-4 -275q-59 8 -103 8q-163 0 -213 -110v-701h-286z" />
<glyph unicode="s" horiz-adv-x="1042" d="M55 341h272q4 -77 56.5 -117.5t140.5 -40.5q82 0 124 31.5t42 81.5q0 52 -52 82.5t-167 54.5q-382 80 -382 324q0 143 118.5 238.5t309.5 95.5q204 0 326 -96t122 -250h-286q0 62 -39.5 102t-123.5 40q-72 0 -112 -32.5t-40 -83.5q0 -47 45 -76.5t152 -50.5t181 -48 q226 -83 226 -288q0 -147 -125.5 -237.5t-324.5 -90.5q-135 0 -239.5 48t-164 132t-59.5 181z" />
<glyph unicode="t" horiz-adv-x="685" d="M10 861v210h156v264h286v-264h184v-210h-184v-534q0 -60 23 -85.5t87 -25.5q48 0 84 7v-217q-84 -26 -173 -26q-301 0 -307 304v577h-156z" />
<glyph unicode="u" horiz-adv-x="1134" d="M103 369v702h286v-692q0 -167 153 -167q145 0 200 101v758h287v-1071h-270l-8 109q-106 -129 -293 -129q-172 0 -262.5 99t-92.5 290z" />
<glyph unicode="v" horiz-adv-x="1024" d="M13 1071h299l199 -722l199 722h299l-362 -1071h-273z" />
<glyph unicode="w" horiz-adv-x="1489" d="M28 1071h276l140 -681l196 681h206l195 -682l141 682h276l-273 -1071h-240l-203 674l-202 -674h-239z" />
<glyph unicode="x" horiz-adv-x="1031" d="M21 0l318 546l-304 525h307l176 -320l180 320h306l-305 -525l318 -546h-307l-191 337l-190 -337h-308z" />
<glyph unicode="y" horiz-adv-x="1017" d="M3 1071h308l199 -666l198 666h307l-431 -1237l-24 -57q-96 -210 -316 -210q-63 0 -127 19v217l43 -1q82 0 122 25t63 82l33 88z" />
<glyph unicode="z" horiz-adv-x="1031" d="M73 0v174l504 666h-489v231h858v-169l-507 -671h523v-231h-889z" />
<glyph unicode="{" horiz-adv-x="669" d="M48 510v205q172 0 176 197v210q0 183 89 296t267 163l56 -159q-76 -28 -114.5 -97t-40.5 -190v-208q0 -224 -177 -314q177 -91 177 -316v-210q5 -232 155 -283l-56 -160q-356 100 -356 460v197q0 209 -176 209z" />
<glyph unicode="|" horiz-adv-x="512" d="M171 -267v1708h174v-1708h-174z" />
<glyph unicode="}" horiz-adv-x="669" d="M34 -196q150 53 154 287v210q0 224 181 311q-181 87 -181 316v207q-4 230 -154 287l55 159q177 -49 266.5 -161.5t90.5 -294.5v-213q3 -197 176 -197v-205q-176 0 -176 -207v-215q-8 -346 -357 -444z" />
<glyph unicode="~" horiz-adv-x="1314" d="M105 411q0 184 89.5 296t238.5 112q77 0 140.5 -30t144 -106.5t146.5 -76.5q59 0 96 52.5t37 127.5l212 -1q0 -184 -92 -299t-238 -115q-73 0 -136 28.5t-145 107t-152 78.5q-57 0 -92.5 -49.5t-35.5 -126.5z" />
<glyph unicode="&#xa1;" horiz-adv-x="572" d="M127 938.5q0 66.5 44 109t116 42.5t116 -42.5t44 -108.5q0 -67 -45.5 -109.5t-114.5 -42.5t-114.5 42.5t-45.5 109zM136 -365l32 998h239l33 -998h-304z" />
<glyph unicode="&#xa2;" horiz-adv-x="1166" d="M98 527v21q0 216 104 359.5t291 175.5v222h198v-223q161 -29 253 -138.5t94 -271.5h-270q-2 85 -51.5 136t-129.5 51q-101 0 -151.5 -73.5t-51.5 -232.5v-32q0 -167 51 -238.5t153 -71.5q79 0 128.5 43.5t51.5 115.5h270q-2 -143 -98 -247.5t-249 -133.5v-232h-198v231 q-185 30 -290 172.5t-105 366.5z" />
<glyph unicode="&#xa3;" horiz-adv-x="1204" d="M98 570v234h152l-6 225q0 200 122 315.5t327 115.5q210 0 329.5 -111t119.5 -302h-284q0 85 -43 129.5t-123 44.5q-65 0 -108 -48.5t-43 -143.5l8 -225h306v-234h-297l6 -137q0 -122 -61 -194h646v-239h-1048v239h91q71 17 71 177l-5 154h-160z" />
<glyph unicode="&#xa4;" horiz-adv-x="1403" d="M80 117l134 135q-99 155 -99 350q0 202 108 361l-143 146l140 142l140 -143q154 114 345 114q192 0 345 -116l143 146l141 -143l-147 -150q106 -157 106 -357q0 -191 -97 -346l138 -139l-141 -144l-131 133q-157 -126 -357 -126q-201 0 -358 125l-127 -131zM299 602 q0 -117 53.5 -217.5t148 -158.5t204.5 -58q109 0 203.5 58t148 158.5t53.5 217.5q0 118 -53.5 217.5t-147.5 157t-204 57.5q-111 0 -205 -57.5t-147.5 -157t-53.5 -217.5z" />
<glyph unicode="&#xa5;" horiz-adv-x="1241" d="M20 1441h326l274 -599l274 599h326l-372 -706h232v-174h-316v-114h316v-172h-316v-275h-297v275h-332v172h332v114h-332v174h257z" />
<glyph unicode="&#xa6;" horiz-adv-x="510" d="M127 -267v787h257v-787h-257zM127 691v750h257v-750h-257z" />
<glyph unicode="&#xa7;" horiz-adv-x="1274" d="M91 -35l286 1q0 -88 63.5 -135t189.5 -47q111 0 168 37t57 100q0 64 -63.5 104.5t-244.5 90.5t-272.5 104.5t-136.5 129t-45 179.5q0 178 160 270q-134 102 -134 285q0 169 139 273t376 104q244 0 378.5 -111.5t134.5 -310.5h-286q0 86 -60.5 139t-166.5 53 q-109 0 -168.5 -39t-59.5 -106q0 -72 55 -109t238 -85.5t279.5 -102.5t143 -130t46.5 -183q0 -180 -160 -268q133 -101 133 -285q0 -173 -136 -271.5t-375 -98.5q-255 0 -397 105.5t-142 306.5zM379 557q0 -68 41 -105t164 -77l220 -66q81 46 81 138q0 62 -45 101t-162 79 l-225 70q-74 -42 -74 -140z" />
<glyph unicode="&#xa8;" horiz-adv-x="946" d="M92 1351q0 54 38 90t99 36t98.5 -37t37.5 -88.5t-37.5 -88t-98.5 -36.5q-59 0 -98 35t-39 89zM574 1351q0 53 39 89.5t98 36.5q57 0 97 -36t40 -90q0 -51 -38 -88t-99.5 -37t-99 37t-37.5 88z" />
<glyph unicode="&#xa9;" horiz-adv-x="1589" d="M85 722q0 200 92.5 371t256.5 269.5t354 98.5t354 -98.5t256.5 -269.5t92.5 -371q0 -202 -94 -374t-257 -270t-352 -98q-191 0 -354 99t-256 270.5t-93 372.5zM206 721.5q0 -168.5 76.5 -311t212 -225t293.5 -82.5t294.5 84t211.5 226.5t75 308.5q0 164 -74 305 t-210 225.5t-297 84.5q-157 0 -292.5 -81t-212.5 -223.5t-77 -311zM429 668v112q0 172 94.5 277.5t250.5 105.5q162 0 247.5 -81.5t85.5 -229.5h-155q0 95 -45.5 136.5t-132.5 41.5q-91 0 -141 -67t-51 -179v-122q0 -116 50.5 -182.5t141.5 -66.5q88 0 132.5 40t44.5 137 h155q0 -150 -86.5 -230.5t-245 -80.5t-252 105.5t-93.5 283.5z" />
<glyph unicode="&#xaa;" horiz-adv-x="899" d="M136 910q0 109 83 168.5t254 59.5h101v51q0 126 -115 126q-64 0 -100 -25.5t-36 -72.5l-172 14q0 103 87 166.5t221 63.5t211 -71t77 -203v-313q0 -96 26 -176h-175q-10 27 -17 67q-76 -81 -199 -81q-117 0 -181.5 61t-64.5 165zM309 914q0 -87 116 -87q39 0 80.5 18 t68.5 43v135h-105q-75 -1 -117.5 -31t-42.5 -78z" />
<glyph unicode="&#xab;" horiz-adv-x="1012" d="M76 510v19l277 386h184l-237 -396l237 -395h-184zM457 510v19l277 386h184l-237 -396l237 -395h-184z" />
<glyph unicode="&#xac;" horiz-adv-x="1117" d="M125 628v169h826v-427h-198v258h-628z" />
<glyph unicode="&#xad;" horiz-adv-x="786" d="M109 502v231h557v-231h-557z" />
<glyph unicode="&#xae;" horiz-adv-x="1589" d="M85 722q0 200 92.5 371t256.5 269.5t354 98.5t354 -98.5t256.5 -269.5t92.5 -371q0 -202 -94 -374t-257 -270t-352 -98q-191 0 -354 99t-256 270.5t-93 372.5zM206 721.5q0 -168.5 76.5 -311t212 -225t293.5 -82.5t294.5 84t211.5 226.5t75 308.5q0 164 -74 305 t-210 225.5t-297 84.5q-157 0 -292.5 -81t-212.5 -223.5t-77 -311zM496 313v841h278q150 0 236 -67.5t86 -192.5q0 -111 -112 -172q60 -31 84.5 -86t24.5 -136t3.5 -115t13.5 -56v-16h-154q-13 33 -13 192q0 75 -32.5 108t-108.5 33h-157v-333h-149zM645 779h135 q73 0 120 31.5t47 83.5q0 69 -35 98.5t-127 30.5h-140v-244z" />
<glyph unicode="&#xaf;" horiz-adv-x="1015" d="M147 1277v165h722v-165h-722z" />
<glyph unicode="&#xb0;" horiz-adv-x="787" d="M125 1188q0 113 80 193t189 80q108 0 186.5 -79.5t78.5 -193.5t-78.5 -191.5t-186.5 -77.5q-107 0 -188 77.5t-81 191.5zM270 1188q0 -51 36.5 -87t87.5 -36q52 0 86.5 35.5t34.5 87.5q0 51 -34.5 89t-86.5 38t-88 -38t-36 -89z" />
<glyph unicode="&#xb1;" horiz-adv-x="1089" d="M88 694v239h332v339h250v-339h325v-239h-325v-360h-250v360h-332zM112 1v233h855v-233h-855z" />
<glyph unicode="&#xb2;" horiz-adv-x="755" d="M54 1181q0 115 85 193t218 78q147 0 226.5 -63.5t79.5 -181.5q0 -69 -35.5 -126.5t-142.5 -143.5l-146 -114h347v-163h-614v137l284 254q56 49 80 90.5t24 64.5q0 83 -94 83q-49 0 -78.5 -30.5t-29.5 -77.5h-204z" />
<glyph unicode="&#xb3;" horiz-adv-x="755" d="M48 893h203q0 -34 34 -58t85 -24q60 0 86 26t26 61q0 91 -121 92h-91v135h81q118 0 118 87q0 34 -28 55t-77 21q-41 0 -70.5 -15.5t-29.5 -43.5h-203q0 101 84 161.5t213 60.5q144 0 228.5 -58.5t84.5 -164.5q0 -118 -133 -168q148 -40 148 -182q0 -104 -90.5 -167 t-237.5 -63q-140 0 -225 66t-85 179z" />
<glyph unicode="&#xb4;" horiz-adv-x="672" d="M100 1214l195 307h312l-274 -307h-233z" />
<glyph unicode="&#xb5;" horiz-adv-x="1248" d="M138 -412v1483h286v-617q0 -124 40 -183t138 -59q147 0 203 104v755h286v-1071h-266l-6 67q-88 -88 -223 -88q-101 0 -172 45v-436h-286z" />
<glyph unicode="&#xb6;" horiz-adv-x="992" d="M74 978q0 211 132 337t359 126h295v-1441h-216v515h-80q-227 0 -358.5 125.5t-131.5 337.5z" />
<glyph unicode="&#xb7;" horiz-adv-x="610" d="M139 690q0 68 45.5 110.5t115.5 42.5t116 -42.5t46 -110.5t-46.5 -110t-115.5 -42q-71 0 -116 43t-45 109z" />
<glyph unicode="&#xb8;" horiz-adv-x="542" d="M97 -135l31 142h214l-11 -57q148 -27 148 -172q0 -109 -90.5 -172t-254.5 -63l-7 165q111 0 111 80q0 42 -33.5 57t-107.5 20z" />
<glyph unicode="&#xb9;" horiz-adv-x="755" d="M134 1164v157l370 119h19v-778h-202v543z" />
<glyph unicode="&#xba;" horiz-adv-x="926" d="M117 1039v71q0 158 94.5 254.5t248 96.5t248.5 -96t95 -260v-71q0 -158 -93 -254.5t-249 -96.5t-250 97t-94 259zM290 1034q0 -97 46 -151.5t125 -54.5q78 0 123 53.5t46 149.5v79q0 96 -46 150.5t-125 54.5q-77 0 -123 -54t-46 -155v-72z" />
<glyph unicode="&#xbb;" horiz-adv-x="1012" d="M84 123l238 395l-238 396h185l278 -386v-19l-278 -386h-185zM473 123l238 395l-238 396h185l278 -386v-19l-278 -386h-185z" />
<glyph unicode="&#xbc;" horiz-adv-x="1455" d="M100 1159v156l370 120h19v-778h-202v543zM314 191l704 1127l139 -75l-704 -1127zM731 291l354 490h204v-458h87v-166h-87v-157h-203v157h-343zM926 323h160v210l-14 -22z" />
<glyph unicode="&#xbd;" horiz-adv-x="1543" d="M84 1165v156l370 120h19v-778h-202v543zM273 191l704 1127l139 -75l-704 -1127zM830 521q0 115 85 193t218 78q147 0 226.5 -64t79.5 -182q0 -69 -35.5 -126.5t-142.5 -143.5l-146 -114h347v-162h-614v137l284 254q56 49 80 90.5t24 63.5q0 84 -94 84q-49 0 -78.5 -31 t-29.5 -77h-204z" />
<glyph unicode="&#xbe;" horiz-adv-x="1638" d="M94 894h203q0 -34 34 -58.5t85 -24.5q60 0 86 26.5t26 61.5q0 91 -121 92h-91v134h81q118 0 118 87q0 35 -28 56t-77 21q-41 0 -70.5 -15.5t-29.5 -44.5h-203q0 101 84 162t213 61q144 0 228.5 -59t84.5 -165q0 -118 -133 -167q148 -41 148 -182q0 -104 -90.5 -167 t-237.5 -63q-140 0 -225 66t-85 179zM474 191l704 1127l139 -75l-704 -1127zM888 291l354 490h204v-458h87v-166h-87v-157h-203v157h-343zM1083 323h160v210l-14 -22z" />
<glyph unicode="&#xbf;" horiz-adv-x="1008" d="M68 6q0 157 152 309l96 92q49 44 68.5 92.5t21.5 137.5h253q0 -132 -30.5 -213t-109 -154.5t-107 -109t-43 -72.5t-14.5 -80q0 -156 153 -156q76 0 121 45t47 125h286q-2 -190 -121.5 -296.5t-327.5 -106.5q-211 0 -328 100.5t-117 286.5zM374 939.5q0 66.5 44 109 t116.5 42.5t116.5 -42.5t44 -108.5q0 -67 -45.5 -109.5t-115 -42.5t-115 42.5t-45.5 109z" />
<glyph unicode="&#xc0;" horiz-adv-x="1364" d="M7 0l537 1441h275l539 -1441h-316l-100 297h-520l-99 -297h-316zM319 1828h312l196 -307h-234zM502 538h360l-181 539z" />
<glyph unicode="&#xc1;" horiz-adv-x="1364" d="M7 0l537 1441h275l539 -1441h-316l-100 297h-520l-99 -297h-316zM502 538h360l-181 539zM547 1521l195 307h312l-274 -307h-233z" />
<glyph unicode="&#xc2;" horiz-adv-x="1364" d="M7 0l537 1441h275l539 -1441h-316l-100 297h-520l-99 -297h-316zM309 1539v15l293 274h166l297 -278v-11h-228l-152 143l-152 -143h-224zM502 538h360l-181 539z" />
<glyph unicode="&#xc3;" horiz-adv-x="1364" d="M7 0l537 1441h275l539 -1441h-316l-100 297h-520l-99 -297h-316zM312 1550q0 110 65 187.5t159 77.5q29 0 55.5 -7.5t86 -36.5t82 -34.5t47.5 -5.5q34 0 59.5 24t25.5 70l165 -11q0 -112 -65 -188t-159 -76q-38 0 -67 8.5t-80.5 36.5t-74.5 34.5t-50 6.5q-34 0 -58.5 -25 t-24.5 -70zM502 538h360l-181 539z" />
<glyph unicode="&#xc4;" horiz-adv-x="1364" d="M7 0l537 1441h275l539 -1441h-316l-100 297h-520l-99 -297h-316zM306 1658q0 54 38 90t99 36t98.5 -37t37.5 -88.5t-37.5 -88t-98.5 -36.5q-59 0 -98 35t-39 89zM502 538h360l-181 539zM788 1658q0 53 39 89.5t98 36.5q57 0 97 -36t40 -90q0 -51 -38 -88t-99.5 -37 t-99 37t-37.5 88z" />
<glyph unicode="&#xc5;" horiz-adv-x="1364" d="M7 0l537 1441h275l539 -1441h-316l-100 297h-520l-99 -297h-316zM465 1713q0 85 64.5 144t156.5 59q91 0 155.5 -58t64.5 -145q0 -84 -63 -141.5t-157 -57.5q-96 0 -158.5 58.5t-62.5 140.5zM502 538h360l-181 539zM579 1713q0 -44 28.5 -75t78 -31t78.5 31t29 75 q0 45 -29.5 76.5t-78 31.5t-77.5 -31.5t-29 -76.5z" />
<glyph unicode="&#xc6;" horiz-adv-x="1905" d="M2 0l778 1441h1006v-233h-592l15 -352h497v-233h-487l16 -390h611v-233h-888l-14 330h-441l-165 -330h-336zM627 574h308l-24 564z" />
<glyph unicode="&#xc7;" horiz-adv-x="1326" d="M85 679v88q0 208 73.5 366.5t209.5 243t316 84.5q250 0 402 -133.5t176 -375.5h-297q-11 140 -77.5 203t-203.5 63q-148 0 -222 -106.5t-76 -330.5v-109q0 -233 71 -341t223 -108q138 0 205.5 62.5t77.5 194.5h297q-17 -232 -171.5 -366t-408.5 -134q-277 0 -436 186.5 t-159 512.5zM544 -136l31 142h214l-11 -57q148 -27 148 -172q0 -109 -90.5 -172t-254.5 -63l-7 165q111 0 111 80q0 42 -33.5 57t-107.5 20z" />
<glyph unicode="&#xc8;" horiz-adv-x="1140" d="M129 0v1441h964v-240h-667v-344h570v-232h-570v-386h669v-239h-966zM263 1831h312l196 -307h-234z" />
<glyph unicode="&#xc9;" horiz-adv-x="1140" d="M129 0v1441h964v-240h-667v-344h570v-232h-570v-386h669v-239h-966zM491 1524l195 307h312l-274 -307h-233z" />
<glyph unicode="&#xca;" horiz-adv-x="1140" d="M129 0v1441h964v-240h-667v-344h570v-232h-570v-386h669v-239h-966zM253 1542v15l293 274h166l297 -278v-11h-228l-152 143l-152 -143h-224z" />
<glyph unicode="&#xcb;" horiz-adv-x="1140" d="M129 0v1441h964v-240h-667v-344h570v-232h-570v-386h669v-239h-966zM249 1661q0 54 38 90t99 36t98.5 -37t37.5 -88.5t-37.5 -88t-98.5 -36.5q-59 0 -98 35t-39 89zM731 1661q0 53 39 89.5t98 36.5q57 0 97 -36t40 -90q0 -51 -38 -88t-99.5 -37t-99 37t-37.5 88z" />
<glyph unicode="&#xcc;" horiz-adv-x="591" d="M-70 1831h312l196 -307h-234zM148 0v1441h297v-1441h-297z" />
<glyph unicode="&#xcd;" horiz-adv-x="591" d="M148 0v1441h297v-1441h-297zM157 1524l195 307h312l-274 -307h-233z" />
<glyph unicode="&#xce;" horiz-adv-x="591" d="M-80 1542v15l293 274h166l297 -278v-11h-228l-152 143l-152 -143h-224zM148 0v1441h297v-1441h-297z" />
<glyph unicode="&#xcf;" horiz-adv-x="591" d="M-83 1661q0 54 38 90t99 36t98.5 -37t37.5 -88.5t-37.5 -88t-98.5 -36.5q-59 0 -98 35t-39 89zM148 0v1441h297v-1441h-297zM399 1661q0 53 39 89.5t98 36.5q57 0 97 -36t40 -90q0 -51 -38 -88t-99.5 -37t-99 37t-37.5 88z" />
<glyph unicode="&#xd0;" horiz-adv-x="1347" d="M-20 636v181h178v624h444q190 0 340 -85.5t234 -243.5t84 -359v-66q0 -201 -82.5 -357.5t-233 -242.5t-339.5 -87h-447v636h-178zM455 239h144q176 0 268 116t92 332v67q0 220 -91 333.5t-266 113.5h-147v-384h217v-181h-217v-397z" />
<glyph unicode="&#xd1;" horiz-adv-x="1431" d="M129 0v1441h297l579 -950v950h296v-1441h-297l-578 948v-948h-297zM346 1550q0 110 65 187.5t159 77.5q29 0 55.5 -7.5t86 -36.5t82 -34.5t47.5 -5.5q34 0 59.5 24t25.5 70l165 -11q0 -112 -65 -188t-159 -76q-38 0 -67 8.5t-80.5 36.5t-74.5 34.5t-50 6.5 q-34 0 -58.5 -25t-24.5 -70z" />
<glyph unicode="&#xd2;" horiz-adv-x="1399" d="M85 680v71q0 213 77 375t217 248.5t320 86.5t320 -86.5t217 -248.5t77 -374v-64q0 -213 -75.5 -373.5t-215.5 -247.5t-321 -87q-179 0 -319.5 86t-218 246t-78.5 368zM333 1828h312l196 -307h-234zM386 688q0 -221 81 -342.5t234 -121.5q149 0 229.5 117t81.5 342v70 q0 227 -81.5 345t-231.5 118t-231 -116.5t-82 -341.5v-70z" />
<glyph unicode="&#xd3;" horiz-adv-x="1399" d="M85 680v71q0 213 77 375t217 248.5t320 86.5t320 -86.5t217 -248.5t77 -374v-64q0 -213 -75.5 -373.5t-215.5 -247.5t-321 -87q-179 0 -319.5 86t-218 246t-78.5 368zM386 688q0 -221 81 -342.5t234 -121.5q149 0 229.5 117t81.5 342v70q0 227 -81.5 345t-231.5 118 t-231 -116.5t-82 -341.5v-70zM561 1521l195 307h312l-274 -307h-233z" />
<glyph unicode="&#xd4;" horiz-adv-x="1399" d="M85 680v71q0 213 77 375t217 248.5t320 86.5t320 -86.5t217 -248.5t77 -374v-64q0 -213 -75.5 -373.5t-215.5 -247.5t-321 -87q-179 0 -319.5 86t-218 246t-78.5 368zM323 1539v15l293 274h166l297 -278v-11h-228l-152 143l-152 -143h-224zM386 688q0 -221 81 -342.5 t234 -121.5q149 0 229.5 117t81.5 342v70q0 227 -81.5 345t-231.5 118t-231 -116.5t-82 -341.5v-70z" />
<glyph unicode="&#xd5;" horiz-adv-x="1399" d="M85 680v71q0 213 77 375t217 248.5t320 86.5t320 -86.5t217 -248.5t77 -374v-64q0 -213 -75.5 -373.5t-215.5 -247.5t-321 -87q-179 0 -319.5 86t-218 246t-78.5 368zM326 1550q0 110 65 187.5t159 77.5q29 0 55.5 -7.5t86 -36.5t82 -34.5t47.5 -5.5q34 0 59.5 24 t25.5 70l165 -11q0 -112 -65 -188t-159 -76q-38 0 -67 8.5t-80.5 36.5t-74.5 34.5t-50 6.5q-34 0 -58.5 -25t-24.5 -70zM386 688q0 -221 81 -342.5t234 -121.5q149 0 229.5 117t81.5 342v70q0 227 -81.5 345t-231.5 118t-231 -116.5t-82 -341.5v-70z" />
<glyph unicode="&#xd6;" horiz-adv-x="1399" d="M85 680v71q0 213 77 375t217 248.5t320 86.5t320 -86.5t217 -248.5t77 -374v-64q0 -213 -75.5 -373.5t-215.5 -247.5t-321 -87q-179 0 -319.5 86t-218 246t-78.5 368zM320 1658q0 54 38 90t99 36t98.5 -37t37.5 -88.5t-37.5 -88t-98.5 -36.5q-59 0 -98 35t-39 89z M386 688q0 -221 81 -342.5t234 -121.5q149 0 229.5 117t81.5 342v70q0 227 -81.5 345t-231.5 118t-231 -116.5t-82 -341.5v-70zM802 1658q0 53 39 89.5t98 36.5q57 0 97 -36t40 -90q0 -51 -38 -88t-99.5 -37t-99 37t-37.5 88z" />
<glyph unicode="&#xd7;" horiz-adv-x="1077" d="M64 369l304 310l-304 310l169 166l301 -308l302 308l168 -166l-304 -310l304 -310l-168 -166l-302 307l-301 -307z" />
<glyph unicode="&#xd8;" horiz-adv-x="1396" d="M92 695v56q0 213 77 375t217 248.5t320 86.5q173 0 311 -81l73 123h185l-133 -225q178 -196 178 -532v-58q0 -213 -75.5 -373.5t-215.5 -247.5t-321 -87q-163 0 -292 70l-84 -144h-186l141 240q-195 193 -195 549zM393 688q0 -170 49 -282l442 749q-72 61 -178 61 q-150 0 -231 -116.5t-82 -341.5v-70zM546 270q70 -46 162 -46q149 0 230 117t82 342v70q0 150 -38 254z" />
<glyph unicode="&#xd9;" horiz-adv-x="1334" d="M115 481v960h297v-951q0 -142 67.5 -206.5t187.5 -64.5q251 0 255 263v959h298v-949q0 -237 -148 -374.5t-405 -137.5q-252 0 -400.5 134t-151.5 367zM298 1828h312l196 -307h-234z" />
<glyph unicode="&#xda;" horiz-adv-x="1334" d="M115 481v960h297v-951q0 -142 67.5 -206.5t187.5 -64.5q251 0 255 263v959h298v-949q0 -237 -148 -374.5t-405 -137.5q-252 0 -400.5 134t-151.5 367zM526 1521l195 307h312l-274 -307h-233z" />
<glyph unicode="&#xdb;" horiz-adv-x="1334" d="M115 481v960h297v-951q0 -142 67.5 -206.5t187.5 -64.5q251 0 255 263v959h298v-949q0 -237 -148 -374.5t-405 -137.5q-252 0 -400.5 134t-151.5 367zM287 1539v15l293 274h166l297 -278v-11h-228l-152 143l-152 -143h-224z" />
<glyph unicode="&#xdc;" horiz-adv-x="1334" d="M115 481v960h297v-951q0 -142 67.5 -206.5t187.5 -64.5q251 0 255 263v959h298v-949q0 -237 -148 -374.5t-405 -137.5q-252 0 -400.5 134t-151.5 367zM284 1658q0 54 38 90t99 36t98.5 -37t37.5 -88.5t-37.5 -88t-98.5 -36.5q-59 0 -98 35t-39 89zM766 1658q0 53 39 89.5 t98 36.5q57 0 97 -36t40 -90q0 -51 -38 -88t-99.5 -37t-99 37t-37.5 88z" />
<glyph unicode="&#xdd;" horiz-adv-x="1253" d="M2 1441h326l298 -649l300 649h324l-473 -918v-523h-302v523zM491 1521l195 307h312l-274 -307h-233z" />
<glyph unicode="&#xde;" horiz-adv-x="1233" d="M132 0v1441h286v-264h227q161 -1 279 -56t181.5 -156.5t63.5 -233.5q0 -200 -137 -321t-375 -126h-239v-284h-286zM418 515h221q115 0 179.5 58.5t64.5 155.5t-63 156t-174 61h-228v-431z" />
<glyph unicode="&#xdf;" horiz-adv-x="1279" d="M134 0v1090q0 218 122.5 335.5t346.5 117.5q189 0 303.5 -98.5t114.5 -267.5q0 -107 -53 -193t-53 -162q0 -37 30 -76t117 -116q150 -133 150 -280q0 -175 -114 -272.5t-327 -97.5q-80 0 -158 16t-118 40l53 226q97 -51 217 -51q78 0 120 36t42 99q0 45 -34.5 88 t-115.5 109q-148 118 -148 267q0 95 54.5 184.5t54.5 167.5q0 70 -44.5 111t-111.5 41q-157 0 -162 -211v-1103h-286z" />
<glyph unicode="&#xe0;" horiz-adv-x="1087" d="M67 301q0 170 126.5 261t364.5 92h132v62q0 74 -38 118.5t-120 44.5q-73 0 -114 -34.5t-41 -95.5h-286q0 93 57.5 172.5t162.5 124.5t235 45q198 0 314.5 -99.5t116.5 -279.5v-464q1 -153 43 -231v-17h-289q-20 39 -29 96q-104 -116 -270 -116q-158 0 -261.5 91 t-103.5 230zM180 1521h312l196 -307h-234zM353 322q0 -54 38 -88.5t103 -34.5q63 0 116.5 28t79.5 76v184h-107q-215 0 -229 -148z" />
<glyph unicode="&#xe1;" horiz-adv-x="1087" d="M67 301q0 170 126.5 261t364.5 92h132v62q0 74 -38 118.5t-120 44.5q-73 0 -114 -34.5t-41 -95.5h-286q0 93 57.5 172.5t162.5 124.5t235 45q198 0 314.5 -99.5t116.5 -279.5v-464q1 -153 43 -231v-17h-289q-20 39 -29 96q-104 -116 -270 -116q-158 0 -261.5 91 t-103.5 230zM353 322q0 -54 38 -88.5t103 -34.5q63 0 116.5 28t79.5 76v184h-107q-215 0 -229 -148zM408 1214l195 307h312l-274 -307h-233z" />
<glyph unicode="&#xe2;" horiz-adv-x="1087" d="M67 301q0 170 126.5 261t364.5 92h132v62q0 74 -38 118.5t-120 44.5q-73 0 -114 -34.5t-41 -95.5h-286q0 93 57.5 172.5t162.5 124.5t235 45q198 0 314.5 -99.5t116.5 -279.5v-464q1 -153 43 -231v-17h-289q-20 39 -29 96q-104 -116 -270 -116q-158 0 -261.5 91 t-103.5 230zM170 1232v15l293 274h166l297 -278v-11h-228l-152 143l-152 -143h-224zM353 322q0 -54 38 -88.5t103 -34.5q63 0 116.5 28t79.5 76v184h-107q-215 0 -229 -148z" />
<glyph unicode="&#xe3;" horiz-adv-x="1087" d="M67 301q0 170 126.5 261t364.5 92h132v62q0 74 -38 118.5t-120 44.5q-73 0 -114 -34.5t-41 -95.5h-286q0 93 57.5 172.5t162.5 124.5t235 45q198 0 314.5 -99.5t116.5 -279.5v-464q1 -153 43 -231v-17h-289q-20 39 -29 96q-104 -116 -270 -116q-158 0 -261.5 91 t-103.5 230zM172 1244q0 110 65 187.5t159 77.5q29 0 55.5 -7.5t86 -36.5t82 -34.5t47.5 -5.5q34 0 59.5 24t25.5 70l165 -11q0 -112 -65 -188t-159 -76q-38 0 -67 8.5t-80.5 36.5t-74.5 34.5t-50 6.5q-34 0 -58.5 -25t-24.5 -70zM353 322q0 -54 38 -88.5t103 -34.5 q63 0 116.5 28t79.5 76v184h-107q-215 0 -229 -148z" />
<glyph unicode="&#xe4;" horiz-adv-x="1087" d="M67 301q0 170 126.5 261t364.5 92h132v62q0 74 -38 118.5t-120 44.5q-73 0 -114 -34.5t-41 -95.5h-286q0 93 57.5 172.5t162.5 124.5t235 45q198 0 314.5 -99.5t116.5 -279.5v-464q1 -153 43 -231v-17h-289q-20 39 -29 96q-104 -116 -270 -116q-158 0 -261.5 91 t-103.5 230zM166 1351q0 54 38 90t99 36t98.5 -37t37.5 -88.5t-37.5 -88t-98.5 -36.5q-59 0 -98 35t-39 89zM353 322q0 -54 38 -88.5t103 -34.5q63 0 116.5 28t79.5 76v184h-107q-215 0 -229 -148zM648 1351q0 53 39 89.5t98 36.5q57 0 97 -36t40 -90q0 -51 -38 -88 t-99.5 -37t-99 37t-37.5 88z" />
<glyph unicode="&#xe5;" horiz-adv-x="1087" d="M67 301q0 170 126.5 261t364.5 92h132v62q0 74 -38 118.5t-120 44.5q-73 0 -114 -34.5t-41 -95.5h-286q0 93 57.5 172.5t162.5 124.5t235 45q198 0 314.5 -99.5t116.5 -279.5v-464q1 -153 43 -231v-17h-289q-20 39 -29 96q-104 -116 -270 -116q-158 0 -261.5 91 t-103.5 230zM326 1406q0 85 64.5 144t156.5 59q91 0 155.5 -58t64.5 -145q0 -84 -63 -141.5t-157 -57.5q-96 0 -158.5 58.5t-62.5 140.5zM353 322q0 -54 38 -88.5t103 -34.5q63 0 116.5 28t79.5 76v184h-107q-215 0 -229 -148zM440 1406q0 -44 28.5 -75t78 -31t78.5 31 t29 75q0 45 -29.5 76.5t-78 31.5t-77.5 -31.5t-29 -76.5z" />
<glyph unicode="&#xe6;" horiz-adv-x="1711" d="M65 316q0 155 123 240.5t363 86.5h167v56q0 75 -40 117.5t-117 42.5q-81 0 -128 -35t-47 -86l-286 18q0 148 129 241.5t335 93.5q209 0 324 -109q125 111 323 109q210 0 329.5 -130t119.5 -360v-155h-661q11 -115 79.5 -175.5t184.5 -60.5q76 0 141 16t151 60l77 -187 q-73 -55 -179.5 -87t-218.5 -32q-245 0 -383 146q-63 -69 -164.5 -107.5t-225.5 -38.5q-184 0 -290 88t-106 248zM351 312q0 -56 40.5 -89t124.5 -33q48 0 105.5 22.5t96.5 56.5v187h-163q-94 -1 -149 -42.5t-55 -101.5zM1001 638h378v27q0 93 -43 143.5t-125 50.5 q-89 0 -143 -57t-67 -164z" />
<glyph unicode="&#xe7;" horiz-adv-x="1057" d="M65 530v18q0 248 132 395.5t361 147.5q201 0 322.5 -114.5t123.5 -304.5h-268q-2 83 -51.5 135t-131.5 52q-100 0 -151 -72.5t-51 -236.5v-29q0 -166 50.5 -238t153.5 -72q80 0 129.5 43.5t51.5 115.5h268q-1 -109 -59.5 -199.5t-160 -140.5t-224.5 -50q-229 0 -362 146 t-133 404zM415 -136l31 142h214l-11 -57q148 -27 148 -172q0 -109 -90.5 -172t-254.5 -63l-7 165q111 0 111 80q0 42 -33.5 57t-107.5 20z" />
<glyph unicode="&#xe8;" horiz-adv-x="1095" d="M71 510v28q0 161 62.5 288t177 196t260.5 69q220 0 346 -138.5t126 -393.5v-116h-682q14 -105 84 -168.5t177 -63.5q165 0 258 120l141 -158q-65 -91 -174.5 -142t-243.5 -51q-236 0 -384 144.5t-148 385.5zM173 1521h312l196 -307h-234zM364 638h398v22q-2 95 -51.5 147 t-140.5 52q-85 0 -138 -57.5t-68 -163.5z" />
<glyph unicode="&#xe9;" horiz-adv-x="1095" d="M71 510v28q0 161 62.5 288t177 196t260.5 69q220 0 346 -138.5t126 -393.5v-116h-682q14 -105 84 -168.5t177 -63.5q165 0 258 120l141 -158q-65 -91 -174.5 -142t-243.5 -51q-236 0 -384 144.5t-148 385.5zM364 638h398v22q-2 95 -51.5 147t-140.5 52q-85 0 -138 -57.5 t-68 -163.5zM401 1214l195 307h312l-274 -307h-233z" />
<glyph unicode="&#xea;" horiz-adv-x="1095" d="M71 510v28q0 161 62.5 288t177 196t260.5 69q220 0 346 -138.5t126 -393.5v-116h-682q14 -105 84 -168.5t177 -63.5q165 0 258 120l141 -158q-65 -91 -174.5 -142t-243.5 -51q-236 0 -384 144.5t-148 385.5zM163 1232v15l293 274h166l297 -278v-11h-228l-152 143 l-152 -143h-224zM364 638h398v22q-2 95 -51.5 147t-140.5 52q-85 0 -138 -57.5t-68 -163.5z" />
<glyph unicode="&#xeb;" horiz-adv-x="1095" d="M71 510v28q0 161 62.5 288t177 196t260.5 69q220 0 346 -138.5t126 -393.5v-116h-682q14 -105 84 -168.5t177 -63.5q165 0 258 120l141 -158q-65 -91 -174.5 -142t-243.5 -51q-236 0 -384 144.5t-148 385.5zM159 1351q0 54 38 90t99 36t98.5 -37t37.5 -88.5t-37.5 -88 t-98.5 -36.5q-59 0 -98 35t-39 89zM364 638h398v22q-2 95 -51.5 147t-140.5 52q-85 0 -138 -57.5t-68 -163.5zM641 1351q0 53 39 89.5t98 36.5q57 0 97 -36t40 -90q0 -51 -38 -88t-99.5 -37t-99 37t-37.5 88z" />
<glyph unicode="&#xec;" horiz-adv-x="555" d="M-88 1506h312l196 -307h-234zM133 0v1071h286v-1071h-286z" />
<glyph unicode="&#xed;" horiz-adv-x="555" d="M133 0v1071h286v-1071h-286zM140 1199l195 307h312l-274 -307h-233z" />
<glyph unicode="&#xee;" horiz-adv-x="555" d="M-98 1217v15l293 274h166l297 -278v-11h-228l-152 143l-152 -143h-224zM133 0v1071h286v-1071h-286z" />
<glyph unicode="&#xef;" horiz-adv-x="555" d="M-101 1336q0 54 38 90t99 36t98.5 -37t37.5 -88.5t-37.5 -88t-98.5 -36.5q-59 0 -98 35t-39 89zM133 0v1071h286v-1071h-286zM381 1336q0 53 39 89.5t98 36.5q57 0 97 -36t40 -90q0 -51 -38 -88t-99.5 -37t-99 37t-37.5 88z" />
<glyph unicode="&#xf0;" horiz-adv-x="1166" d="M83 463q0 229 122 361t326 132q134 0 241 -75q-48 151 -164 262l-189 -120l-77 113l150 96q-115 71 -261 109l90 222q235 -47 412 -178l169 108l76 -113l-137 -88q252 -259 253 -648v-73q0 -170 -66 -305.5t-183.5 -210.5t-263.5 -75q-142 0 -256 63t-178 174.5 t-64 245.5zM369 463q0 -111 59.5 -181.5t156.5 -70.5q102 0 162.5 89.5t60.5 245.5v110q-67 83 -213 83q-112 0 -169 -74t-57 -202z" />
<glyph unicode="&#xf1;" horiz-adv-x="1135" d="M104 0v1071h269l9 -124q115 144 308 144q170 0 253.5 -100t85.5 -299v-692h-287v685q0 91 -39.5 132t-131.5 41q-121 0 -181 -103v-755h-286zM196 1244q0 110 65 187.5t159 77.5q29 0 55.5 -7.5t86 -36.5t82 -34.5t47.5 -5.5q34 0 59.5 24t25.5 70l165 -11 q0 -112 -65 -188t-159 -76q-38 0 -67 8.5t-80.5 36.5t-74.5 34.5t-50 6.5q-34 0 -58.5 -25t-24.5 -70z" />
<glyph unicode="&#xf2;" horiz-adv-x="1146" d="M65 533v12q0 160 61.5 284.5t177 193t267.5 68.5q217 0 354 -132.5t153 -360.5l2 -73q0 -247 -137.5 -396t-369 -149t-370 148.5t-138.5 404.5zM204 1521h312l196 -307h-234zM351 525q0 -153 57.5 -233.5t164.5 -80.5q104 0 162.5 79.5t58.5 254.5q0 150 -58.5 232 t-164.5 82q-105 0 -162.5 -81.5t-57.5 -252.5z" />
<glyph unicode="&#xf3;" horiz-adv-x="1146" d="M65 533v12q0 160 61.5 284.5t177 193t267.5 68.5q217 0 354 -132.5t153 -360.5l2 -73q0 -247 -137.5 -396t-369 -149t-370 148.5t-138.5 404.5zM351 525q0 -153 57.5 -233.5t164.5 -80.5q104 0 162.5 79.5t58.5 254.5q0 150 -58.5 232t-164.5 82q-105 0 -162.5 -81.5 t-57.5 -252.5zM433 1214l195 307h312l-274 -307h-233z" />
<glyph unicode="&#xf4;" horiz-adv-x="1146" d="M65 533v12q0 160 61.5 284.5t177 193t267.5 68.5q217 0 354 -132.5t153 -360.5l2 -73q0 -247 -137.5 -396t-369 -149t-370 148.5t-138.5 404.5zM194 1232v15l293 274h166l297 -278v-11h-228l-152 143l-152 -143h-224zM351 525q0 -153 57.5 -233.5t164.5 -80.5 q104 0 162.5 79.5t58.5 254.5q0 150 -58.5 232t-164.5 82q-105 0 -162.5 -81.5t-57.5 -252.5z" />
<glyph unicode="&#xf5;" horiz-adv-x="1146" d="M65 533v12q0 160 61.5 284.5t177 193t267.5 68.5q217 0 354 -132.5t153 -360.5l2 -73q0 -247 -137.5 -396t-369 -149t-370 148.5t-138.5 404.5zM197 1244q0 110 65 187.5t159 77.5q29 0 55.5 -7.5t86 -36.5t82 -34.5t47.5 -5.5q34 0 59.5 24t25.5 70l165 -11 q0 -112 -65 -188t-159 -76q-38 0 -67 8.5t-80.5 36.5t-74.5 34.5t-50 6.5q-34 0 -58.5 -25t-24.5 -70zM351 525q0 -153 57.5 -233.5t164.5 -80.5q104 0 162.5 79.5t58.5 254.5q0 150 -58.5 232t-164.5 82q-105 0 -162.5 -81.5t-57.5 -252.5z" />
<glyph unicode="&#xf6;" horiz-adv-x="1146" d="M65 533v12q0 160 61.5 284.5t177 193t267.5 68.5q217 0 354 -132.5t153 -360.5l2 -73q0 -247 -137.5 -396t-369 -149t-370 148.5t-138.5 404.5zM191 1351q0 54 38 90t99 36t98.5 -37t37.5 -88.5t-37.5 -88t-98.5 -36.5q-59 0 -98 35t-39 89zM351 525q0 -153 57.5 -233.5 t164.5 -80.5q104 0 162.5 79.5t58.5 254.5q0 150 -58.5 232t-164.5 82q-105 0 -162.5 -81.5t-57.5 -252.5zM673 1351q0 53 39 89.5t98 36.5q57 0 97 -36t40 -90q0 -51 -38 -88t-99.5 -37t-99 37t-37.5 88z" />
<glyph unicode="&#xf7;" horiz-adv-x="1156" d="M62 565v228h1018v-228h-1018zM411 274q0 68 45 109.5t116 41.5t117 -41t46 -110q0 -66 -45 -107t-118 -41q-74 0 -117.5 41.5t-43.5 106.5zM411 1078q0 67 45 109t116 42t117 -41.5t46 -109.5q0 -66 -45 -107t-118 -41q-74 0 -117.5 41.5t-43.5 106.5z" />
<glyph unicode="&#xf8;" horiz-adv-x="1144" d="M65 545q0 160 61.5 284.5t177 193t267.5 68.5q100 0 184 -29l70 142h159l-102 -209q198 -148 198 -470q0 -247 -137.5 -396t-369.5 -149q-94 0 -174 26l-71 -147h-160l102 210q-205 145 -205 476zM351 525q0 -129 41 -206l257 526q-35 14 -78 14q-105 0 -162.5 -81.5 t-57.5 -252.5zM504 221q30 -10 69 -10q104 0 162.5 79.5t58.5 254.5q0 113 -37 195z" />
<glyph unicode="&#xf9;" horiz-adv-x="1134" d="M103 369v702h286v-692q0 -167 153 -167q145 0 200 101v758h287v-1071h-270l-8 109q-106 -129 -293 -129q-172 0 -262.5 99t-92.5 290zM200 1521h312l196 -307h-234z" />
<glyph unicode="&#xfa;" horiz-adv-x="1134" d="M103 369v702h286v-692q0 -167 153 -167q145 0 200 101v758h287v-1071h-270l-8 109q-106 -129 -293 -129q-172 0 -262.5 99t-92.5 290zM429 1214l195 307h312l-274 -307h-233z" />
<glyph unicode="&#xfb;" horiz-adv-x="1134" d="M103 369v702h286v-692q0 -167 153 -167q145 0 200 101v758h287v-1071h-270l-8 109q-106 -129 -293 -129q-172 0 -262.5 99t-92.5 290zM190 1232v15l293 274h166l297 -278v-11h-228l-152 143l-152 -143h-224z" />
<glyph unicode="&#xfc;" horiz-adv-x="1134" d="M103 369v702h286v-692q0 -167 153 -167q145 0 200 101v758h287v-1071h-270l-8 109q-106 -129 -293 -129q-172 0 -262.5 99t-92.5 290zM187 1351q0 54 38 90t99 36t98.5 -37t37.5 -88.5t-37.5 -88t-98.5 -36.5q-59 0 -98 35t-39 89zM669 1351q0 53 39 89.5t98 36.5 q57 0 97 -36t40 -90q0 -51 -38 -88t-99.5 -37t-99 37t-37.5 88z" />
<glyph unicode="&#xfd;" horiz-adv-x="1017" d="M3 1071h308l199 -666l198 666h307l-431 -1237l-24 -57q-96 -210 -316 -210q-63 0 -127 19v217l43 -1q82 0 122 25t63 82l33 88zM377 1214l195 307h312l-274 -307h-233z" />
<glyph unicode="&#xfe;" d="M112 -412v1933h287v-542q99 112 259 112q196 0 307 -145.5t111 -405.5v-14q0 -248 -112.5 -397t-303.5 -149q-162 0 -261 112v-504h-287zM399 315q53 -104 186 -104q205 0 205 335q0 150 -53 231t-154 81q-131 0 -184 -101v-442z" />
<glyph unicode="&#xff;" horiz-adv-x="1017" d="M3 1071h308l199 -666l198 666h307l-431 -1237l-24 -57q-96 -210 -316 -210q-63 0 -127 19v217l43 -1q82 0 122 25t63 82l33 88zM136 1351q0 54 38 90t99 36t98.5 -37t37.5 -88.5t-37.5 -88t-98.5 -36.5q-59 0 -98 35t-39 89zM618 1351q0 53 39 89.5t98 36.5q57 0 97 -36 t40 -90q0 -51 -38 -88t-99.5 -37t-99 37t-37.5 88z" />
<glyph unicode="&#x131;" horiz-adv-x="555" d="M133 0v1071h286v-1071h-286z" />
<glyph unicode="&#x152;" horiz-adv-x="1963" d="M95 557v314q0 171 75 306.5t212 209.5t311 74q122 0 287 -20h875v-240h-666v-344h569v-232h-569v-386h668v-239h-877q-165 -20 -285 -20q-172 0 -309 73t-212.5 205t-78.5 299zM381 570q0 -174 82.5 -267t231.5 -93q93 0 196 13v994q-111 14 -198 14q-149 0 -230 -92 t-82 -263v-306z" />
<glyph unicode="&#x153;" horiz-adv-x="1828" d="M82 533v12q0 160 60.5 284t175.5 193t267 69q229 0 367 -148q133 150 346 148q212 0 333.5 -127.5t121.5 -361.5v-156h-647q16 -112 80.5 -174t166.5 -62q84 0 150.5 16.5t147.5 60.5l79 -185q-73 -57 -181 -89.5t-225 -32.5q-231 0 -370 148q-136 -148 -367 -148 t-368 148t-137 405zM368 525q0 -154 56 -234.5t163 -80.5q105 0 161.5 79.5t56.5 255.5q0 152 -57.5 233t-162.5 81q-104 0 -160.5 -81t-56.5 -253zM1109 641h363v25q0 96 -46 144.5t-128 48.5q-76 0 -124.5 -56.5t-64.5 -161.5z" />
<glyph unicode="&#x178;" horiz-adv-x="1253" d="M2 1441h326l298 -649l300 649h324l-473 -918v-523h-302v523zM249 1658q0 54 38 90t99 36t98.5 -37t37.5 -88.5t-37.5 -88t-98.5 -36.5q-59 0 -98 35t-39 89zM731 1658q0 53 39 89.5t98 36.5q57 0 97 -36t40 -90q0 -51 -38 -88t-99.5 -37t-99 37t-37.5 88z" />
<glyph unicode="&#x192;" horiz-adv-x="731" d="M-35 -416l15 227q28 -12 90.5 -12t87 39t24.5 113v910h-159v210h159v99q2 177 105.5 274t289.5 97q63 0 158 -20l-24 -222q-42 10 -98 10q-144 0 -144 -149v-89h205v-210h-205l-1 -908q0 -186 -95.5 -286t-265.5 -100q-77 0 -142 17z" />
<glyph unicode="&#x2c6;" horiz-adv-x="1004" d="M122 1232v15l293 274h166l297 -278v-11h-228l-152 143l-152 -143h-224z" />
<glyph unicode="&#x2c7;" horiz-adv-x="954" d="M84 1513v9h245l145 -142l145 142h244v-11l-299 -278h-181z" />
<glyph unicode="&#x2d8;" horiz-adv-x="899" d="M105 1511h203q0 -63 37 -97t102 -34t101.5 34t36.5 97h205q0 -132 -94.5 -213t-248 -81t-248 80t-94.5 214z" />
<glyph unicode="&#x2d9;" horiz-adv-x="537" d="M117 1360.5q0 59.5 40 97.5t106 38q69 0 108 -38t39 -97.5t-39 -97t-108 -37.5q-67 0 -106.5 37.5t-39.5 97z" />
<glyph unicode="&#x2da;" horiz-adv-x="675" d="M118 1312q0 85 64.5 144t156.5 59q91 0 155.5 -58t64.5 -145q0 -84 -63 -141.5t-157 -57.5q-96 0 -158.5 58.5t-62.5 140.5zM232 1312q0 -44 28.5 -75t78 -31t78.5 31t29 75q0 45 -29.5 76.5t-78 31.5t-77.5 -31.5t-29 -76.5z" />
<glyph unicode="&#x2db;" horiz-adv-x="609" d="M33 -211q0 170 220 270l147 -59q-73 -42 -112.5 -82t-39.5 -92q0 -65 65 -65q33 0 79 20l29 -155q-73 -44 -164 -44q-99 0 -161.5 55t-62.5 152z" />
<glyph unicode="&#x2dc;" horiz-adv-x="975" d="M116 1245q0 110 65 187.5t159 77.5q29 0 55.5 -7.5t86 -36.5t82 -34.5t47.5 -5.5q34 0 59.5 24t25.5 70l165 -11q0 -112 -65 -188t-159 -76q-38 0 -67 8.5t-80.5 36.5t-74.5 34.5t-50 6.5q-34 0 -58.5 -25t-24.5 -70z" />
<glyph unicode="&#x2dd;" horiz-adv-x="831" d="M56 1222l185 298h252l-227 -298h-210zM405 1222l223 298h256l-263 -298h-216z" />
<glyph unicode="&#x3a9;" horiz-adv-x="1362" d="M101 763v88q0 176 72.5 315.5t203 216.5t295.5 77q164 0 294 -75.5t202.5 -211.5t75.5 -307v-99q0 -153 -62 -291t-169 -234h214v-242h-499v246q172 74 184 463l1 144q0 182 -63.5 273.5t-177.5 91.5q-112 0 -175.5 -91.5t-63.5 -273.5v-86q0 -223 48.5 -354t143.5 -167 v-246h-507v242h215q-108 97 -169.5 235t-62.5 286z" />
<glyph unicode="&#x3c0;" horiz-adv-x="1304" d="M51 852v219h1190v-219h-169v-517q0 -59 22.5 -85t87.5 -26q44 0 83 8v-217q-77 -26 -172 -26q-301 0 -307 304v559h-273v-852h-286v852h-176z" />
<glyph unicode="&#x400;" horiz-adv-x="1140" d="M129 0v1441h964v-240h-667v-344h570v-232h-570v-386h669v-239h-966zM263 1831h312l196 -307h-234z" />
<glyph unicode="&#x401;" horiz-adv-x="1140" d="M129 0v1441h964v-240h-667v-344h570v-232h-570v-386h669v-239h-966zM249 1661q0 54 38 90t99 36t98.5 -37t37.5 -88.5t-37.5 -88t-98.5 -36.5q-59 0 -98 35t-39 89zM731 1661q0 53 39 89.5t98 36.5q57 0 97 -36t40 -90q0 -51 -38 -88t-99.5 -37t-99 37t-37.5 88z" />
<glyph unicode="&#x402;" horiz-adv-x="1515" d="M29 1201v240h1124v-240h-468v-346q132 31 241 31q256 0 395 -117.5t139 -329.5q0 -97 -35 -184.5t-110 -149.5q-146 -122 -405 -122v225q253 0 253 213q0 101 -65 162t-187 61q-116 0 -226 -22v-622h-298v1201h-358z" />
<glyph unicode="&#x403;" horiz-adv-x="1129" d="M131 0v1441h943v-240h-646v-1201h-297zM472 1524l195 307h312l-274 -307h-233z" />
<glyph unicode="&#x404;" horiz-adv-x="1337" d="M86 662v103q0 211 73.5 369t209.5 242.5t316 84.5q251 0 402.5 -134t175.5 -376h-297q-11 140 -77.5 205t-203.5 65q-139 0 -213.5 -93t-86.5 -286h443v-240h-443q10 -189 80 -286.5t217 -97.5q134 0 203 64t79 197h298q-17 -229 -170.5 -364t-409.5 -135 q-274 0 -433.5 183t-162.5 499z" />
<glyph unicode="&#x405;" horiz-adv-x="1246" d="M68 453h298q0 -238 285 -238q106 0 165.5 43t59.5 120q0 84 -59.5 129t-214 95t-244.5 99q-245 133 -245 357q0 117 66 208.5t189 143t276 51.5q155 0 275.5 -56t187.5 -158t67 -231h-297q0 99 -62.5 154t-174.5 55q-109 0 -169.5 -46t-60.5 -122q0 -70 70.5 -117.5 t208.5 -89.5q253 -76 369 -189t116 -281q0 -187 -141.5 -293.5t-381.5 -106.5q-166 0 -302.5 61t-208.5 167t-72 245z" />
<glyph unicode="&#x406;" horiz-adv-x="591" d="M148 0v1441h297v-1441h-297z" />
<glyph unicode="&#x407;" horiz-adv-x="591" d="M-83 1661q0 54 38 90t99 36t98.5 -37t37.5 -88.5t-37.5 -88t-98.5 -36.5q-59 0 -98 35t-39 89zM148 0v1441h297v-1441h-297zM399 1661q0 53 39 89.5t98 36.5q57 0 97 -36t40 -90q0 -51 -38 -88t-99.5 -37t-99 37t-37.5 88z" />
<glyph unicode="&#x408;" horiz-adv-x="1132" d="M40 426h299q0 -106 44.5 -156.5t140.5 -50.5q85 0 135.5 58.5t50.5 166.5v997h297v-997q0 -138 -61 -243.5t-172 -163t-250 -57.5q-229 0 -356.5 116.5t-127.5 329.5z" />
<glyph unicode="&#x409;" horiz-adv-x="2144" d="M40 0v239l49 5q112 14 160 128.5t61 407.5l25 661h966v-490h238q161 0 285.5 -59.5t192.5 -168.5t68 -247q0 -212 -150 -344t-404 -132h-528v1201h-384l-24 -509q-15 -257 -65.5 -405t-147.5 -217t-265 -70h-77zM1301 239h236q114 0 182 66.5t68 172.5q0 100 -65 165.5 t-175 68.5h-246v-473z" />
<glyph unicode="&#x40a;" horiz-adv-x="2146" d="M131 0v1441h297v-607h577v607h297v-499h239q161 0 284.5 -58.5t191.5 -166t68 -245.5q0 -210 -147 -339.5t-389 -132.5h-544v595h-577v-595h-297zM1302 241h237q113 0 181.5 64.5t68.5 168.5q0 101 -68 165t-183 64h-236v-462z" />
<glyph unicode="&#x40b;" horiz-adv-x="1564" d="M33 1201v240h1101v-240h-463v-296q127 18 215 18q274 0 416 -120t146 -346v-457h-297v446q0 128 -60 182.5t-205 54.5q-88 0 -215 -18v-665h-297v1201h-341z" />
<glyph unicode="&#x40c;" horiz-adv-x="1287" d="M129 0v1441h297v-653l130 179l368 474h365l-512 -640l527 -801h-354l-370 578l-154 -166v-412h-297zM452 1521l195 307h312l-274 -307h-233z" />
<glyph unicode="&#x40d;" horiz-adv-x="1419" d="M119 0v1441h297v-959l577 959h298v-1441h-298v957l-577 -957h-297zM341 1831h312l196 -307h-234z" />
<glyph unicode="&#x40e;" horiz-adv-x="1280" d="M31 1441h319l319 -681l263 681h320l-504 -1189l-40 -78q-112 -195 -343 -195l-104 4l-3 239q24 -4 78 -4q62 0 100 21.5t64 80.5l37 94zM320 1821h203q0 -63 37 -97t102 -34t101.5 34t36.5 97h205q0 -132 -94.5 -213t-248 -81t-248 80t-94.5 214z" />
<glyph unicode="&#x40f;" horiz-adv-x="1419" d="M116 0v1441h297v-1202h577v1202h298v-1441h-424v-356h-299v356h-449z" />
<glyph unicode="&#x410;" horiz-adv-x="1364" d="M7 0l537 1441h275l539 -1441h-316l-100 297h-520l-99 -297h-316zM502 538h360l-181 539z" />
<glyph unicode="&#x411;" horiz-adv-x="1270" d="M126 0v1441h943v-240h-643v-279h231q255 0 404 -123.5t149 -332.5q0 -210 -148 -337t-394 -129h-542zM426 239h236q114 0 182 62t68 167q0 98 -65 155t-178 59h-243v-443z" />
<glyph unicode="&#x412;" horiz-adv-x="1293" d="M129 0v1441h505q262 0 397.5 -100.5t135.5 -294.5q0 -106 -54.5 -186.5t-151.5 -117.5q111 -28 175 -112.5t64 -205.5q0 -208 -132.5 -315t-378.5 -109h-560zM426 239h254q105 0 164 50t59 138q0 198 -205 201h-272v-389zM426 838h219q225 4 225 179q0 98 -57 141 t-179 43h-208v-363z" />
<glyph unicode="&#x413;" horiz-adv-x="1129" d="M131 0v1441h943v-240h-646v-1201h-297z" />
<glyph unicode="&#x414;" horiz-adv-x="1515" d="M25 239h109q88 73 136 215t65 352l41 635h945v-1202h168l-24 -593h-274v354h-869v-353h-281zM474 239h550v962h-366l-24 -379q-30 -381 -160 -583z" />
<glyph unicode="&#x415;" horiz-adv-x="1140" d="M129 0v1441h964v-240h-667v-344h570v-232h-570v-386h669v-239h-966z" />
<glyph unicode="&#x416;" horiz-adv-x="2022" d="M17 0l449 773l-427 668h369l321 -581h147v581h297v-581h145l313 581h368l-420 -667l443 -774h-372l-306 587h-171v-587h-297v587h-175l-314 -587h-370z" />
<glyph unicode="&#x417;" horiz-adv-x="1250" d="M66 400h299q0 -77 67.5 -129t172.5 -52q119 0 187.5 53.5t68.5 135.5q0 113 -61 162t-179 49h-177v232h183q213 3 213 193q0 83 -64.5 130t-170.5 47q-95 0 -158 -47t-63 -123h-297q0 117 66 210.5t187 146t265 52.5q249 0 391 -107t142 -303q0 -96 -58 -178t-165 -131 q119 -42 182 -126.5t63 -210.5q0 -194 -152 -308.5t-403 -114.5q-158 0 -283.5 54t-190.5 147.5t-65 217.5z" />
<glyph unicode="&#x418;" horiz-adv-x="1419" d="M119 0v1441h297v-959l577 959h298v-1441h-298v957l-577 -957h-297z" />
<glyph unicode="&#x419;" horiz-adv-x="1419" d="M119 0v1441h297v-959l577 959h298v-1441h-298v957l-577 -957h-297zM365 1821h203q0 -63 37 -97t102 -34t101.5 34t36.5 97h205q0 -132 -94.5 -213t-248 -81t-248 80t-94.5 214z" />
<glyph unicode="&#x41a;" horiz-adv-x="1309" d="M131 0v1441h297v-577h135l353 577h362l-444 -682l491 -759h-355l-371 589h-171v-589h-297z" />
<glyph unicode="&#x41b;" horiz-adv-x="1431" d="M40 0v239l49 5q112 14 160 128.5t61 407.5l25 661h966v-1441h-298v1201h-384l-24 -509q-15 -257 -65.5 -405t-147.5 -217t-265 -70h-77z" />
<glyph unicode="&#x41c;" horiz-adv-x="1776" d="M129 0v1441h388l370 -1045l368 1045h390v-1441h-298v394l30 680l-389 -1074h-204l-388 1073l30 -679v-394h-297z" />
<glyph unicode="&#x41d;" horiz-adv-x="1432" d="M129 0v1441h297v-584h579v584h297v-1441h-297v618h-579v-618h-297z" />
<glyph unicode="&#x41e;" horiz-adv-x="1399" d="M85 680v71q0 213 77 375t217 248.5t320 86.5t320 -86.5t217 -248.5t77 -374v-64q0 -213 -75.5 -373.5t-215.5 -247.5t-321 -87q-179 0 -319.5 86t-218 246t-78.5 368zM386 688q0 -221 81 -342.5t234 -121.5q149 0 229.5 117t81.5 342v70q0 227 -81.5 345t-231.5 118 t-231 -116.5t-82 -341.5v-70z" />
<glyph unicode="&#x41f;" horiz-adv-x="1434" d="M131 0v1441h1172v-1441h-298v1201h-577v-1201h-297z" />
<glyph unicode="&#x420;" horiz-adv-x="1307" d="M129 0v1441h562q162 0 285.5 -59t190 -168.5t66.5 -249.5q0 -212 -145.5 -334t-401.5 -122h-260v-508h-297zM426 748h265q118 0 180 55.5t62 158.5q0 106 -62.5 171.5t-172.5 67.5h-272v-453z" />
<glyph unicode="&#x421;" horiz-adv-x="1326" d="M85 679v88q0 208 73.5 366.5t209.5 243t316 84.5q250 0 402 -133.5t176 -375.5h-297q-11 140 -77.5 203t-203.5 63q-148 0 -222 -106.5t-76 -330.5v-109q0 -233 71 -341t223 -108q138 0 205.5 62.5t77.5 194.5h297q-17 -232 -171.5 -366t-408.5 -134q-277 0 -436 186.5 t-159 512.5z" />
<glyph unicode="&#x422;" horiz-adv-x="1254" d="M40 1201v240h1174v-240h-442v-1201h-297v1201h-435z" />
<glyph unicode="&#x423;" horiz-adv-x="1280" d="M31 1441h319l319 -681l263 681h320l-504 -1189l-40 -78q-112 -195 -343 -195l-104 4l-3 239q24 -4 78 -4q62 0 100 21.5t64 80.5l37 94z" />
<glyph unicode="&#x424;" horiz-adv-x="1655" d="M72 711q0 176 77 313t216.5 213t323.5 76v188h286v-188q181 0 321 -75.5t216.5 -212t76.5 -312.5q0 -172 -76.5 -307t-217 -208t-320.5 -73v-184h-286v184q-185 0 -325 73.5t-216 207.5t-76 305zM353 711q0 -161 86.5 -250.5t249.5 -89.5v695h-7q-156 0 -242.5 -93.5 t-86.5 -261.5zM975 371h5q155 0 241.5 90t86.5 252q0 168 -85 260.5t-248 92.5v-695z" />
<glyph unicode="&#x425;" horiz-adv-x="1287" d="M22 0l430 727l-419 714h341l270 -497l271 497h341l-419 -714l430 -727h-345l-278 505l-277 -505h-345z" />
<glyph unicode="&#x426;" horiz-adv-x="1538" d="M116 0v1441h297v-1202h577v1202h298v-1202h197l-20 -586h-277v347h-1072z" />
<glyph unicode="&#x427;" horiz-adv-x="1409" d="M136 984v457h298v-451q1 -124 59.5 -178.5t204.5 -54.5q147 0 283 29v655h298v-1441h-298v546q-136 -28 -283 -28q-274 0 -416 119.5t-146 346.5z" />
<glyph unicode="&#x428;" horiz-adv-x="1943" d="M127 0v1441h298v-1202h400v1202h298v-1202h396v1202h297v-1441h-1689z" />
<glyph unicode="&#x429;" horiz-adv-x="2070" d="M127 0v1441h298v-1202h400v1202h298v-1202h396v1202h297v-1211h190l-20 -576h-265v346h-1594z" />
<glyph unicode="&#x42a;" horiz-adv-x="1562" d="M25 1210v231h693v-519h231q255 0 404 -123.5t149 -332.5q0 -210 -148 -337t-394 -129h-541v1210h-394zM718 239h236q114 0 182 62t68 167q0 98 -65 155t-178 59h-243v-443z" />
<glyph unicode="&#x42b;" horiz-adv-x="1767" d="M132 0v1441h299v-519h231q255 0 404 -123.5t149 -332.5q0 -210 -148 -337t-394 -129h-541zM431 239h236q114 0 182 62t68 167q0 98 -65 155t-178 59h-243v-443zM1338 0v1441h297v-1441h-297z" />
<glyph unicode="&#x42c;" horiz-adv-x="1268" d="M127 0v1441h299v-519h231q255 0 404 -123.5t149 -332.5q0 -210 -148 -337t-394 -129h-541zM426 239h236q114 0 182 62t68 167q0 98 -65 155t-178 59h-243v-443z" />
<glyph unicode="&#x42d;" horiz-adv-x="1318" d="M61 951q22 237 173 373.5t405 136.5q180 0 316 -84.5t209.5 -242.5t73.5 -368v-94q0 -319 -159 -505.5t-436 -186.5q-256 0 -410 135t-171 364h297q13 -139 82.5 -200t201.5 -61q145 0 215.5 96.5t81.5 285.5h-456v241h455q-12 193 -87 286.5t-213 93.5 q-135 0 -202.5 -64t-78.5 -206h-297z" />
<glyph unicode="&#x42e;" horiz-adv-x="1912" d="M141 0v1441h297v-637h160q9 195 86.5 344.5t215 231t311.5 81.5q180 0 320 -86.5t217 -248.5t77 -374v-64q0 -213 -75.5 -373.5t-215.5 -247.5t-321 -87q-166 0 -297 72t-212.5 206.5t-100.5 314.5h-165v-573h-297zM898 688q0 -221 81 -342.5t234 -121.5q149 0 229.5 117 t81.5 342v70q0 227 -81.5 345t-231.5 118t-231 -116.5t-82 -341.5v-70z" />
<glyph unicode="&#x42f;" horiz-adv-x="1209" d="M-28 0l308 615q-223 123 -223 381q0 212 139 327.5t387 117.5h510v-1441h-298v520h-242l-260 -520h-321zM354 974q0 -121 59 -175.5t177 -54.5h205v457h-205q-236 0 -236 -227z" />
<glyph unicode="&#x430;" horiz-adv-x="1087" d="M67 301q0 170 126.5 261t364.5 92h132v62q0 74 -38 118.5t-120 44.5q-73 0 -114 -34.5t-41 -95.5h-286q0 93 57.5 172.5t162.5 124.5t235 45q198 0 314.5 -99.5t116.5 -279.5v-464q1 -153 43 -231v-17h-289q-20 39 -29 96q-104 -116 -270 -116q-158 0 -261.5 91 t-103.5 230zM353 322q0 -54 38 -88.5t103 -34.5q63 0 116.5 28t79.5 76v184h-107q-215 0 -229 -148z" />
<glyph unicode="&#x431;" horiz-adv-x="1154" d="M83 541v47q2 361 122.5 565.5t361.5 258.5q127 27 163.5 54.5t36.5 75.5h232q0 -155 -83.5 -233t-297.5 -121q-127 -26 -200 -100t-99 -209q136 133 323 133q205 0 328 -136.5t123 -371.5v-14q0 -232 -136.5 -371.5t-367.5 -139.5q-232 0 -369 151t-137 411zM369 490 q0 -137 56.5 -208.5t163.5 -71.5q104 0 160.5 70t57.5 207v24q0 132 -58 200.5t-162 68.5q-102 0 -160 -68t-58 -222z" />
<glyph unicode="&#x432;" horiz-adv-x="1147" d="M129 0v1071h447q219 0 336 -77t117 -222q0 -74 -49 -133t-143 -91q114 -21 180 -85t66 -157q0 -150 -112.5 -228t-326.5 -78h-515zM415 229h230q152 0 152 106q0 108 -145 110h-237v-216zM415 637h177q150 2 150 97q0 58 -41 83t-125 25h-161v-205z" />
<glyph unicode="&#x433;" horiz-adv-x="849" d="M110 0v1071h730v-231h-444v-840h-286z" />
<glyph unicode="&#x434;" horiz-adv-x="1280" d="M33 231h92q97 103 131.5 204t38.5 286l8 350h788v-840h154v-553h-286v322h-634v-322h-292v553zM462 231h344v604h-223l-2 -129q-9 -295 -119 -475z" />
<glyph unicode="&#x435;" horiz-adv-x="1095" d="M71 510v28q0 161 62.5 288t177 196t260.5 69q220 0 346 -138.5t126 -393.5v-116h-682q14 -105 84 -168.5t177 -63.5q165 0 258 120l141 -158q-65 -91 -174.5 -142t-243.5 -51q-236 0 -384 144.5t-148 385.5zM364 638h398v22q-2 95 -51.5 147t-140.5 52q-85 0 -138 -57.5 t-68 -163.5z" />
<glyph unicode="&#x436;" horiz-adv-x="1731" d="M39 0l337 560l-333 511h354l223 -400h105v400h286v-400h107l223 400h355l-332 -504l341 -567h-352l-213 397h-129v-397h-286v397h-128l-213 -397h-345z" />
<glyph unicode="&#x437;" horiz-adv-x="1041" d="M68 317h286q0 -55 48.5 -88.5t127.5 -33.5q76 0 118.5 35.5t42.5 93.5q0 70 -40.5 100t-121.5 30h-156v187h166q133 3 133 114q0 57 -37 88t-105 31q-71 0 -115 -29t-44 -83h-286q0 146 121 237t309 91q207 0 325 -81t118 -231q0 -71 -43 -131t-121 -96q183 -64 183 -248 q0 -148 -126 -235.5t-336 -87.5q-195 0 -321 91t-126 246z" />
<glyph unicode="&#x438;" d="M110 0v1071h287v-660l358 660h286v-1071h-286v661l-358 -661h-287z" />
<glyph unicode="&#x439;" d="M110 0v1071h287v-660l358 660h286v-1071h-286v661l-358 -661h-287zM239 1506h203q0 -63 37 -97t102 -34t101.5 34t36.5 97h205q0 -132 -94.5 -213t-248 -81t-248 80t-94.5 214z" />
<glyph unicode="&#x43a;" horiz-adv-x="1142" d="M129 0v1071h286v-403h102l233 403h362l-351 -510l383 -561h-381l-233 395h-115v-395h-286z" />
<glyph unicode="&#x43b;" horiz-adv-x="1152" d="M22 233l35 3q78 6 113.5 91t44.5 290l20 454h806v-1071h-286v840h-252l-18 -331q-17 -264 -104 -385t-259 -124h-97z" />
<glyph unicode="&#x43c;" horiz-adv-x="1539" d="M129 0v1071h355l278 -733l280 733h359v-1071h-286v657l-257 -657h-192l-251 646v-646h-286z" />
<glyph unicode="&#x43d;" d="M110 0v1071h286v-429h355v429h288v-1071h-288v412h-355v-412h-286z" />
<glyph unicode="&#x43e;" horiz-adv-x="1146" d="M65 533v12q0 160 61.5 284.5t177 193t267.5 68.5q217 0 354 -132.5t153 -360.5l2 -73q0 -247 -137.5 -396t-369 -149t-370 148.5t-138.5 404.5zM351 525q0 -153 57.5 -233.5t164.5 -80.5q104 0 162.5 79.5t58.5 254.5q0 150 -58.5 232t-164.5 82q-105 0 -162.5 -81.5 t-57.5 -252.5z" />
<glyph unicode="&#x43f;" d="M110 0v1071h931v-1071h-287v840h-358v-840h-286z" />
<glyph unicode="&#x440;" horiz-adv-x="1141" d="M110 -412v1483h265l10 -105q104 125 271 125q198 0 308 -146.5t110 -403.5v-15q0 -248 -112.5 -397t-303.5 -149q-162 0 -262 113v-505h-286zM396 317q52 -106 187 -106q205 0 205 335q0 150 -53 231t-154 81q-135 0 -185 -103v-438z" />
<glyph unicode="&#x441;" horiz-adv-x="1057" d="M65 530v18q0 248 132 395.5t361 147.5q201 0 322.5 -114.5t123.5 -304.5h-268q-2 83 -51.5 135t-131.5 52q-100 0 -151 -72.5t-51 -236.5v-29q0 -166 50.5 -238t153.5 -72q80 0 129.5 43.5t51.5 115.5h268q-1 -109 -59.5 -199.5t-160 -140.5t-224.5 -50q-229 0 -362 146 t-133 404z" />
<glyph unicode="&#x442;" horiz-adv-x="1032" d="M31 842v229h968v-229h-344v-842h-287v842h-337z" />
<glyph unicode="&#x443;" horiz-adv-x="1017" d="M3 1071h308l199 -666l198 666h307l-431 -1237l-24 -57q-96 -210 -316 -210q-63 0 -127 19v217l43 -1q82 0 122 25t63 82l33 88z" />
<glyph unicode="&#x444;" horiz-adv-x="1481" d="M67 528q0 258 105.5 410.5t290.5 152.5q73 0 132 -29v459h286v-460q61 30 136 30q186 0 291.5 -152t105.5 -432q0 -243 -106 -385t-289 -142q-77 0 -138 28v-420h-286v419q-59 -27 -134 -27q-173 0 -278 130t-115 355zM353 507q0 -296 182 -296q37 0 60 5v636 q-33 7 -58 7q-89 0 -136.5 -83.5t-47.5 -268.5zM881 216q28 -6 62 -6q169 0 183 255l1 63q0 160 -48.5 245.5t-137.5 85.5q-27 0 -60 -7v-636z" />
<glyph unicode="&#x445;" horiz-adv-x="1031" d="M21 0l318 546l-304 525h307l176 -320l180 320h306l-305 -525l318 -546h-307l-191 337l-190 -337h-308z" />
<glyph unicode="&#x446;" horiz-adv-x="1235" d="M110 0v1071h286v-840h358v840h287v-842h161l-20 -547h-266v318h-806z" />
<glyph unicode="&#x447;" horiz-adv-x="1122" d="M87 726v345h286v-345q1 -93 45.5 -133.5t158.5 -40.5q71 0 150 17v502h286v-1071h-286v337q-81 -15 -150 -15q-242 0 -365 103t-125 301z" />
<glyph unicode="&#x448;" horiz-adv-x="1677" d="M110 0v1071h286v-840h294v840h287v-840h294v840h286v-1071h-1447z" />
<glyph unicode="&#x449;" horiz-adv-x="1824" d="M107 0v1071h286v-840h294v840h287v-840h293v840h287v-842h213l-20 -547h-266v318h-1374z" />
<glyph unicode="&#x44a;" horiz-adv-x="1329" d="M33 840v231h592v-314h205q138 0 243 -46.5t161 -133t56 -201.5q0 -169 -125 -272.5t-341 -103.5h-485v840h-306zM625 229h203q85 0 130.5 39.5t45.5 107.5q0 70 -44.5 111t-131.5 41h-203v-299z" />
<glyph unicode="&#x44b;" horiz-adv-x="1678" d="M129 0v1071h287v-314h205q138 0 243 -46.5t161 -133t56 -201.5q0 -169 -125 -272.5t-341 -103.5h-486zM416 229h203q85 0 130.5 39.5t45.5 107.5q0 70 -44.5 111t-131.5 41h-203v-299zM1250 0v1071h286v-1071h-286z" />
<glyph unicode="&#x44c;" horiz-adv-x="1131" d="M129 0v1071h287v-314h205q138 0 243 -46.5t161 -133t56 -201.5q0 -169 -125 -272.5t-341 -103.5h-486zM416 229h203q85 0 130.5 39.5t45.5 107.5q0 70 -44.5 111t-131.5 41h-203v-299z" />
<glyph unicode="&#x44d;" horiz-adv-x="1054" d="M62 398h270q0 -82 46 -135t124 -53q86 0 138.5 61t64.5 180h-287v176h287q-29 232 -205 232q-77 0 -122.5 -43t-45.5 -115h-270q0 109 58 199t158.5 140.5t221.5 50.5q227 0 361.5 -148t134.5 -403v-19q0 -159 -59.5 -282t-172 -191t-262.5 -68q-198 0 -319 114t-121 304 z" />
<glyph unicode="&#x44e;" horiz-adv-x="1645" d="M133 0v1071h287v-411h154q32 200 164 315.5t333 115.5q217 0 354 -132.5t153 -360.5l2 -73q0 -247 -137.5 -396t-369.5 -149q-209 0 -342 121t-160 328h-151v-429h-287zM851 525q0 -153 57.5 -233.5t164.5 -80.5q106 0 163.5 80t57.5 254q0 150 -58.5 232t-164.5 82 q-105 0 -162.5 -81.5t-57.5 -252.5z" />
<glyph unicode="&#x44f;" horiz-adv-x="1133" d="M41 0l233 419q-96 44 -148 120.5t-52 173.5q0 155 120.5 254.5t322.5 103.5h486v-1071h-285v370h-181l-206 -370h-290zM360 703.5q0 -57.5 45.5 -95t116.5 -38.5h196v272h-186q-77 0 -124.5 -40.5t-47.5 -98z" />
<glyph unicode="&#x450;" horiz-adv-x="1095" d="M71 510v28q0 161 62.5 288t177 196t260.5 69q220 0 346 -138.5t126 -393.5v-116h-682q14 -105 84 -168.5t177 -63.5q165 0 258 120l141 -158q-65 -91 -174.5 -142t-243.5 -51q-236 0 -384 144.5t-148 385.5zM173 1521h312l196 -307h-234zM364 638h398v22q-2 95 -51.5 147 t-140.5 52q-85 0 -138 -57.5t-68 -163.5z" />
<glyph unicode="&#x451;" horiz-adv-x="1095" d="M71 510v28q0 161 62.5 288t177 196t260.5 69q220 0 346 -138.5t126 -393.5v-116h-682q14 -105 84 -168.5t177 -63.5q165 0 258 120l141 -158q-65 -91 -174.5 -142t-243.5 -51q-236 0 -384 144.5t-148 385.5zM159 1351q0 54 38 90t99 36t98.5 -37t37.5 -88.5t-37.5 -88 t-98.5 -36.5q-59 0 -98 35t-39 89zM364 638h398v22q-2 95 -51.5 147t-140.5 52q-85 0 -138 -57.5t-68 -163.5zM641 1351q0 53 39 89.5t98 36.5q57 0 97 -36t40 -90q0 -51 -38 -88t-99.5 -37t-99 37t-37.5 88z" />
<glyph unicode="&#x452;" horiz-adv-x="1134" d="M-51 1177v181h154v163h286v-163h252v-181h-252v-223q114 137 286 137q349 0 354 -405v-720q0 -191 -99 -295t-278 -104q-77 0 -141 17l14 227q42 -12 98 -12q119 0 119 174v704q0 93 -39.5 137t-131.5 44q-125 0 -182 -97v-761h-286v1177h-154z" />
<glyph unicode="&#x453;" horiz-adv-x="849" d="M110 0v1071h730v-231h-444v-840h-286zM284 1209l195 307h312l-274 -307h-233z" />
<glyph unicode="&#x454;" horiz-adv-x="1054" d="M63 529v19q0 248 132 395.5t362 147.5q200 0 322 -114.5t124 -304.5h-269q-2 85 -51.5 136t-130.5 51q-186 0 -201 -248h302v-175h-300q12 -116 61 -170.5t139 -54.5q80 0 129.5 43.5t51.5 115.5h269q-1 -110 -60 -200t-160.5 -140t-224.5 -50q-227 0 -361 145.5 t-134 403.5z" />
<glyph unicode="&#x455;" horiz-adv-x="1042" d="M55 341h272q4 -77 56.5 -117.5t140.5 -40.5q82 0 124 31.5t42 81.5q0 52 -52 82.5t-167 54.5q-382 80 -382 324q0 143 118.5 238.5t309.5 95.5q204 0 326 -96t122 -250h-286q0 62 -39.5 102t-123.5 40q-72 0 -112 -32.5t-40 -83.5q0 -47 45 -76.5t152 -50.5t181 -48 q226 -83 226 -288q0 -147 -125.5 -237.5t-324.5 -90.5q-135 0 -239.5 48t-164 132t-59.5 181z" />
<glyph unicode="&#x456;" horiz-adv-x="537" d="M108 1348q0 65 43 106.5t117 41.5t117.5 -41.5t43.5 -106.5t-44 -106.5t-116.5 -41.5t-116.5 41.5t-44 106.5zM125 0v1071h287v-1071h-287z" />
<glyph unicode="&#x457;" horiz-adv-x="555" d="M-101 1336q0 54 38 90t99 36t98.5 -37t37.5 -88.5t-37.5 -88t-98.5 -36.5q-59 0 -98 35t-39 89zM133 0v1071h286v-1071h-286zM381 1336q0 53 39 89.5t98 36.5q57 0 97 -36t40 -90q0 -51 -38 -88t-99.5 -37t-99 37t-37.5 88z" />
<glyph unicode="&#x458;" horiz-adv-x="526" d="M-94 -189q51 -9 90 -9q130 0 130 138v1131h287v-1129q0 -178 -94 -276.5t-271 -98.5q-75 0 -142 17v227zM103 1348q0 65 43 106.5t117.5 41.5t117.5 -41.5t43 -106.5t-44 -106.5t-116.5 -41.5t-116.5 41.5t-44 106.5z" />
<glyph unicode="&#x459;" horiz-adv-x="1740" d="M21 233l35 3q78 6 113.5 91t44.5 290l20 454h798v-338h196q222 0 345.5 -100t123.5 -266t-125 -266.5t-341 -100.5h-487v840h-242l-18 -331q-17 -262 -102.5 -383t-255.5 -126h-103zM1032 229h203q85 0 130.5 38t45.5 102q0 62 -45.5 98t-130.5 36h-203v-274z" />
<glyph unicode="&#x45a;" horiz-adv-x="1746" d="M110 0v1071h286v-414h355v414h288v-338h196q222 0 345.5 -100t123.5 -266t-125 -266.5t-341 -100.5h-487v428h-355v-428h-286zM1039 229h202q86 0 131.5 38t45.5 102q0 62 -45.5 98t-131.5 36h-202v-274z" />
<glyph unicode="&#x45b;" horiz-adv-x="1144" d="M-38 1189v181h141v151h286v-151h265v-181h-265v-235q114 137 286 137q349 0 354 -405v-686h-287v678q0 92 -39.5 136t-131.5 44q-125 0 -182 -97v-761h-286v1189h-141z" />
<glyph unicode="&#x45c;" horiz-adv-x="1142" d="M129 0v1071h286v-403h102l233 403h362l-351 -510l383 -561h-381l-233 395h-115v-395h-286zM436 1209l195 307h312l-274 -307h-233z" />
<glyph unicode="&#x45d;" d="M110 0v1071h287v-660l358 660h286v-1071h-286v661l-358 -661h-287zM214 1516h312l196 -307h-234z" />
<glyph unicode="&#x45e;" horiz-adv-x="1017" d="M3 1071h308l199 -666l198 666h307l-431 -1237l-24 -57q-96 -210 -316 -210q-63 0 -127 19v217l43 -1q82 0 122 25t63 82l33 88zM173 1511h203q0 -63 37 -97t102 -34t101.5 34t36.5 97h205q0 -132 -94.5 -213t-248 -81t-248 80t-94.5 214z" />
<glyph unicode="&#x45f;" d="M110 0v1071h286v-840h358v840h287v-1071h-322v-355h-286v355h-323z" />
<glyph unicode="&#x460;" horiz-adv-x="1919" d="M118 463v978h298v-970q0 -253 193 -253q91 0 144 58t53 184v981h299v-972q0 -251 196 -251q90 0 142 58t52 184v981h298v-979q0 -222 -131.5 -352.5t-360.5 -130.5q-227 0 -346 161q-118 -161 -346 -161q-227 0 -359 130t-132 354z" />
<glyph unicode="&#x461;" horiz-adv-x="1663" d="M99 432v639h287v-643q4 -218 146 -218q167 0 170 222v639h287v-646q5 -215 158 -215q146 0 150 217v644h287v-635q-2 -213 -118.5 -334.5t-316.5 -122.5h-2q-199 0 -304 143q-108 -143 -311 -143q-197 0 -313.5 121t-119.5 332z" />
<glyph unicode="&#x462;" horiz-adv-x="1268" d="M-43 1078v181h170v182h299v-182h223v-181h-223v-156h231q255 0 404 -123.5t149 -332.5q0 -210 -148 -337t-394 -129h-541v1078h-170zM426 239h236q114 0 182 62t68 167q0 98 -65 155t-178 59h-243v-443z" />
<glyph unicode="&#x463;" horiz-adv-x="1130" d="M-27 1071v181h156v293h287v-293h253v-181h-253v-289h209q210 -2 332.5 -108t122.5 -281t-121.5 -282.5t-328.5 -110.5h-501v1071h-156zM416 229h203q86 0 131 43.5t45 119.5q0 71 -43 114.5t-126 45.5h-210v-323z" />
<glyph unicode="&#x464;" horiz-adv-x="1809" d="M124 0v1441h297v-590h173q14 187 91.5 326t208 212t296.5 73q249 0 401.5 -133.5t176.5 -375.5h-297q-11 140 -77.5 203t-203.5 63t-210 -90t-86 -278h425v-231h-426q8 -206 79 -301t215 -95q137 0 204.5 61.5t77.5 195.5h297q-17 -233 -172 -366.5t-407 -133.5 q-266 0 -423.5 171.5t-171.5 467.5h-171v-620h-297z" />
<glyph unicode="&#x465;" horiz-adv-x="1529" d="M116 0v1071h287v-443h134q21 215 150 339t339 124q200 0 321.5 -114.5t123.5 -304.5h-268q-2 83 -51.5 135t-130.5 52q-176 0 -199 -231h321v-182h-322q19 -235 201 -235q79 0 129 44t52 115h268q-2 -167 -128 -278.5t-315 -111.5q-211 0 -342 124.5t-150 341.5h-133 v-446h-287z" />
<glyph unicode="&#x466;" horiz-adv-x="1339" d="M15 0l508 1441h309l505 -1441h-311l-137 415h-95v-415h-248v415h-84l-135 -415h-312zM530 621h292l-146 444z" />
<glyph unicode="&#x467;" horiz-adv-x="1133" d="M7 0l405 1071h294l405 -1071h-292l-94 266h-77v-266h-189v266h-68l-92 -266h-292zM455 452h204l-72 208l-30 127l-29 -127z" />
<glyph unicode="&#x468;" horiz-adv-x="1895" d="M146 0v1441h297v-821h329l290 821h309l506 -1441h-312l-136 415h-95v-415h-248v415h-83l-137 -415h-312l146 415h-257v-415h-297zM1070 621h291l-145 442z" />
<glyph unicode="&#x469;" horiz-adv-x="1618" d="M125 0v1071h287v-620h249l235 620h293l406 -1071h-292l-94 266h-76v-266h-190v266h-68l-92 -266h-293l101 266h-179v-266h-287zM940 452h203l-72 208l-30 127l-29 -127z" />
<glyph unicode="&#x46a;" horiz-adv-x="1767" d="M108 0v338q1 227 128 339.5t395 114.5l-369 649h1277l-370 -650q246 -8 365 -117.5t124 -322.5v-351h-297v340q-1 111 -53 159t-172 50h-91v-549h-297v549h-105q-129 0 -183 -49t-55 -160v-340h-297zM715 1198l186 -360l186 360h-372z" />
<glyph unicode="&#x46b;" horiz-adv-x="1486" d="M110 0v188q2 193 96.5 295t288.5 121l-270 467h1051l-270 -469q191 -22 281 -128t90 -295v-179h-286v187q-1 110 -44.5 155.5t-155.5 45.5v-388h-286v388h-22q-102 0 -144 -46.5t-43 -155.5v-186h-286zM627 882l123 -259l125 259h-248z" />
<glyph unicode="&#x46c;" horiz-adv-x="2357" d="M148 0v1441h297v-645h775l-367 645h1277l-370 -650q246 -8 365 -117.5t124 -322.5v-351h-297v340q-1 111 -53 159t-172 50h-91v-549h-297v549h-105q-129 0 -183 -49t-55 -160v-340h-297v335q0 130 43 227h-297v-562h-297zM1306 1198l186 -360l186 360h-372z" />
<glyph unicode="&#x46d;" horiz-adv-x="2039" d="M133 0v1071h286v-463h626l-268 463h1052l-271 -469q191 -22 281.5 -128t90.5 -295v-179h-288v181q0 112 -42 159.5t-157 47.5v-388h-286v388h-21q-103 0 -145.5 -46.5t-43.5 -155.5v-186h-286v179q0 127 40 217h-282v-396h-286zM1179 882l124 -259l124 259h-248z" />
<glyph unicode="&#x46e;" horiz-adv-x="1041" d="M7 -74q0 138 89 214t256 78h74q103 1 163 51t60 131q0 218 -276 218h-137v238h157q102 2 157.5 48.5t55.5 133.5q0 75 -55 120t-173 45h-258v238h255q254 0 386 -98t132 -278q0 -234 -226 -326q131 -42 200.5 -126.5t69.5 -208.5q0 -196 -134.5 -310.5t-371.5 -114.5h-56 q-108 -2 -108 -93q0 -97 144 -154l-81 -176q-153 35 -237 130t-86 240zM96 1900v9h245l145 -142l145 142h244v-11l-299 -278h-181z" />
<glyph unicode="&#x46f;" horiz-adv-x="1020" d="M28 -74q0 124 83 192.5t243 68.5h53q96 0 157 33.5t61 90.5q0 132 -238 132h-151v178h155q189 0 189 128q0 113 -209 113h-251v209h268q235 -2 356.5 -78.5t121.5 -216.5q0 -167 -174 -241q219 -66 219 -234q0 -148 -122.5 -234t-329.5 -88h-61q-123 -2 -123 -93 q0 -98 128 -154l-80 -160q-135 44 -214 139.5t-81 214.5zM76 1516v10h245l145 -142l146 142h243v-11l-299 -278h-180z" />
<glyph unicode="&#x470;" horiz-adv-x="1473" d="M51 980v461h297v-458q0 -155 64 -243t179 -110v811h297v-813q117 21 174 108.5t57 246.5v458h299v-467q-3 -264 -157 -422q-138 -140 -373 -166v-386h-297v385q-248 20 -393.5 176.5t-146.5 418.5z" />
<glyph unicode="&#x471;" horiz-adv-x="1508" d="M67 571v500h287v-489q0 -298 247 -356v845h286v-847q269 56 269 365q-3 211 -107 482h266q127 -216 127 -482q0 -263 -144 -418t-411 -184v-460h-286v461q-258 32 -394.5 179t-139.5 404z" />
<glyph unicode="&#x472;" horiz-adv-x="1394" d="M89 680v71q0 213 77 375t217 248.5t320 86.5t320 -86.5t217 -248.5t77 -374v-64q0 -213 -75.5 -373.5t-215.5 -247.5t-321 -87q-179 0 -319.5 86t-218 246t-78.5 368zM391 634q11 -200 91.5 -305t222.5 -105q140 0 220 105t90 305h-624zM392 814h623q-11 197 -92 299.5 t-220 102.5q-141 0 -220.5 -102.5t-90.5 -299.5z" />
<glyph unicode="&#x473;" horiz-adv-x="1144" d="M63 545q0 161 62 285.5t178 192.5t267 68q232 0 370 -149t138 -406v-11q0 -161 -62 -285.5t-176 -192t-268 -67.5q-222 0 -359.5 137.5t-148.5 371.5zM354 623h433q-14 116 -70 176t-147 60q-90 0 -146.5 -62t-69.5 -174zM355 442q13 -110 68.5 -170.5t148.5 -60.5 q90 0 144.5 59t70.5 172h-432z" />
<glyph unicode="&#x474;" horiz-adv-x="1302" d="M11 1441h315l301 -1050l18 -90l19 86l205 724q57 183 145 265.5t223 82.5l38 -1l-2 -249h-27q-85 0 -119 -117l-327 -1092h-308z" />
<glyph unicode="&#x475;" horiz-adv-x="1034" d="M17 1071h299l161 -662l20 -105l19 105l92 351q47 160 129.5 245.5t209.5 85.5q65 0 102 -18l-23 -227l-50 4q-37 0 -67 -29.5t-43 -73.5l-231 -747h-274z" />
<glyph unicode="&#x476;" horiz-adv-x="1302" d="M11 1441h315l301 -1050l18 -90l19 86l205 724q57 183 145 265.5t223 82.5l38 -1l-2 -249h-27q-85 0 -119 -117l-327 -1092h-308zM75 1793h284l242 -264h-237zM463 1793h278l196 -264h-231z" />
<glyph unicode="&#x477;" horiz-adv-x="1034" d="M-22 1491h284l242 -264h-237zM17 1071h299l161 -662l20 -105l19 105l92 351q47 160 129.5 245.5t209.5 85.5q65 0 102 -18l-23 -227l-50 4q-37 0 -67 -29.5t-43 -73.5l-231 -747h-274zM366 1491h278l196 -264h-231z" />
<glyph unicode="&#x478;" horiz-adv-x="2417" d="M85 680v71q0 213 77 375t217 248.5t320 86.5t320 -86.5t217 -248.5t77 -374v-64q0 -213 -75.5 -373.5t-215.5 -247.5t-321 -87q-179 0 -319.5 86t-218 246t-78.5 368zM386 688q0 -221 81 -342.5t234 -121.5q149 0 229.5 117t81.5 342v70q0 227 -81.5 345t-231.5 118 t-231 -116.5t-82 -341.5v-70zM1403 1071h308l199 -666l198 666h307l-431 -1237l-24 -57q-96 -210 -316 -210q-63 0 -127 19v217l43 -1q82 0 122 25t63 82l33 88z" />
<glyph unicode="&#x479;" horiz-adv-x="2164" d="M65 533v12q0 160 61.5 284.5t177 193t267.5 68.5q217 0 354 -132.5t153 -360.5l2 -73q0 -247 -137.5 -396t-369 -149t-370 148.5t-138.5 404.5zM351 525q0 -153 57.5 -233.5t164.5 -80.5q104 0 162.5 79.5t58.5 254.5q0 150 -58.5 232t-164.5 82q-105 0 -162.5 -81.5 t-57.5 -252.5zM1149 1071h308l199 -666l198 666h307l-431 -1237l-24 -57q-96 -210 -316 -210q-63 0 -127 19v217l43 -1q82 0 122 25t63 82l33 88z" />
<glyph unicode="&#x47a;" horiz-adv-x="1394" d="M89 693v58q0 290 137.5 478t373.5 224v106h193v-104q240 -32 382 -220t142 -490v-57q0 -193 -63.5 -345t-181.5 -243.5t-276 -113.5v-120h-194v122q-236 35 -374.5 223t-138.5 482zM390 688q0 -184 54.5 -297.5t157.5 -149.5v92h194v-96q107 33 164 147.5t57 303.5v65 q0 190 -58 303.5t-166 146.5v-101h-193v97q-210 -75 -210 -455v-56z" />
<glyph unicode="&#x47b;" horiz-adv-x="1144" d="M65 531v14q0 221 114.5 367.5t312.5 173.5v105h165v-106q194 -27 308.5 -172t114.5 -373v-15q0 -224 -115.5 -369.5t-313.5 -170.5v-107h-164v108q-196 27 -309 172t-113 373zM351 525q0 -240 136 -298v109h164v-111q143 56 143 307v13q0 115 -35 192t-102 105v-96h-165 v98q-141 -55 -141 -319z" />
<glyph unicode="&#x47c;" horiz-adv-x="1918" d="M118 469v482q0 227 133 358.5t358 131.5v-240q-88 0 -140.5 -60t-52.5 -190v-484q0 -129 52.5 -189t140.5 -60q91 0 144 58t53 184v347h282v-347q0 -126 53 -184t144 -58q87 0 140 60t53 189v484q0 130 -53 190t-140 60v240q225 0 358 -131.5t133 -362.5v-480 q0 -224 -132 -356t-359 -132q-219 0 -339 150q-119 -150 -337 -150q-227 0 -359 132t-132 358zM660 1559v34q0 218 230 218q56 0 109.5 -18.5t113.5 -41.5t120.5 -40.5t133.5 -18.5h28v-133h-20q-81 0 -149.5 17t-168 55t-121 42.5t-43.5 4.5q-101 0 -101 -104v-15h-132z M821 1323q64 81 67 140v103h167v-102q0 -48 -47.5 -107.5t-105.5 -90.5z" />
<glyph unicode="&#x47d;" horiz-adv-x="1638" d="M107 428v202q0 212 122.5 335t331.5 123v-231q-76 0 -121.5 -55t-45.5 -172v-192q0 -119 38 -173.5t101 -54.5q147 0 147 237v153h273v-158q0 -121 40.5 -176.5t107.5 -55.5q62 0 100 54.5t38 173.5v192q0 117 -46 172t-121 55v231q208 0 331 -122t124 -334v-194 q0 -213 -115.5 -336t-310.5 -123q-185 0 -284 147q-101 -147 -284 -147q-195 0 -309 121t-117 328zM537 1225v36q0 111 61 163t169 52q82 0 222.5 -59t256.5 -60h28v-132h-24q-87 0 -162 20t-225 79q-50 19 -92 19q-103 0 -103 -103v-15h-131zM706 994q64 81 67 141v103h167 v-102q0 -49 -47.5 -108.5t-105.5 -89.5z" />
<glyph unicode="&#x47e;" horiz-adv-x="1919" d="M118 463v978h298v-970q0 -253 193 -253q91 0 144 58t53 184v981h299v-972q0 -251 196 -251q90 0 142 58t52 184v981h298v-979q0 -222 -131.5 -352.5t-360.5 -130.5q-227 0 -346 161q-118 -161 -346 -161q-227 0 -359 130t-132 354zM520 1670v132h875l2 -132h-358v-126 h-180v126h-339z" />
<glyph unicode="&#x47f;" horiz-adv-x="1663" d="M99 432v639h287v-643q4 -218 146 -218q167 0 170 222v639h287v-646q5 -215 158 -215q146 0 150 217v644h287v-635q-2 -213 -118.5 -334.5t-316.5 -122.5h-2q-199 0 -304 143q-108 -143 -311 -143q-197 0 -313.5 121t-119.5 332zM436 1310v132h815l6 -132h-333v-126h-179 v126h-309z" />
<glyph unicode="&#x480;" horiz-adv-x="1259" d="M88 576v291q0 173 69 309.5t196.5 211t290.5 74.5q259 0 399 -128.5t140 -373.5h-297q0 136 -56.5 199t-185.5 63q-120 0 -189.5 -94t-69.5 -265v-291q0 -162 69 -257.5t189 -96.5h195v-575h-297v344q-208 34 -330.5 191.5t-122.5 397.5z" />
<glyph unicode="&#x481;" horiz-adv-x="1084" d="M85 528v20q0 246 133.5 394.5t360.5 148.5q199 0 319 -114.5t120 -304.5h-270q0 82 -46.5 134.5t-122.5 52.5q-99 0 -153 -77t-55 -231v-30q0 -311 213 -311h181v-571h-286v349q-182 30 -288 173.5t-106 366.5z" />
<glyph unicode="&#x482;" horiz-adv-x="1262" d="M106 563l70 127l290 -169l200 356l-287 169l72 129l289 -169l183 323h170l-226 -401l290 -170l-75 -125l-285 168l-202 -356l286 -171l-71 -126l-288 168l-179 -316h-174l223 394z" />
<glyph unicode="&#x483;" horiz-adv-x="0" d="M-900 1175l1 236h541l-1 107l175 -1v-218h-541v-125z" />
<glyph unicode="&#x484;" horiz-adv-x="0" d="M-895 1290v133q90 0 146.5 12.5t159 51.5t139 46.5t74.5 7.5q235 0 235 -217v-34h-134v16q0 103 -105 103q-43 0 -92 -19l-108 -41q-152 -57 -274 -59h-41z" />
<glyph unicode="&#x485;" horiz-adv-x="0" d="M-612 1485v142h187l-1 -160l59 -107l-81 -67z" />
<glyph unicode="&#x486;" horiz-adv-x="0" d="M-595 1360l58 107l-1 160h188v-142l-164 -192z" />
<glyph unicode="&#x488;" horiz-adv-x="0" d="M-1473 482q0 84 58 135t150 51q94 0 151.5 -51.5t57.5 -134.5h-111q0 49 -26.5 74.5t-72 25.5t-70.5 -27t-25 -73h-112zM-1309 -32q0 84 58 135t150 51q94 0 152 -51t58 -135h-112q0 49 -26 74.5t-72 25.5q-44 0 -69.5 -26t-25.5 -74h-113zM-1299 980q0 83 57.5 134.5 t151.5 51.5t151.5 -51.5t57.5 -134.5h-111q0 46 -25 73t-73 27q-46 0 -71 -26t-25 -74h-113zM-732 1254q0 83 57 134.5t151 51.5t151.5 -51.5t57.5 -134.5h-111q0 46 -25 73t-73 27q-45 0 -70.5 -26t-25.5 -74h-112zM-727 -313q0 83 57 134.5t151 51.5t151.5 -51.5 t57.5 -134.5h-111q0 46 -25 73t-73 27q-45 0 -70.5 -27t-25.5 -73h-112zM-156 -32q0 83 57 134.5t149 51.5q95 0 152 -51.5t57 -134.5h-111q0 49 -26 74.5t-72 25.5q-44 0 -69.5 -27t-25.5 -73h-111zM-147 980q0 83 57.5 134.5t149.5 51.5q94 0 152 -51t58 -135h-112 q0 49 -26 74.5t-72 25.5q-43 0 -68.5 -26t-25.5 -74h-113zM38 482q0 84 57.5 135t150.5 51q94 0 151 -51.5t57 -134.5h-110q0 49 -26.5 74.5t-72 25.5t-71 -27t-25.5 -73h-111z" />
<glyph unicode="&#x489;" horiz-adv-x="0" d="M-1410 540v97l343 -71v-137l-13 -12zM-1217 -79l291 198l96 -98l-2 -17l-316 -152zM-1132 1176l65 68l196 -296l-97 -97l-17 2zM-598 -409l69 350h136l11 -14l-121 -336h-95zM-598 1129l121 334h95l-69 -348h-135zM-152 992l2 16l316 151l68 -67l-290 -198zM-112 61 l96 98l16 -2l148 -321l-66 -71zM84 487v138l13 12l330 -123v-97z" />
<glyph unicode="&#x48a;" horiz-adv-x="1419" d="M119 0v1441h297v-959l577 959h298v-1441h-298v957l-577 -957h-297zM365 1821h203q0 -63 37 -97t102 -34t101.5 34t36.5 97h205q0 -132 -94.5 -213t-248 -81t-248 80t-94.5 214zM1167 -326l35 64q67 121 69 241v222h241l-1 -198q-1 -110 -55.5 -222t-139.5 -185z" />
<glyph unicode="&#x48b;" d="M110 0v1071h287v-660l358 660h286v-1071h-286v661l-358 -661h-287zM239 1506h203q0 -63 37 -97t102 -34t101.5 34t36.5 97h205q0 -132 -94.5 -213t-248 -81t-248 80t-94.5 214zM919 -326l35 64q67 121 69 241v222h241l-1 -198q-1 -110 -55.5 -222t-139.5 -185z" />
<glyph unicode="&#x48c;" horiz-adv-x="1268" d="M-43 1078v181h170v182h299v-182h223v-181h-223v-156h231q255 0 404 -123.5t149 -332.5q0 -210 -148 -337t-394 -129h-541v1078h-170zM426 239h236q114 0 182 62t68 167q0 98 -65 155t-178 59h-243v-443z" />
<glyph unicode="&#x48d;" horiz-adv-x="1130" d="M-27 1260v181h156v158h287v-158h253v-181h-253v-478h209q210 -2 332.5 -108t122.5 -281t-121.5 -282.5t-328.5 -110.5h-501v1260h-156zM416 229h203q86 0 131 43.5t45 119.5q0 71 -43 114.5t-126 45.5h-210v-323z" />
<glyph unicode="&#x48e;" horiz-adv-x="1275" d="M129 0v1441h562q162 0 285.5 -59t190 -168.5t66.5 -249.5q0 -204 -137 -326l117 -131l-101 -90l-131 146q-122 -55 -290 -55h-265v-508h-297zM426 748h265q65 0 111 16l-122 138l101 90l126 -142q26 46 26 112q0 106 -62.5 171.5t-172.5 67.5h-272v-453z" />
<glyph unicode="&#x48f;" horiz-adv-x="1142" d="M110 -412v1483h265l10 -105q104 125 271 125q198 0 308 -146.5t110 -403.5v-15q0 -255 -118 -404l100 -119l-104 -87l-97 116q-86 -52 -197 -52q-162 0 -262 113v-505h-286zM396 317q52 -106 187 -106q59 0 100 28l-111 133l103 88l88 -107q25 73 25 193q0 150 -53 231 t-154 81q-135 0 -185 -103v-438z" />
<glyph unicode="&#x490;" horiz-adv-x="1125" d="M126 0v1441h670v370h286v-600h-12v-10h-646v-1201h-298z" />
<glyph unicode="&#x491;" horiz-adv-x="935" d="M107 0v1071h483v312h286v-543h-483v-840h-286z" />
<glyph unicode="&#x492;" horiz-adv-x="1129" d="M-27 655v182h158v604h943v-240h-646v-364h237v-182h-237v-655h-297v655h-158z" />
<glyph unicode="&#x493;" horiz-adv-x="849" d="M-57 448v182h167v441h730v-231h-444v-210h239v-182h-239v-448h-286v448h-167z" />
<glyph unicode="&#x494;" horiz-adv-x="1140" d="M131 0v1441h943v-240h-646v-373h162q288 0 445 -152t157 -429q0 -125 -35 -236.5t-108 -190.5q-142 -157 -395 -157l-1 219q125 0 189 88t64 262q2 362 -315 362h-163v-594h-297z" />
<glyph unicode="&#x495;" horiz-adv-x="1072" d="M107 0v1071h730v-231h-444v-182h47q267 0 415 -127t148 -355q2 -145 -100 -274.5t-268 -184.5l-119 191q96 43 148 106.5t53 161.5q0 125 -73.5 187t-198.5 62h-52v-425h-286z" />
<glyph unicode="&#x496;" horiz-adv-x="2022" d="M17 0l449 773l-427 668h369l321 -581h147v581h297v-581h145l313 581h368l-420 -667l443 -774h-372l-306 587h-171v-587h-297v587h-175l-314 -587h-370zM1865 203h286v-556h-286v556z" />
<glyph unicode="&#x497;" horiz-adv-x="1731" d="M39 0l337 560l-333 511h354l223 -400h105v400h286v-400h107l223 400h355l-332 -504l341 -567h-352l-213 397h-129v-397h-286v397h-128l-213 -397h-345zM1533 203h286v-556h-286v556z" />
<glyph unicode="&#x498;" horiz-adv-x="1250" d="M66 400h299q0 -77 67.5 -129t172.5 -52q119 0 187.5 53.5t68.5 135.5q0 113 -61 162t-179 49h-177v232h183q213 3 213 193q0 83 -64.5 130t-170.5 47q-95 0 -158 -47t-63 -123h-297q0 117 66 210.5t187 146t265 52.5q249 0 391 -107t142 -303q0 -96 -58 -178t-165 -131 q119 -42 182 -126.5t63 -210.5q0 -194 -152 -308.5t-403 -114.5q-158 0 -283.5 54t-190.5 147.5t-65 217.5zM476 81h286v-556h-286v556z" />
<glyph unicode="&#x499;" horiz-adv-x="1041" d="M68 317h286q0 -55 48.5 -88.5t127.5 -33.5q76 0 118.5 35.5t42.5 93.5q0 70 -40.5 100t-121.5 30h-156v187h166q133 3 133 114q0 57 -37 88t-105 31q-71 0 -115 -29t-44 -83h-286q0 146 121 237t309 91q207 0 325 -81t118 -231q0 -71 -43 -131t-121 -96q183 -64 183 -248 q0 -148 -126 -235.5t-336 -87.5q-195 0 -321 91t-126 246zM384 82h286v-556h-286v556z" />
<glyph unicode="&#x49a;" horiz-adv-x="1309" d="M131 0v1441h297v-577h135l353 577h362l-444 -682l491 -759h-355l-371 589h-171v-589h-297zM1156 203h286v-556h-286v556z" />
<glyph unicode="&#x49b;" horiz-adv-x="1142" d="M129 0v1071h286v-403h102l233 403h362l-351 -510l383 -561h-381l-233 395h-115v-395h-286zM973 203h286v-556h-286v556z" />
<glyph unicode="&#x49c;" horiz-adv-x="1341" d="M127 0v1441h299v-583h80v256h165v-256h37l252 583h370l-377 -659l416 -782h-380l-264 585h-54v-226h-165v226h-80v-585h-299z" />
<glyph unicode="&#x49d;" horiz-adv-x="1220" d="M129 0v1071h286v-403h78v188h151v-188h44l154 403h362l-290 -509l307 -562h-367l-164 395h-46v-168h-151v168h-78v-395h-286z" />
<glyph unicode="&#x49e;" horiz-adv-x="1329" d="M-51 1087v181h201v173h297v-173h194v-181h-194v-223h136l353 577h362l-445 -682l491 -759h-354l-371 589h-172v-589h-297v1087h-201z" />
<glyph unicode="&#x49f;" horiz-adv-x="1103" d="M-87 1196v181h219v144h286v-144h187v-181h-187v-526h80l244 401h330l-335 -490l374 -581h-330l-273 444h-90v-444h-286v1196h-219z" />
<glyph unicode="&#x4a0;" horiz-adv-x="1674" d="M37 1210v231h767v-577h136l352 577h362l-444 -682l491 -759h-356l-371 589h-170v-589h-298v1210h-469z" />
<glyph unicode="&#x4a1;" horiz-adv-x="1450" d="M57 839v232h679v-403h101l234 403h362l-351 -510l382 -561h-381l-234 395h-113v-395h-287v839h-392z" />
<glyph unicode="&#x4a2;" horiz-adv-x="1432" d="M129 0v1441h297v-584h579v584h297v-1441h-297v618h-579v-618h-297zM1233 203h286v-556h-286v556z" />
<glyph unicode="&#x4a3;" d="M110 0v1071h286v-429h355v429h288v-1071h-288v412h-355v-412h-286zM971 203h286v-556h-286v556z" />
<glyph unicode="&#x4a4;" horiz-adv-x="1996" d="M129 0v1441h297v-584h579v584h914v-231h-617v-1210h-297v618h-579v-618h-297z" />
<glyph unicode="&#x4a5;" horiz-adv-x="1431" d="M107 0v1071h286v-429h355v429h623v-231h-335v-840h-288v412h-355v-412h-286z" />
<glyph unicode="&#x4a6;" horiz-adv-x="2118" d="M131 0v1441h1172v-615h141q288 0 445 -152t157 -429q0 -125 -35 -236.5t-107 -190.5q-143 -157 -395 -157l-1 219q125 0 188.5 88t63.5 262q2 362 -315 362h-142v-592h-298v1201h-577v-1201h-297z" />
<glyph unicode="&#x4a7;" horiz-adv-x="1755" d="M107 0v1071h932v-405h84q274 0 429 -126t155 -357q2 -145 -99 -273.5t-270 -184.5l-118 191q96 42 148.5 105.5t52.5 161.5q0 119 -75 183.5t-210 66.5h-97v-433h-288v840h-358v-840h-286z" />
<glyph unicode="&#x4a8;" horiz-adv-x="1628" d="M93 652v210q0 169 65.5 307t184 215.5t267.5 77.5v-250q-92 0 -146.5 -96.5t-55.5 -247.5v-216q0 -192 104 -308t274 -116l59 3q-202 199 -202 499v188q0 154 54.5 280t151 194.5t218.5 68.5q133 0 237.5 -74t162.5 -210.5t58 -307.5v-166q0 -274 -165 -471 q81 -16 174 -16v-229q-219 0 -402 67q-155 -75 -346 -75q-199 0 -357 86t-247 241.5t-89 345.5zM924 724q0 -114 43.5 -209.5t127.5 -164.5q131 133 131 361v192q0 164 -38 236.5t-121 72.5q-138 0 -143 -268v-220z" />
<glyph unicode="&#x4a9;" horiz-adv-x="1308" d="M84 532v89q0 133 55 242.5t151.5 168.5t217.5 59v-239q-58 -8 -90.5 -69t-32.5 -160v-99q0 -133 69.5 -217t182.5 -88q-95 127 -95 308v152q0 178 94.5 294.5t243.5 116.5q156 0 254.5 -129t98.5 -334v-140q0 -198 -134 -336q71 -13 154 -13v-164q-197 0 -344 53 q-122 -48 -263 -48q-247 0 -404.5 154.5t-157.5 398.5zM753 512q0 -136 90 -232q103 80 103 228v143q0 91 -27.5 146t-68.5 55t-69 -49.5t-28 -135.5v-155z" />
<glyph unicode="&#x4aa;" horiz-adv-x="1326" d="M85 679v88q0 208 73.5 366.5t209.5 243t316 84.5q250 0 402 -133.5t176 -375.5h-297q-11 140 -77.5 203t-203.5 63q-148 0 -222 -106.5t-76 -330.5v-109q0 -233 71 -341t223 -108q138 0 205.5 62.5t77.5 194.5h297q-17 -232 -171.5 -366t-408.5 -134q-277 0 -436 186.5 t-159 512.5zM535 89h286v-556h-286v556z" />
<glyph unicode="&#x4ab;" horiz-adv-x="1057" d="M65 530v18q0 248 132 395.5t361 147.5q201 0 322.5 -114.5t123.5 -304.5h-268q-2 83 -51.5 135t-131.5 52q-100 0 -151 -72.5t-51 -236.5v-29q0 -166 50.5 -238t153.5 -72q80 0 129.5 43.5t51.5 115.5h268q-1 -109 -59.5 -199.5t-160 -140.5t-224.5 -50q-229 0 -362 146 t-133 404zM406 89h286v-556h-286v556z" />
<glyph unicode="&#x4ac;" horiz-adv-x="1254" d="M40 1201v240h1174v-240h-442v-1201h-297v1201h-435zM674 203h286v-556h-286v556z" />
<glyph unicode="&#x4ad;" horiz-adv-x="1032" d="M31 842v229h968v-229h-344v-842h-287v842h-337zM588 203h286v-556h-286v556z" />
<glyph unicode="&#x4ae;" horiz-adv-x="1253" d="M2 1441h326l298 -649l300 649h324l-473 -918v-523h-302v523z" />
<glyph unicode="&#x4af;" horiz-adv-x="1034" d="M17 1071h299l206 -733l199 733h299l-360 -1057v-427h-286v436z" />
<glyph unicode="&#x4b0;" horiz-adv-x="1253" d="M2 1441h326l298 -649l300 649h324l-387 -751h117v-181h-203v-509h-302v509h-187v181h101z" />
<glyph unicode="&#x4b1;" horiz-adv-x="1034" d="M17 1071h299l206 -733l199 733h299l-299 -879h150v-181h-211v-424h-286v424h-195v181h137z" />
<glyph unicode="&#x4b2;" horiz-adv-x="1287" d="M22 0l430 727l-419 714h341l270 -497l271 497h341l-419 -714l430 -727h-345l-278 505l-277 -505h-345zM1049 203h286v-556h-286v556z" />
<glyph unicode="&#x4b3;" horiz-adv-x="1031" d="M21 0l318 546l-304 525h307l176 -320l180 320h306l-305 -525l318 -546h-307l-191 337l-190 -337h-308zM792 203h286v-556h-286v556z" />
<glyph unicode="&#x4b4;" horiz-adv-x="1814" d="M34 1210v231h951v-231h-325v-971h578v1202h297v-1202h197l-19 -586h-277v347h-1074v1210h-328z" />
<glyph unicode="&#x4b5;" horiz-adv-x="1392" d="M45 840v231h699v-231h-196v-609h359v840h287v-842h160l-19 -547h-267v318h-806v840h-217z" />
<glyph unicode="&#x4b6;" horiz-adv-x="1409" d="M136 984v457h298v-451q1 -124 59.5 -178.5t204.5 -54.5q147 0 283 29v655h298v-1441h-298v546q-136 -28 -283 -28q-274 0 -416 119.5t-146 346.5zM1206 203h286v-556h-286v556z" />
<glyph unicode="&#x4b7;" horiz-adv-x="1122" d="M87 726v345h286v-345q1 -93 45.5 -133.5t158.5 -40.5q71 0 150 17v502h286v-1071h-286v337q-81 -15 -150 -15q-242 0 -365 103t-125 301zM945 203h286v-556h-286v556z" />
<glyph unicode="&#x4b8;" horiz-adv-x="1379" d="M109 990v451h297v-446q0 -113 46 -168.5t152 -66.5v287h164v-286q102 9 186 25v655h297v-1441h-297v546q-69 -14 -186 -24v-230h-164v228q-247 15 -370 135.5t-125 334.5z" />
<glyph unicode="&#x4b9;" horiz-adv-x="1135" d="M103 719v352h286v-353q4 -127 98 -154v256h164v-266q46 4 91 14v503h288v-1071h-288v337q-37 -8 -91 -13v-148h-164v152q-187 20 -283.5 119t-100.5 272z" />
<glyph unicode="&#x4ba;" horiz-adv-x="1417" d="M134 0v1441h298v-546q46 10 131.5 19.5t151.5 9.5q274 0 416 -120t146 -347v-457h-298v451q-1 124 -60 178.5t-204 54.5q-144 0 -283 -30v-654h-298z" />
<glyph unicode="&#x4bb;" horiz-adv-x="1134" d="M103 0v1521h286v-567q114 137 286 137q349 0 354 -405v-686h-287v678q0 92 -39.5 136t-131.5 44q-125 0 -182 -97v-761h-286z" />
<glyph unicode="&#x4bc;" horiz-adv-x="1534" d="M-27 1071h197q0 -164 120 -210q1 169 77.5 306.5t213.5 215.5t300 77q265 0 412.5 -178t147.5 -508v-152h-854v-21q0 -179 93.5 -271.5t268.5 -92.5q197 0 363 61l48 -245q-67 -33 -179.5 -54.5t-231.5 -21.5q-310 0 -484.5 167.5t-174.5 463.5v37q-151 26 -234 137 t-83 289zM587 861h557v31q0 149 -67 228t-196 79q-134 0 -213 -92.5t-81 -245.5z" />
<glyph unicode="&#x4bd;" horiz-adv-x="1211" d="M-67 853h179q0 -155 116 -201q30 201 162 320t329 119q221 0 346 -139t125 -393v-116h-681q14 -105 83 -168.5t176 -63.5q166 0 259 120l140 -158q-64 -91 -173.5 -142t-243.5 -51q-228 0 -372.5 134t-157.5 346q-141 30 -214 133t-73 260zM512 638h397v22 q-2 95 -51.5 147t-140.5 52q-84 0 -137 -57.5t-68 -163.5z" />
<glyph unicode="&#x4be;" horiz-adv-x="1534" d="M-27 1071h197q0 -164 120 -210q1 169 77.5 306.5t213.5 215.5t300 77q265 0 412.5 -178t147.5 -508v-152h-854v-21q0 -179 93.5 -271.5t268.5 -92.5q197 0 363 61l48 -245q-67 -33 -179.5 -54.5t-231.5 -21.5q-310 0 -484.5 167.5t-174.5 463.5v37q-151 26 -234 137 t-83 289zM587 861h557v31q0 149 -67 228t-196 79q-134 0 -213 -92.5t-81 -245.5zM790 91h286v-556h-286v556z" />
<glyph unicode="&#x4bf;" horiz-adv-x="1211" d="M-67 853h179q0 -155 116 -201q30 201 162 320t329 119q221 0 346 -139t125 -393v-116h-681q14 -105 83 -168.5t176 -63.5q166 0 259 120l140 -158q-64 -91 -173.5 -142t-243.5 -51q-228 0 -372.5 134t-157.5 346q-141 30 -214 133t-73 260zM512 638h397v22 q-2 95 -51.5 147t-140.5 52q-84 0 -137 -57.5t-68 -163.5zM567 99h286v-556h-286v556z" />
<glyph unicode="&#x4c0;" horiz-adv-x="591" d="M148 0v1441h297v-1441h-297z" />
<glyph unicode="&#x4c1;" horiz-adv-x="2022" d="M17 0l449 773l-427 668h369l321 -581h147v581h297v-581h145l313 581h368l-420 -667l443 -774h-372l-306 587h-171v-587h-297v587h-175l-314 -587h-370zM672 1821h203q0 -63 37 -97t102 -34t101.5 34t36.5 97h205q0 -132 -94.5 -213t-248 -81t-248 80t-94.5 214z" />
<glyph unicode="&#x4c2;" horiz-adv-x="1731" d="M39 0l337 560l-333 511h354l223 -400h105v400h286v-400h107l223 400h355l-332 -504l341 -567h-352l-213 397h-129v-397h-286v397h-128l-213 -397h-345zM535 1506h203q0 -63 37 -97t102 -34t101.5 34t36.5 97h205q0 -132 -94.5 -213t-248 -81t-248 80t-94.5 214z" />
<glyph unicode="&#x4c3;" horiz-adv-x="1316" d="M127 0v1441h299v-579h98l354 579h368l-431 -625q224 -34 345 -182t121 -391q0 -179 -69 -315.5t-190 -205t-287 -68.5l-1 228q121 0 185 85.5t64 258.5q2 358 -308 358h-249v-584h-299z" />
<glyph unicode="&#x4c4;" horiz-adv-x="1157" d="M129 0v1071h286v-403h86l249 403h362l-339 -476q163 -50 246.5 -162t83.5 -279q2 -142 -99 -269.5t-269 -183.5l-119 191q97 43 148.5 104.5t52.5 157.5q0 241 -301 241h-101v-395h-286z" />
<glyph unicode="&#x4c5;" horiz-adv-x="1431" d="M40 0v239l49 5q112 14 160 128.5t61 407.5l25 661h966v-1441h-298v1201h-384l-24 -509q-15 -257 -65.5 -405t-147.5 -217t-265 -70h-77zM1173 -326l35 64q67 121 69 241v222h241l-1 -198q-1 -110 -55.5 -222t-139.5 -185z" />
<glyph unicode="&#x4c6;" horiz-adv-x="1152" d="M22 233l35 3q78 6 113.5 91t44.5 290l20 454h806v-1071h-286v840h-252l-18 -331q-17 -264 -104 -385t-259 -124h-97zM919 -326l35 64q67 121 69 241v222h241l-1 -198q-1 -110 -55.5 -222t-139.5 -185z" />
<glyph unicode="&#x4c7;" horiz-adv-x="1433" d="M131 0v1441h297v-612h577v612h298v-1465q0 -198 -102 -303.5t-282 -105.5q-78 0 -146 17l14 236q46 -12 99 -12q119 0 119 171v610h-577v-589h-297z" />
<glyph unicode="&#x4c8;" horiz-adv-x="1144" d="M107 0v1071h286v-429h355v429h288v-1107q-1 -190 -99.5 -293.5t-277.5 -103.5q-78 0 -142 17l15 227q42 -12 98 -12q118 0 118 173v440h-355v-412h-286z" />
<glyph unicode="&#x4c9;" horiz-adv-x="1432" d="M129 0v1441h297v-584h579v584h297v-1441h-297v618h-579v-618h-297zM1178 -326l35 64q67 121 69 241v222h241l-1 -198q-1 -110 -55.5 -222t-139.5 -185z" />
<glyph unicode="&#x4ca;" d="M110 0v1071h286v-429h355v429h288v-1071h-288v412h-355v-412h-286zM916 -326l35 64q67 121 69 241v222h241l-1 -198q-1 -110 -55.5 -222t-139.5 -185z" />
<glyph unicode="&#x4cb;" horiz-adv-x="1409" d="M136 984v457h298v-451q1 -124 59.5 -178.5t204.5 -54.5q147 0 283 29v655h298v-1441h-298v546q-136 -28 -283 -28q-274 0 -416 119.5t-146 346.5zM760 203h286v-556h-286v556z" />
<glyph unicode="&#x4cc;" horiz-adv-x="1122" d="M87 726v345h286v-345q1 -93 45.5 -133.5t158.5 -40.5q71 0 150 17v502h286v-1071h-286v337q-81 -15 -150 -15q-242 0 -365 103t-125 301zM500 203h286v-556h-286v556z" />
<glyph unicode="&#x4cd;" horiz-adv-x="1776" d="M129 0v1441h388l370 -1045l368 1045h390v-1441h-298v394l30 680l-389 -1074h-204l-388 1073l30 -679v-394h-297zM1516 -326l35 64q67 121 69 241v222h241l-1 -198q-1 -110 -55.5 -222t-139.5 -185z" />
<glyph unicode="&#x4ce;" horiz-adv-x="1539" d="M129 0v1071h355l278 -733l280 733h359v-1071h-286v657l-257 -657h-192l-251 646v-646h-286zM1278 -326l35 64q67 121 69 241v222h241l-1 -198q-1 -110 -55.5 -222t-139.5 -185z" />
<glyph unicode="&#x4cf;" horiz-adv-x="591" d="M148 0v1441h297v-1441h-297z" />
<glyph unicode="&#x4d0;" horiz-adv-x="1364" d="M7 0l537 1441h275l539 -1441h-316l-100 297h-520l-99 -297h-316zM344 1818h203q0 -63 37 -97t102 -34t101.5 34t36.5 97h205q0 -132 -94.5 -213t-248 -81t-248 80t-94.5 214zM502 538h360l-181 539z" />
<glyph unicode="&#x4d1;" horiz-adv-x="1087" d="M67 301q0 170 126.5 261t364.5 92h132v62q0 74 -38 118.5t-120 44.5q-73 0 -114 -34.5t-41 -95.5h-286q0 93 57.5 172.5t162.5 124.5t235 45q198 0 314.5 -99.5t116.5 -279.5v-464q1 -153 43 -231v-17h-289q-20 39 -29 96q-104 -116 -270 -116q-158 0 -261.5 91 t-103.5 230zM204 1511h203q0 -63 37 -97t102 -34t101.5 34t36.5 97h205q0 -132 -94.5 -213t-248 -81t-248 80t-94.5 214zM353 322q0 -54 38 -88.5t103 -34.5q63 0 116.5 28t79.5 76v184h-107q-215 0 -229 -148z" />
<glyph unicode="&#x4d2;" horiz-adv-x="1364" d="M7 0l537 1441h275l539 -1441h-316l-100 297h-520l-99 -297h-316zM306 1658q0 54 38 90t99 36t98.5 -37t37.5 -88.5t-37.5 -88t-98.5 -36.5q-59 0 -98 35t-39 89zM502 538h360l-181 539zM788 1658q0 53 39 89.5t98 36.5q57 0 97 -36t40 -90q0 -51 -38 -88t-99.5 -37 t-99 37t-37.5 88z" />
<glyph unicode="&#x4d3;" horiz-adv-x="1087" d="M67 301q0 170 126.5 261t364.5 92h132v62q0 74 -38 118.5t-120 44.5q-73 0 -114 -34.5t-41 -95.5h-286q0 93 57.5 172.5t162.5 124.5t235 45q198 0 314.5 -99.5t116.5 -279.5v-464q1 -153 43 -231v-17h-289q-20 39 -29 96q-104 -116 -270 -116q-158 0 -261.5 91 t-103.5 230zM166 1351q0 54 38 90t99 36t98.5 -37t37.5 -88.5t-37.5 -88t-98.5 -36.5q-59 0 -98 35t-39 89zM353 322q0 -54 38 -88.5t103 -34.5q63 0 116.5 28t79.5 76v184h-107q-215 0 -229 -148zM648 1351q0 53 39 89.5t98 36.5q57 0 97 -36t40 -90q0 -51 -38 -88 t-99.5 -37t-99 37t-37.5 88z" />
<glyph unicode="&#x4d4;" horiz-adv-x="1905" d="M2 0l778 1441h1006v-233h-592l15 -352h497v-233h-487l16 -390h611v-233h-888l-14 330h-441l-165 -330h-336zM627 574h308l-24 564z" />
<glyph unicode="&#x4d5;" horiz-adv-x="1711" d="M65 316q0 155 123 240.5t363 86.5h167v56q0 75 -40 117.5t-117 42.5q-81 0 -128 -35t-47 -86l-286 18q0 148 129 241.5t335 93.5q209 0 324 -109q125 111 323 109q210 0 329.5 -130t119.5 -360v-155h-661q11 -115 79.5 -175.5t184.5 -60.5q76 0 141 16t151 60l77 -187 q-73 -55 -179.5 -87t-218.5 -32q-245 0 -383 146q-63 -69 -164.5 -107.5t-225.5 -38.5q-184 0 -290 88t-106 248zM351 312q0 -56 40.5 -89t124.5 -33q48 0 105.5 22.5t96.5 56.5v187h-163q-94 -1 -149 -42.5t-55 -101.5zM1001 638h378v27q0 93 -43 143.5t-125 50.5 q-89 0 -143 -57t-67 -164z" />
<glyph unicode="&#x4d6;" horiz-adv-x="1140" d="M129 0v1441h964v-240h-667v-344h570v-232h-570v-386h669v-239h-966zM287 1821h203q0 -63 37 -97t102 -34t101.5 34t36.5 97h205q0 -132 -94.5 -213t-248 -81t-248 80t-94.5 214z" />
<glyph unicode="&#x4d7;" horiz-adv-x="1095" d="M71 510v28q0 161 62.5 288t177 196t260.5 69q220 0 346 -138.5t126 -393.5v-116h-682q14 -105 84 -168.5t177 -63.5q165 0 258 120l141 -158q-65 -91 -174.5 -142t-243.5 -51q-236 0 -384 144.5t-148 385.5zM197 1511h203q0 -63 37 -97t102 -34t101.5 34t36.5 97h205 q0 -132 -94.5 -213t-248 -81t-248 80t-94.5 214zM364 638h398v22q-2 95 -51.5 147t-140.5 52q-85 0 -138 -57.5t-68 -163.5z" />
<glyph unicode="&#x4d8;" horiz-adv-x="1408" d="M74 664v154h941q-7 186 -109 284.5t-292 98.5q-202 0 -383 -63l-49 245q78 37 195 57.5t237 20.5q328 0 513.5 -180t185.5 -499v-138q0 -189 -80.5 -342t-223.5 -238t-315 -84q-294 0 -457 177.5t-163 506.5zM371 545q0 -150 83.5 -228t239.5 -78q132 0 216 89t102 248 h-641v-31z" />
<glyph unicode="&#x4d9;" horiz-adv-x="1073" d="M77 469v157h648q-16 111 -81 173t-167 62q-138 0 -238 -47l-60 -30l-78 185q72 58 179 90.5t227 32.5q225 0 366.5 -146t141.5 -389v-28q0 -158 -60 -284t-170.5 -195.5t-251.5 -68.5q-214 0 -335 128.5t-121 359.5zM358 405q0 -95 45.5 -144t129.5 -49q76 0 124.5 56.5 t64.5 162.5h-364v-26z" />
<glyph unicode="&#x4da;" horiz-adv-x="1408" d="M74 664v154h941q-7 186 -109 284.5t-292 98.5q-202 0 -383 -63l-49 245q78 37 195 57.5t237 20.5q328 0 513.5 -180t185.5 -499v-138q0 -189 -80.5 -342t-223.5 -238t-315 -84q-294 0 -457 177.5t-163 506.5zM269 1614q0 54 38 90t99 36t98.5 -37t37.5 -88.5t-37.5 -88 t-98.5 -36.5q-59 0 -98 35t-39 89zM371 545q0 -150 83.5 -228t239.5 -78q132 0 216 89t102 248h-641v-31zM751 1614q0 53 39 89.5t98 36.5q57 0 97 -36t40 -90q0 -51 -38 -88t-99.5 -37t-99 37t-37.5 88z" />
<glyph unicode="&#x4db;" horiz-adv-x="1073" d="M77 469v157h648q-16 111 -81 173t-167 62q-138 0 -238 -47l-60 -30l-78 185q72 58 179 90.5t227 32.5q225 0 366.5 -146t141.5 -389v-28q0 -158 -60 -284t-170.5 -195.5t-251.5 -68.5q-214 0 -335 128.5t-121 359.5zM161 1352q0 54 38 90t99 36t98.5 -37t37.5 -88.5 t-37.5 -88t-98.5 -36.5q-59 0 -98 35t-39 89zM358 405q0 -95 45.5 -144t129.5 -49q76 0 124.5 56.5t64.5 162.5h-364v-26zM643 1352q0 53 39 89.5t98 36.5q57 0 97 -36t40 -90q0 -51 -38 -88t-99.5 -37t-99 37t-37.5 88z" />
<glyph unicode="&#x4dc;" horiz-adv-x="2022" d="M17 0l449 773l-427 668h369l321 -581h147v581h297v-581h145l313 581h368l-420 -667l443 -774h-372l-306 587h-171v-587h-297v587h-175l-314 -587h-370zM635 1661q0 54 38 90t99 36t98.5 -37t37.5 -88.5t-37.5 -88t-98.5 -36.5q-59 0 -98 35t-39 89zM1117 1661 q0 53 39 89.5t98 36.5q57 0 97 -36t40 -90q0 -51 -38 -88t-99.5 -37t-99 37t-37.5 88z" />
<glyph unicode="&#x4dd;" horiz-adv-x="1731" d="M39 0l337 560l-333 511h354l223 -400h105v400h286v-400h107l223 400h355l-332 -504l341 -567h-352l-213 397h-129v-397h-286v397h-128l-213 -397h-345zM497 1346q0 54 38 90t99 36t98.5 -37t37.5 -88.5t-37.5 -88t-98.5 -36.5q-59 0 -98 35t-39 89zM979 1346 q0 53 39 89.5t98 36.5q57 0 97 -36t40 -90q0 -51 -38 -88t-99.5 -37t-99 37t-37.5 88z" />
<glyph unicode="&#x4de;" horiz-adv-x="1250" d="M66 400h299q0 -77 67.5 -129t172.5 -52q119 0 187.5 53.5t68.5 135.5q0 113 -61 162t-179 49h-177v232h183q213 3 213 193q0 83 -64.5 130t-170.5 47q-95 0 -158 -47t-63 -123h-297q0 117 66 210.5t187 146t265 52.5q249 0 391 -107t142 -303q0 -96 -58 -178t-165 -131 q119 -42 182 -126.5t63 -210.5q0 -194 -152 -308.5t-403 -114.5q-158 0 -283.5 54t-190.5 147.5t-65 217.5zM233 1666q0 54 38 90t99 36t98.5 -37t37.5 -88.5t-37.5 -88t-98.5 -36.5q-59 0 -98 35t-39 89zM715 1666q0 53 39 89.5t98 36.5q57 0 97 -36t40 -90q0 -51 -38 -88 t-99.5 -37t-99 37t-37.5 88z" />
<glyph unicode="&#x4df;" horiz-adv-x="1041" d="M68 317h286q0 -55 48.5 -88.5t127.5 -33.5q76 0 118.5 35.5t42.5 93.5q0 70 -40.5 100t-121.5 30h-156v187h166q133 3 133 114q0 57 -37 88t-105 31q-71 0 -115 -29t-44 -83h-286q0 146 121 237t309 91q207 0 325 -81t118 -231q0 -71 -43 -131t-121 -96q183 -64 183 -248 q0 -148 -126 -235.5t-336 -87.5q-195 0 -321 91t-126 246zM147 1351q0 54 38 90t99 36t98.5 -37t37.5 -88.5t-37.5 -88t-98.5 -36.5q-59 0 -98 35t-39 89zM629 1351q0 53 39 89.5t98 36.5q57 0 97 -36t40 -90q0 -51 -38 -88t-99.5 -37t-99 37t-37.5 88z" />
<glyph unicode="&#x4e0;" horiz-adv-x="1172" d="M79 400h297q0 -81 59 -131.5t148 -50.5q105 0 169.5 52.5t64.5 137.5q0 136 -66 201.5t-209 65.5h-132v186l334 340h-602v240h943l1 -198l-353 -383q182 -32 281.5 -148.5t99.5 -307.5q0 -193 -143.5 -309t-387.5 -116q-143 0 -259.5 51.5t-180.5 146t-64 223.5z" />
<glyph unicode="&#x4e1;" horiz-adv-x="1174" d="M81 29h287q0 -83 61 -135.5t153 -52.5q107 0 173.5 54.5t66.5 141.5q0 137 -67 203t-211 66h-135v182l333 352h-606v231h941l1 -189l-354 -394q184 -32 284 -147.5t100 -307.5q0 -193 -142.5 -308.5t-383.5 -115.5q-142 0 -258 51.5t-179.5 145.5t-63.5 223z" />
<glyph unicode="&#x4e2;" horiz-adv-x="1419" d="M119 0v1441h297v-959l577 959h298v-1441h-298v957l-577 -957h-297zM348 1585v165h722v-165h-722z" />
<glyph unicode="&#x4e3;" d="M110 0v1071h287v-660l358 660h286v-1071h-286v661l-358 -661h-287zM221 1270v165h722v-165h-722z" />
<glyph unicode="&#x4e4;" horiz-adv-x="1419" d="M119 0v1441h297v-959l577 959h298v-1441h-298v957l-577 -957h-297zM328 1661q0 54 38 90t99 36t98.5 -37t37.5 -88.5t-37.5 -88t-98.5 -36.5q-59 0 -98 35t-39 89zM810 1661q0 53 39 89.5t98 36.5q57 0 97 -36t40 -90q0 -51 -38 -88t-99.5 -37t-99 37t-37.5 88z" />
<glyph unicode="&#x4e5;" d="M110 0v1071h287v-660l358 660h286v-1071h-286v661l-358 -661h-287zM201 1346q0 54 38 90t99 36t98.5 -37t37.5 -88.5t-37.5 -88t-98.5 -36.5q-59 0 -98 35t-39 89zM683 1346q0 53 39 89.5t98 36.5q57 0 97 -36t40 -90q0 -51 -38 -88t-99.5 -37t-99 37t-37.5 88z" />
<glyph unicode="&#x4e6;" horiz-adv-x="1399" d="M85 680v71q0 213 77 375t217 248.5t320 86.5t320 -86.5t217 -248.5t77 -374v-64q0 -213 -75.5 -373.5t-215.5 -247.5t-321 -87q-179 0 -319.5 86t-218 246t-78.5 368zM320 1658q0 54 38 90t99 36t98.5 -37t37.5 -88.5t-37.5 -88t-98.5 -36.5q-59 0 -98 35t-39 89z M386 688q0 -221 81 -342.5t234 -121.5q149 0 229.5 117t81.5 342v70q0 227 -81.5 345t-231.5 118t-231 -116.5t-82 -341.5v-70zM802 1658q0 53 39 89.5t98 36.5q57 0 97 -36t40 -90q0 -51 -38 -88t-99.5 -37t-99 37t-37.5 88z" />
<glyph unicode="&#x4e7;" horiz-adv-x="1146" d="M65 533v12q0 160 61.5 284.5t177 193t267.5 68.5q217 0 354 -132.5t153 -360.5l2 -73q0 -247 -137.5 -396t-369 -149t-370 148.5t-138.5 404.5zM191 1351q0 54 38 90t99 36t98.5 -37t37.5 -88.5t-37.5 -88t-98.5 -36.5q-59 0 -98 35t-39 89zM351 525q0 -153 57.5 -233.5 t164.5 -80.5q104 0 162.5 79.5t58.5 254.5q0 150 -58.5 232t-164.5 82q-105 0 -162.5 -81.5t-57.5 -252.5zM673 1351q0 53 39 89.5t98 36.5q57 0 97 -36t40 -90q0 -51 -38 -88t-99.5 -37t-99 37t-37.5 88z" />
<glyph unicode="&#x4e8;" horiz-adv-x="1394" d="M89 680v71q0 213 77 375t217 248.5t320 86.5t320 -86.5t217 -248.5t77 -374v-64q0 -213 -75.5 -373.5t-215.5 -247.5t-321 -87q-179 0 -319.5 86t-218 246t-78.5 368zM391 634q11 -200 91.5 -305t222.5 -105q140 0 220 105t90 305h-624zM392 814h623q-11 197 -92 299.5 t-220 102.5q-141 0 -220.5 -102.5t-90.5 -299.5z" />
<glyph unicode="&#x4e9;" horiz-adv-x="1144" d="M63 545q0 161 62 285.5t178 192.5t267 68q232 0 370 -149t138 -406v-11q0 -161 -62 -285.5t-176 -192t-268 -67.5q-222 0 -359.5 137.5t-148.5 371.5zM354 623h433q-14 116 -70 176t-147 60q-90 0 -146.5 -62t-69.5 -174zM355 442q13 -110 68.5 -170.5t148.5 -60.5 q90 0 144.5 59t70.5 172h-432z" />
<glyph unicode="&#x4ea;" horiz-adv-x="1394" d="M89 680v71q0 213 77 375t217 248.5t320 86.5t320 -86.5t217 -248.5t77 -374v-64q0 -213 -75.5 -373.5t-215.5 -247.5t-321 -87q-179 0 -319.5 86t-218 246t-78.5 368zM338 1659q0 54 38 90t99 36t98.5 -37t37.5 -88.5t-37.5 -88t-98.5 -36.5q-59 0 -98 35t-39 89z M391 634q11 -200 91.5 -305t222.5 -105q140 0 220 105t90 305h-624zM392 814h623q-11 197 -92 299.5t-220 102.5q-141 0 -220.5 -102.5t-90.5 -299.5zM820 1659q0 53 39 89.5t98 36.5q57 0 97 -36t40 -90q0 -51 -38 -88t-99.5 -37t-99 37t-37.5 88z" />
<glyph unicode="&#x4eb;" horiz-adv-x="1144" d="M63 545q0 161 62 285.5t178 192.5t267 68q232 0 370 -149t138 -406v-11q0 -161 -62 -285.5t-176 -192t-268 -67.5q-222 0 -359.5 137.5t-148.5 371.5zM182 1351q0 54 38 90t99 36t98.5 -37t37.5 -88.5t-37.5 -88t-98.5 -36.5q-59 0 -98 35t-39 89zM354 623h433 q-14 116 -70 176t-147 60q-90 0 -146.5 -62t-69.5 -174zM355 442q13 -110 68.5 -170.5t148.5 -60.5q90 0 144.5 59t70.5 172h-432zM664 1351q0 53 39 89.5t98 36.5q57 0 97 -36t40 -90q0 -51 -38 -88t-99.5 -37t-99 37t-37.5 88z" />
<glyph unicode="&#x4ec;" horiz-adv-x="1318" d="M61 951q22 237 173 373.5t405 136.5q180 0 316 -84.5t209.5 -242.5t73.5 -368v-94q0 -319 -159 -505.5t-436 -186.5q-256 0 -410 135t-171 364h297q13 -139 82.5 -200t201.5 -61q145 0 215.5 96.5t81.5 285.5h-456v241h455q-12 193 -87 286.5t-213 93.5 q-135 0 -202.5 -64t-78.5 -206h-297zM269 1667q0 54 38 90t99 36t98.5 -37t37.5 -88.5t-37.5 -88t-98.5 -36.5q-59 0 -98 35t-39 89zM751 1667q0 53 39 89.5t98 36.5q57 0 97 -36t40 -90q0 -51 -38 -88t-99.5 -37t-99 37t-37.5 88z" />
<glyph unicode="&#x4ed;" horiz-adv-x="1054" d="M62 398h270q0 -82 46 -135t124 -53q86 0 138.5 61t64.5 180h-287v176h287q-29 232 -205 232q-77 0 -122.5 -43t-45.5 -115h-270q0 109 58 199t158.5 140.5t221.5 50.5q227 0 361.5 -148t134.5 -403v-19q0 -159 -59.5 -282t-172 -191t-262.5 -68q-198 0 -319 114t-121 304 zM140 1351q0 54 38 90t99 36t98.5 -37t37.5 -88.5t-37.5 -88t-98.5 -36.5q-59 0 -98 35t-39 89zM622 1351q0 53 39 89.5t98 36.5q57 0 97 -36t40 -90q0 -51 -38 -88t-99.5 -37t-99 37t-37.5 88z" />
<glyph unicode="&#x4ee;" horiz-adv-x="1280" d="M31 1441h319l319 -681l263 681h320l-504 -1189l-40 -78q-112 -195 -343 -195l-104 4l-3 239q24 -4 78 -4q62 0 100 21.5t64 80.5l37 94zM302 1585v165h722v-165h-722z" />
<glyph unicode="&#x4ef;" horiz-adv-x="1017" d="M3 1071h308l199 -666l198 666h307l-431 -1237l-24 -57q-96 -210 -316 -210q-63 0 -127 19v217l43 -1q82 0 122 25t63 82l33 88zM156 1276v165h722v-165h-722z" />
<glyph unicode="&#x4f0;" horiz-adv-x="1280" d="M31 1441h319l319 -681l263 681h320l-504 -1189l-40 -78q-112 -195 -343 -195l-104 4l-3 239q24 -4 78 -4q62 0 100 21.5t64 80.5l37 94zM282 1661q0 54 38 90t99 36t98.5 -37t37.5 -88.5t-37.5 -88t-98.5 -36.5q-59 0 -98 35t-39 89zM764 1661q0 53 39 89.5t98 36.5 q57 0 97 -36t40 -90q0 -51 -38 -88t-99.5 -37t-99 37t-37.5 88z" />
<glyph unicode="&#x4f1;" horiz-adv-x="1017" d="M3 1071h308l199 -666l198 666h307l-431 -1237l-24 -57q-96 -210 -316 -210q-63 0 -127 19v217l43 -1q82 0 122 25t63 82l33 88zM136 1351q0 54 38 90t99 36t98.5 -37t37.5 -88.5t-37.5 -88t-98.5 -36.5q-59 0 -98 35t-39 89zM618 1351q0 53 39 89.5t98 36.5q57 0 97 -36 t40 -90q0 -51 -38 -88t-99.5 -37t-99 37t-37.5 88z" />
<glyph unicode="&#x4f2;" horiz-adv-x="1280" d="M31 1441h319l319 -681l263 681h320l-504 -1189l-40 -78q-112 -195 -343 -195l-104 4l-3 239q24 -4 78 -4q62 0 100 21.5t64 80.5l37 94zM359 1532l185 298h252l-227 -298h-210zM708 1532l223 298h256l-263 -298h-216z" />
<glyph unicode="&#x4f3;" horiz-adv-x="1017" d="M3 1071h308l199 -666l198 666h307l-431 -1237l-24 -57q-96 -210 -316 -210q-63 0 -127 19v217l43 -1q82 0 122 25t63 82l33 88zM212 1222l185 298h252l-227 -298h-210zM561 1222l223 298h256l-263 -298h-216z" />
<glyph unicode="&#x4f4;" horiz-adv-x="1409" d="M136 984v457h298v-451q1 -124 59.5 -178.5t204.5 -54.5q147 0 283 29v655h298v-1441h-298v546q-136 -28 -283 -28q-274 0 -416 119.5t-146 346.5zM365 1661q0 54 38 90t99 36t98.5 -37t37.5 -88.5t-37.5 -88t-98.5 -36.5q-59 0 -98 35t-39 89zM847 1661q0 53 39 89.5 t98 36.5q57 0 97 -36t40 -90q0 -51 -38 -88t-99.5 -37t-99 37t-37.5 88z" />
<glyph unicode="&#x4f5;" horiz-adv-x="1122" d="M87 726v345h286v-345q1 -93 45.5 -133.5t158.5 -40.5q71 0 150 17v502h286v-1071h-286v337q-81 -15 -150 -15q-242 0 -365 103t-125 301zM190 1346q0 54 38 90t99 36t98.5 -37t37.5 -88.5t-37.5 -88t-98.5 -36.5q-59 0 -98 35t-39 89zM672 1346q0 53 39 89.5t98 36.5 q57 0 97 -36t40 -90q0 -51 -38 -88t-99.5 -37t-99 37t-37.5 88z" />
<glyph unicode="&#x4f6;" horiz-adv-x="1129" d="M131 0v1441h943v-240h-646v-1201h-297zM355 203h286v-556h-286v556z" />
<glyph unicode="&#x4f7;" horiz-adv-x="849" d="M110 0v1071h730v-231h-444v-840h-286zM329 203h286v-556h-286v556z" />
<glyph unicode="&#x4f8;" horiz-adv-x="1767" d="M132 0v1441h299v-519h231q255 0 404 -123.5t149 -332.5q0 -210 -148 -337t-394 -129h-541zM431 239h236q114 0 182 62t68 167q0 98 -65 155t-178 59h-243v-443zM513 1661q0 54 38 90t99 36t98.5 -37t37.5 -88.5t-37.5 -88t-98.5 -36.5q-59 0 -98 35t-39 89zM995 1661 q0 53 39 89.5t98 36.5q57 0 97 -36t40 -90q0 -51 -38 -88t-99.5 -37t-99 37t-37.5 88zM1339 0v1441h297v-1441h-297z" />
<glyph unicode="&#x4f9;" horiz-adv-x="1678" d="M129 0v1071h287v-314h205q138 0 243 -46.5t161 -133t56 -201.5q0 -169 -125 -272.5t-341 -103.5h-486zM416 229h203q85 0 130.5 39.5t45.5 107.5q0 70 -44.5 111t-131.5 41h-203v-299zM466 1346q0 54 38 90t99 36t98.5 -37t37.5 -88.5t-37.5 -88t-98.5 -36.5 q-59 0 -98 35t-39 89zM948 1346q0 53 39 89.5t98 36.5q57 0 97 -36t40 -90q0 -51 -38 -88t-99.5 -37t-99 37t-37.5 88zM1251 0v1071h286v-1071h-286z" />
<glyph unicode="&#x4fa;" horiz-adv-x="1217" d="M37 660v181h692v-181h-692zM218 0v1441h943v-240h-646v-1201h-297zM260 -416l14 229q42 -12 97 -12q119 0 119 170v284h287v-295q-2 -188 -100.5 -290.5t-275.5 -102.5q-77 0 -141 17z" />
<glyph unicode="&#x4fb;" horiz-adv-x="854" d="M22 486v181h692v-181h-692zM190 0v1071h730v-231h-444v-840h-286zM192 -422l14 229q42 -12 97 -12q119 0 119 170v284h287v-295q-2 -188 -100.5 -290.5t-275.5 -102.5q-77 0 -141 17z" />
<glyph unicode="&#x4fc;" horiz-adv-x="1287" d="M22 0l430 727l-419 714h341l270 -497l271 497h341l-419 -714l430 -727h-345l-278 505l-277 -505h-345zM886 -416l14 229q42 -12 97 -12q119 0 119 170v284h287v-295q-2 -188 -100.5 -290.5t-275.5 -102.5q-77 0 -141 17z" />
<glyph unicode="&#x4fd;" horiz-adv-x="1031" d="M21 0l318 546l-304 525h307l176 -320l180 320h306l-305 -525l318 -546h-307l-191 337l-190 -337h-308zM629 -416l14 229q42 -12 97 -12q119 0 119 170v284h287v-295q-2 -188 -100.5 -290.5t-275.5 -102.5q-77 0 -141 17z" />
<glyph unicode="&#x4fe;" horiz-adv-x="1287" d="M22 0l384 648h-104v182h90l-359 611h341l270 -497l271 497h341l-359 -611h97v-182h-111l384 -648h-345l-278 505l-277 -505h-345z" />
<glyph unicode="&#x4ff;" horiz-adv-x="1031" d="M21 0l267 459h-110v182h106l-249 430h307l176 -320l180 320h306l-251 -430h117v-182h-121l268 -459h-307l-191 337l-190 -337h-308z" />
<glyph unicode="&#x2000;" horiz-adv-x="958" />
<glyph unicode="&#x2001;" horiz-adv-x="1916" />
<glyph unicode="&#x2002;" horiz-adv-x="958" />
<glyph unicode="&#x2003;" horiz-adv-x="1916" />
<glyph unicode="&#x2004;" horiz-adv-x="638" />
<glyph unicode="&#x2005;" horiz-adv-x="479" />
<glyph unicode="&#x2006;" horiz-adv-x="319" />
<glyph unicode="&#x2007;" horiz-adv-x="319" />
<glyph unicode="&#x2008;" horiz-adv-x="239" />
<glyph unicode="&#x2009;" horiz-adv-x="383" />
<glyph unicode="&#x200a;" horiz-adv-x="106" />
<glyph unicode="&#x2010;" horiz-adv-x="786" d="M109 502v231h557v-231h-557z" />
<glyph unicode="&#x2011;" horiz-adv-x="786" d="M109 502v231h557v-231h-557z" />
<glyph unicode="&#x2012;" horiz-adv-x="786" d="M109 502v231h557v-231h-557z" />
<glyph unicode="&#x2013;" horiz-adv-x="1281" d="M146 590v234h1025v-234h-1025z" />
<glyph unicode="&#x2014;" horiz-adv-x="1547" d="M34 590v234h1366v-234h-1366z" />
<glyph unicode="&#x2018;" horiz-adv-x="474" d="M103 1038v148q0 93 52 198.5t128 169.5l135 -78q-85 -135 -88 -273v-165h-227z" />
<glyph unicode="&#x2019;" horiz-adv-x="465" d="M57 1077q86 134 89 276v168h227v-154q0 -89 -49.5 -193t-131.5 -175z" />
<glyph unicode="&#x201a;" horiz-adv-x="502" d="M65 -224q78 125 81 272v179h235l-1 -165q-1 -88 -50 -190t-130 -174z" />
<glyph unicode="&#x201c;" horiz-adv-x="822" d="M111 1038v148q0 93 52 198.5t128 169.5l135 -78q-85 -135 -88 -273v-165h-227zM450 1038v148q0 93 52 198.5t128 169.5l135 -78q-85 -135 -88 -273v-165h-227z" />
<glyph unicode="&#x201d;" horiz-adv-x="828" d="M71 1077q86 134 89 276v168h227v-154q0 -89 -49.5 -193t-131.5 -175zM414 1077q86 134 89 276v168h227v-154q0 -89 -49.5 -193t-131.5 -175z" />
<glyph unicode="&#x201e;" horiz-adv-x="816" d="M65 -244q78 133 81 291v213h235l-1 -197q-1 -96 -47.5 -204t-125.5 -181zM398 -244q85 147 88 292v212h236l-1 -201q-2 -95 -52 -202.5t-129 -178.5z" />
<glyph unicode="&#x2020;" horiz-adv-x="1090" d="M56 833v238h345v370h286v-370h350v-238h-350v-833h-286v833h-345z" />
<glyph unicode="&#x2021;" horiz-adv-x="1173" d="M97 0v231h343v609h-343v231h343v370h287v-370h349v-231h-349v-609h349v-231h-349v-412h-287v412h-343z" />
<glyph unicode="&#x2022;" horiz-adv-x="728" d="M134 724v34q0 103 65 165.5t168 62.5q107 0 171 -61.5t66 -161.5v-42q0 -102 -65 -164t-170 -62q-104 0 -169.5 61.5t-65.5 167.5z" />
<glyph unicode="&#x2026;" horiz-adv-x="1499" d="M132 141q0 68 46 110.5t115 42.5q70 0 116 -42.5t46 -110.5t-45.5 -110t-116.5 -42q-70 0 -115.5 42t-45.5 110zM600 141q0 68 46 110.5t115 42.5q70 0 116 -42.5t46 -110.5t-45.5 -110t-116.5 -42q-70 0 -115.5 42t-45.5 110zM1060 141q0 68 46 110.5t115 42.5 q70 0 116 -42.5t46 -110.5t-45.5 -110t-116.5 -42q-70 0 -115.5 42t-45.5 110z" />
<glyph unicode="&#x202f;" horiz-adv-x="383" />
<glyph unicode="&#x2030;" horiz-adv-x="1945" d="M86 1095v68q0 130 83 214t215 84q140 0 227 -83.5t87 -220.5v-69q0 -129 -87 -212.5t-225 -83.5q-132 0 -216 83.5t-84 219.5zM262 1088q0 -58 33.5 -95t90.5 -37q56 0 88.5 37t32.5 98v72q0 60 -33.5 96.5t-89.5 36.5t-89 -36.5t-33 -100.5v-71zM326 183l704 1127 l139 -75l-704 -1127zM804 280v73q0 128 87 212.5t226 84.5q145 0 225 -104q81 104 225 104q137 0 225.5 -82.5t88.5 -221.5v-70q0 -127 -85.5 -211.5t-226.5 -84.5q-146 0 -227 104q-80 -104 -223 -104q-141 0 -228 84.5t-87 215.5zM995 276q0 -56 35.5 -93.5t88.5 -37.5 q120 0 120 133v75q0 60 -33.5 96t-88.5 36t-88.5 -36t-33.5 -99v-74zM1445 276q0 -53 35 -92t89 -39q121 0 121 133v75q0 60 -33.5 96t-89.5 36q-54 0 -88 -36t-34 -99v-74z" />
<glyph unicode="&#x2039;" horiz-adv-x="631" d="M107 510v19l277 386h184l-237 -396l237 -395h-184z" />
<glyph unicode="&#x203a;" horiz-adv-x="611" d="M79 123l238 395l-238 396h185l278 -386v-19l-278 -386h-185z" />
<glyph unicode="&#x2044;" horiz-adv-x="903" d="M30 183l704 1127l139 -75l-704 -1127z" />
<glyph unicode="&#x205f;" horiz-adv-x="479" />
<glyph unicode="&#x20ac;" horiz-adv-x="1163" d="M88 511v150h167v123h-167v151h169q17 249 174 387t416 138q104 0 234 -30l-36 -241q-93 32 -183 32q-280 0 -307 -286h330v-151h-332v-123h332v-150h-332q5 -146 78 -219t226 -73q104 0 188 30l36 -239q-123 -29 -253 -29q-261 0 -413 140t-160 390h-167z" />
<glyph unicode="&#x2122;" horiz-adv-x="1280" d="M115 1335v106h403v-106h-128v-427h-141v427h-134zM588 905v536h156l116 -364l125 364h148v-536h-127v348l-110 -348h-71l-110 349v-349h-127z" />
<glyph unicode="&#x2202;" horiz-adv-x="1160" d="M88 513v13q0 225 127.5 362.5t343.5 137.5q164 0 278 -114q-31 178 -118.5 279t-212.5 101q-103 0 -175 -26l-66 -25l-44 205l57 26q114 50 252 50q268 0 416.5 -211.5t151.5 -604.5v-62q0 -195 -62 -346t-177.5 -235t-266.5 -84q-230 0 -367 143t-137 391zM375 490 q0 -136 55.5 -208t161.5 -72q104 0 162 86t58 257v109q-31 64 -87.5 98.5t-130.5 34.5q-106 0 -162.5 -73.5t-56.5 -231.5z" />
<glyph unicode="&#x2206;" horiz-adv-x="1482" d="M20 0l575 1441h308l567 -1441h-1450zM423 239h646l-322 859z" />
<glyph unicode="&#x220f;" horiz-adv-x="1404" d="M162 -250v1691h1088v-1691h-287v1466h-514v-1466h-287z" />
<glyph unicode="&#x2211;" horiz-adv-x="1271" d="M56 -117l565 710l-565 699v149h1133v-231h-737l470 -601v-33l-473 -612h775v-230h-1168v149z" />
<glyph unicode="&#x221a;" horiz-adv-x="1145" d="M54 518v233h385l137 -460l319 1150h229l-418 -1441h-244l-184 518h-224z" />
<glyph unicode="&#x221e;" horiz-adv-x="2121" d="M93 534v10q0 153 63.5 279t179.5 197t264 71q140 0 257 -75t201 -225q85 152 201.5 226t257.5 74q222 0 365 -153.5t143 -412.5q0 -156 -65 -281t-181.5 -194.5t-263.5 -69.5q-286 0 -457 309q-170 -309 -456 -309q-227 0 -368 154t-141 400zM371 525q0 -138 66 -222.5 t180 -84.5q144 0 244 177q45 80 53 133v28q-18 76 -65 149t-107 110t-127 37q-109 0 -176.5 -84t-67.5 -243zM1202 528q5 -33 34.5 -98t70.5 -112.5t89 -73.5t104 -26q113 0 179 85t66 241q0 139 -67 223.5t-176 84.5q-138 0 -234 -147q-49 -77 -66 -149v-28z" />
<glyph unicode="&#x222b;" horiz-adv-x="585" d="M-90 -415l16 226q47 -12 84 -12q128 0 132 143v1222q0 182 102.5 279.5t292.5 97.5q62 0 157 -20l-24 -220q-41 10 -96 10q-145 0 -145 -152v-1206q0 -190 -99 -288t-278 -98q-75 0 -142 18z" />
<glyph unicode="&#x2248;" horiz-adv-x="1169" d="M100 254v235q101 105 236 105q89 2 174 -37l138 -68q79 -36 164 -36q133 0 233 125v-234q-101 -105 -225 -105q-87 0 -169 37l-136 68q-84 37 -171 35q-66 0 -131 -32.5t-113 -92.5zM100 670v235q48 49 113 77t131 28q87 2 171 -36l136 -67q82 -38 169 -38q125 0 225 125 v-235q-101 -105 -218 -105q-87 0 -169 38l-136 67q-84 38 -172 36q-68 0 -136.5 -34.5t-113.5 -90.5z" />
<glyph unicode="&#x2260;" horiz-adv-x="1160" d="M135 310v234h311l105 195h-416v233h542l114 211l118 -62l-80 -149h191v-233h-317l-106 -195h423v-234h-549l-115 -214l-117 61l82 153h-186z" />
<glyph unicode="&#x2264;" horiz-adv-x="1032" d="M53 615v211l853 325v-249l-564 -183l564 -179v-250zM61 40v234h854v-234h-854z" />
<glyph unicode="&#x2265;" horiz-adv-x="1047" d="M119 290v248l575 184l-575 180v248l862 -325v-210zM120 40v234h854v-234h-854z" />
<glyph unicode="&#x25ca;" horiz-adv-x="1031" d="M31 720l364 721h245l365 -721l-364 -720h-245zM315 720l204 -420l201 420l-203 420z" />
<glyph unicode="&#x25fc;" horiz-adv-x="1069" d="M0 0v1069h1069v-1069h-1069z" />
<glyph unicode="&#xfb03;" horiz-adv-x="1881" d="M29 861v210h159v91q0 180 103.5 279.5t289.5 99.5q60 0 146 -19l-3 -222q-36 9 -87 9q-162 0 -162 -152v-86h353v50q2 202 124 311t345 109q133 0 326 -58l-42 -237q-97 29 -151 37.5t-115 8.5q-200 0 -200 -177v-44h211v-210h-211v-861h-287v861h-353v-861h-287v861 h-159zM1468 0v1071h287v-1071h-287z" />
<glyph unicode="&#xfb04;" horiz-adv-x="1881" d="M29 861v210h159v91q0 180 103.5 279.5t289.5 99.5q60 0 146 -19l-3 -222q-36 9 -87 9q-162 0 -162 -152v-86h353v80q1 189 117 289.5t325 100.5q143 0 485 -31v-1510h-287v1299q-85 10 -159 10q-194 0 -194 -166v-72h213v-210h-213v-861h-287v861h-353v-861h-287v861 h-159z" />
</font>
</defs>
</svg>
