<?xml version="1.0" encoding="utf-8"?><svg xmlns="http://www.w3.org/2000/svg" xmlns:xlink="http://www.w3.org/1999/xlink"><symbol viewBox="0 0 900.006 1013.986" id="about_bg_left"><path fill-rule="evenodd" clip-rule="evenodd" d="M.01 0l899.997 159.008v854.979H0L.01 0z"/></symbol><symbol viewBox="0 0 900.331 1009.986" id="about_bg_right"><path fill-rule="evenodd" clip-rule="evenodd" d="M0 155.008L900.331 0l-.005 1009.986H0V155.008z"/></symbol><symbol viewBox="0 0 25.18 16.164" id="arrow_down"><path d="M13.293 15.871a.99.99 0 0 1-1.406 0L.293 4.293a1.009 1.009 0 0 1 0-1.422L2.887.293a.99.99 0 0 1 1.406 0L12.59 8.59 20.887.293a.99.99 0 0 1 1.406 0l2.594 2.578a1.009 1.009 0 0 1 0 1.422L13.293 15.871z"/></symbol><symbol viewBox="0 0 2032 360.368" id="bg"><path fill-rule="evenodd" clip-rule="evenodd" d="M2032 360.368V0L1016 173 0 0v360.368z"/></symbol><symbol id="check" viewBox="0 0 20 20"><style>.est0{fill:#fff}</style><path class="est0" d="M16.1 7.6l-5.9 5.9-1.1 1.1c-.1.1-.4.2-.6.2-.2 0-.4-.1-.6-.2l-1.1-1.1-3-3c-.1-.1-.2-.4-.2-.6s.1-.4.2-.6l1.2-1c.1-.1.4-.2.6-.2s.4.1.5.2l2.4 2.4 5.4-5.4c.1-.1.4-.2.6-.2.2 0 .4.1.6.2l1.1 1.1c.1.1.2.4.2.6s-.1.4-.3.6z"/></symbol><symbol viewBox="1138.75 328.75 45 45" id="envelope_n"><path d="M1161.25 328.75c-12.427 0-22.5 10.073-22.5 22.5s10.073 22.5 22.5 22.5 22.5-10.073 22.5-22.5-10.073-22.5-22.5-22.5zm-13.281 17.604l7.269 4.442-7.269 9.138v-13.58zm.83 14.541l7.51-9.443 4.926 3.012 4.918-3.028 7.518 9.46h-24.872zm25.732-.921l-7.311-9.197 7.311-4.502v13.699zm0-15.163L1161.234 353l-13.265-8.106v-2.208h26.563v2.125z"/></symbol><symbol id="github" viewBox="0 0 30 26"><style>.gst0{fill:#fff}</style><path class="gst0" d="M27 19.4c-2 4.2-7.7 4.6-11.7 4.6-4.2 0-10.2-.4-12.3-4.6-.8-1.6-1-3.4-1-5.2 0-2.2.6-4.4 2.1-6.1-.3-.9-.4-1.8-.4-2.7 0-1.2.3-2.3.8-3.4 2.5 0 4 1.1 5.9 2.5 1.6-.3 3.2-.5 4.9-.5 1.5 0 3 .2 4.4.5C21.5 3 23.1 2 25.5 2c.5 1.1.8 2.2.8 3.4 0 .9-.1 1.8-.4 2.6 1.5 1.8 2.1 4 2.1 6.3 0 1.7-.2 3.5-1 5.1zm-6.5-6.9c-1 0-2 .2-3 .3-.9.2-1.7.2-2.5.2s-1.6 0-2.5-.2c-1-.1-2-.3-3-.3-2.5 0-4 2.1-4 4.5 0 4.8 4.4 5.5 8.2 5.5h2.6c3.8 0 8.2-.7 8.2-5.5 0-2.4-1.5-4.5-4-4.5zM10 20c-1.4 0-2-1.9-2-3s.6-3 2-3 2 1.9 2 3-.6 3-2 3zm10 0c-1.4 0-2-1.9-2-3s.6-3 2-3 2 1.9 2 3-.6 3-2 3z"/></symbol><symbol viewBox="0 0 50 50" id="github_round"><path d="M30.5 24.5c-1.031 0-2.016.188-3.047.328-.812.125-1.625.172-2.453.172s-1.641-.047-2.453-.172c-1.016-.14-2.016-.328-3.047-.328-2.547 0-4 2.109-4 4.5 0 4.781 4.375 5.516 8.188 5.516h2.625c3.813 0 8.188-.734 8.188-5.516-.001-2.391-1.454-4.5-4.001-4.5zM20 32c-1.406 0-2-1.859-2-3s.594-3 2-3 2 1.859 2 3-.594 3-2 3zm10 0c-1.406 0-2-1.859-2-3s.594-3 2-3 2 1.859 2 3-.594 3-2 3z"/><path d="M25 0C11.192 0 0 11.193 0 25s11.192 25 25 25 25-11.193 25-25S38.808 0 25 0zm12.047 31.422C34.984 35.594 29.313 36 25.25 36c-4.125 0-10.141-.359-12.281-4.578-.797-1.578-.969-3.438-.969-5.172 0-2.281.625-4.438 2.125-6.188a8.59 8.59 0 0 1-.422-2.656c0-1.172.266-2.344.797-3.406 2.469 0 4.047 1.078 5.922 2.547A20.895 20.895 0 0 1 25.25 16c1.469 0 2.953.156 4.375.5 1.859-1.453 3.438-2.5 5.875-2.5a7.629 7.629 0 0 1 .797 3.406c0 .891-.141 1.781-.422 2.625C37.375 21.797 38 23.969 38 26.25c0 1.734-.172 3.578-.953 5.172z"/></symbol><symbol viewBox="0 0 40 35" id="hamburger"><path d="M40 2.5A2.5 2.5 0 0 1 37.5 5h-35a2.5 2.5 0 1 1 0-5h35A2.5 2.5 0 0 1 40 2.5zm0 15a2.5 2.5 0 0 1-2.5 2.5h-35a2.5 2.5 0 1 1 0-5h35a2.5 2.5 0 0 1 2.5 2.5zm0 15a2.5 2.5 0 0 1-2.5 2.5h-35a2.5 2.5 0 1 1 0-5h35a2.5 2.5 0 0 1 2.5 2.5z"/></symbol><symbol id="in" viewBox="0 0 30 26"><style>.jst0{fill:#fff}</style><path class="jst0" d="M5.9 6.9C4.1 6.9 3 5.7 3 4.2c0-1.5 1.2-2.7 2.9-2.7 1.8 0 2.9 1.2 2.9 2.7 0 1.5-1.1 2.7-2.9 2.7zm2.6 17.6H3.3V9h5.2v15.5zm18.5 0h-5.1v-8.3c0-2.1-.8-3.5-2.6-3.5-1.4 0-2.3 1-2.6 1.9-.1.3-.2.8-.2 1.3v8.6h-5.1c.1-14 0-15.5 0-15.5h5.1v2.3c.7-1.1 1.9-2.6 4.7-2.6 3.4 0 5.9 2.2 5.9 7l-.1 8.8z"/></symbol><symbol viewBox="0 0 50 50" id="in_round"><path d="M25 0C11.192 0 0 11.193 0 25s11.192 25 25 25 25-11.193 25-25S38.808 0 25 0zm-5.547 34.136h-5.156V18.651h5.156v15.485zm-2.578-17.594h-.031C15.11 16.542 14 15.354 14 13.87c0-1.516 1.156-2.672 2.906-2.672 1.766 0 2.859 1.156 2.875 2.672.016 1.484-1.109 2.672-2.906 2.672zM38 34.136h-5.141v-8.281c0-2.078-.75-3.5-2.609-3.5-1.422 0-2.266.953-2.641 1.875-.125.344-.172.797-.172 1.266v8.641h-5.141c.063-14.031 0-15.484 0-15.484h5.141v2.204c.678-1.061 1.898-2.563 4.641-2.563 3.391 0 5.922 2.219 5.922 6.969v8.873z"/></symbol><symbol viewBox="0 0 19.125 19.125" id="link"><path d="M18.129 16.441l-1.723 1.711a3.35 3.35 0 0 1-2.379.973 3.335 3.335 0 0 1-2.391-.996l-2.414-2.426a3.353 3.353 0 0 1-.972-2.379 3.43 3.43 0 0 1 1.031-2.449L8.25 9.844a3.407 3.407 0 0 1-2.438 1.031 3.392 3.392 0 0 1-2.391-.984L.984 7.453A3.34 3.34 0 0 1 0 5.063c0-.891.363-1.758.996-2.379L2.719.973A3.35 3.35 0 0 1 5.098 0C6 0 6.855.352 7.488.996l2.414 2.426a3.35 3.35 0 0 1 .973 2.379A3.43 3.43 0 0 1 9.844 8.25l1.031 1.031a3.407 3.407 0 0 1 2.438-1.031c.891 0 1.758.352 2.391.984l2.438 2.438c.645.645.984 1.488.984 2.391a3.356 3.356 0 0 1-.997 2.378zM8.309 5.004L5.895 2.578c-.211-.211-.504-.328-.797-.328s-.586.117-.797.316L2.578 4.277a1.116 1.116 0 0 0 0 1.583l2.438 2.438c.211.21.504.315.797.315.34 0 .609-.117.844-.363-.387-.387-.844-.715-.844-1.312 0-.621.504-1.125 1.125-1.125.598 0 .926.457 1.313.844.246-.234.387-.504.387-.855a1.142 1.142 0 0 0-.329-.798zm8.238 8.262l-2.438-2.438a1.136 1.136 0 0 0-1.641.047c.387.387.844.715.844 1.313 0 .621-.504 1.125-1.125 1.125-.598 0-.926-.457-1.313-.844-.246.234-.387.504-.387.855 0 .293.117.586.328.797l2.414 2.426c.211.211.504.316.797.316s.586-.105.797-.305l1.723-1.711c.211-.211.328-.492.328-.785a1.11 1.11 0 0 0-.327-.796z"/></symbol><symbol id="login" viewBox="0 0 45 45"><style>.mst0{fill:#c4cbcd}</style><path class="mst0" d="M26.9 30.2h-8.8c-1.6 0-2.7-1-2.7-2.6 0-2.3.5-5.8 3.5-5.8.3 0 1.6 1.4 3.6 1.4s3.3-1.4 3.6-1.4c2.9 0 3.5 3.5 3.5 5.8 0 1.6-1.1 2.6-2.7 2.6zm-4.4-7.7c-2.1 0-3.9-1.7-3.9-3.9s1.7-3.9 3.9-3.9 3.9 1.7 3.9 3.9-1.8 3.9-3.9 3.9z"/></symbol><symbol viewBox="333.75 72.532 45 45" id="map_n"><circle cx="356.342" cy="92.018" r="5.854"/><path d="M356.25 72.532c-12.427 0-22.5 10.073-22.5 22.5s10.073 22.5 22.5 22.5 22.5-10.073 22.5-22.5-10.073-22.5-22.5-22.5zm0 37.882c-1.438-1.127-11.252-9.062-11.252-17.422 0-6.203 4.98-11.24 11.16-11.339v-.004l.092.001.092-.001v.004c6.18.099 11.16 5.136 11.16 11.339 0 8.36-9.814 16.295-11.252 17.422z"/></symbol><symbol id="password" viewBox="0 0 45 45"><style>.ost0{fill:#c4cbcd}</style><path class="ost0" d="M29.8 26.6c-.3 0-1.1-.9-1.3-1.2l-1 1 2.2 2.2c.2.2.3.4.3.7 0 .6-.6 1.2-1.2 1.2-.3 0-.5-.1-.7-.3l-6.7-6.7c-1.1.8-2.3 1.3-3.7 1.3-2.2 0-3.7-1.5-3.7-3.7 0-3.3 3.3-6.6 6.6-6.6 2.2 0 3.7 1.5 3.7 3.7 0 1.3-.5 2.6-1.3 3.7l3.6 3.6 1-1c-.2-.2-1.2-1-1.2-1.3 0-.2.9-1.2 1.2-1.2.1 0 .2 0 .2.1.4.4 3.2 3 3.2 3.3-.1.3-1 1.2-1.2 1.2zm-9.3-10.2c-1.1 0-1.9.9-1.9 1.9 0 .3.1.6.2.8-.3-.1-.5-.2-.8-.2-1.1 0-1.9.9-1.9 1.9s.9 1.9 1.9 1.9 1.9-.9 1.9-1.9c0-.3-.1-.6-.2-.8.3.1.5.2.8.2 1.1 0 1.9-.9 1.9-1.9s-.9-1.9-1.9-1.9z"/></symbol><symbol viewBox="338.678 110.5 45 45" id="phone_n"><path d="M361.178 110.5c-12.427 0-22.5 10.073-22.5 22.5s10.073 22.5 22.5 22.5 22.5-10.073 22.5-22.5-10.074-22.5-22.5-22.5zm13.433 31.703c-1.034 1.601-1.934 3.261-6.258 3.358-4.418.004-8.989-3.655-12.318-7.307-3.323-3.232-6.396-7.408-6.394-11.457.1-4.324 1.76-5.224 3.36-6.258 0 0 .876-.368 1.639.295.762.663 4.103 4.005 4.103 4.005s1.188.991.369 2.089c-.652.874-2.157 2.484-2.354 2.696l.564 1.063c.755 1.244 2.194 3.43 4.349 5.201 1.453 1.195 3.911 2.506 3.91 2.504.354-.329 1.823-1.689 2.641-2.301 1.098-.82 2.088.367 2.088.367s3.342 3.343 4.006 4.105c.663.764.295 1.64.295 1.64z"/></symbol><symbol viewBox="0 0 42.736 27.435" id="portf_arrow_down"><path d="M22.563 26.938a1.68 1.68 0 0 1-2.387 0L.498 7.286a1.712 1.712 0 0 1 0-2.413L4.9.497a1.68 1.68 0 0 1 2.387 0l14.082 14.082L35.45.497a1.682 1.682 0 0 1 2.388 0l4.401 4.376c.663.663.663 1.75 0 2.413L22.563 26.938z"/></symbol><symbol viewBox="0 0 42.736 27.435" id="portf_arrow_up"><path d="M42.239 20.149c.663.662.663 1.75 0 2.413l-4.401 4.376a1.684 1.684 0 0 1-2.388 0L21.369 12.856 7.287 26.938a1.683 1.683 0 0 1-2.387 0L.498 22.562a1.712 1.712 0 0 1 0-2.413L20.175.498a1.68 1.68 0 0 1 2.387 0l19.677 19.651z"/></symbol><symbol id="quote" viewBox="0 0 91.34 75.15"><defs><style>.scls-1{fill:none;fill-rule:evenodd}</style></defs><title>quote</title><path class="scls-1" d="M36.38 0c1.76 4.44 1 6.5-2.05 8.63a109.06 109.06 0 0 0-15 12.26c-5.18 5.24-7 12-5.42 19.34 1 4.66 3.39 5.71 8.08 4.85 3.81-.7 7.91-1.57 11.59-.87 5.65 1.08 9.22 5.36 10.26 11 1.11 6-.18 11.54-5.46 15.57C25.06 81 4.88 72.45 1 54.52S4.28 22.16 18 11c5.35-4.42 12-7.27 18.38-11zm47.46 1.14c1.41 3.62.16 5.56-2.74 7.63a107.91 107.91 0 0 0-14.93 12.32C61 26.37 59.31 33.15 61 40.49c.94 4.18 3.55 5.65 7.8 4.62 3.19-.78 6.57-1.91 9.69-1.53 6.3.77 10.53 4.75 12.29 10.91a15.23 15.23 0 0 1-5.56 16.45C71.93 80.86 52.33 72.35 48 54.78c-2.33-9.47-.76-18.5 3.4-27.13C57.55 14.89 70.32 4.47 83.84 1.14z"/></symbol><symbol id="skype_n" viewBox="0 0 566.9 566.9"><style>.tst0{fill:#333}</style><path class="tst0" d="M264.2 259.9c-42.6-10.6-19.3-47.7 15.2-47.2 33.5.5 50.5 36.6 65.7 34.8 15.2-1.9 28.2-25.1 4.3-45.9-20.7-18-46.8-27.9-87-24.2-31.5 2.9-61.5 23.6-65.1 63.9-3.7 40.4 43.2 60.8 80.3 66.4 26 3.9 61.5 16.7 40.2 41.6-19.6 22.8-56.6 8.7-66.3 2.5-9.7-6.2-20.7-28.6-39-27.3-18.3 1.2-27.3 25.7-4.9 47.2 20.1 19.2 42 29.8 88.8 27.3 46.9-2.5 88.9-44.7 72.4-84.4-16.3-39.8-61.9-44.1-104.6-54.7z"/><path class="tst0" d="M283.5 0C126.9 0 0 126.9 0 283.5 0 440 126.9 566.9 283.5 566.9S566.9 440 566.9 283.5C566.9 126.9 440 0 283.5 0zM356 443.8c-17 0-33-5-46.5-13.4-8.7 1.6-17.6 2.5-26.8 2.5-81.4 0-147.3-66.5-147.3-148.6 0-7.9.6-15.8 1.8-23.4-9-14-14.2-30.6-14.2-48.5 0-49.2 39.3-89.2 87.9-89.2 17.7 0 34.2 5.3 48 14.5 7.7-1.3 15.6-2 23.7-2 81.3 0 147.3 66.6 147.3 148.6 0 6.8-.5 13.5-1.4 20.2 9.6 14.3 15.3 31.6 15.3 50.2.1 49.2-39.3 89.1-87.8 89.1z"/></symbol><symbol id="stars1" viewBox="0 0 186.9 111"><style/><circle class="ust0" cx="70.7" cy="105.8" r="5.2"/><circle class="ust0" cx="5.2" cy="78.3" r="5.2"/><circle class="ust0" cx="121.8" cy="63.5" r="2.8"/><circle class="ust0" cx="48.9" cy="49.7" r="2.8"/><circle class="ust0" cx="33.2" cy="17.8" r="2.8"/><circle class="ust0" cx="87.6" cy="7.9" r="2.8"/><path class="ust0" d="M5.2 78.3l65.5 27.5 51.1-42.3z"/><path class="ust0" d="M33.2 17.8l-28 60.5 65.5 27.5L88 7.8zm15.7 31.9l72.9 13.8"/><circle class="ust0" cx="181.7" cy="93.2" r="5.2"/><circle class="ust0" cx="136.6" cy="5.2" r="5.2"/><circle class="ust0" cx="176.3" cy="27.1" r="2.8"/><circle class="ust0" cx="123.2" cy="79" r="2.8"/><circle class="ust0" cx="88.1" cy="73.6" r="2.8"/><circle class="ust0" cx="111.1" cy="23.4" r="2.8"/><path class="ust0" d="M123.2 79l58.5 14.2-5.4-66.1z"/><path class="ust0" d="M88.1 73.6l48.5-68.4 45.1 88-70.4-70.3zm35.1 5.4l53.1-51.9"/></symbol><symbol id="stars2" viewBox="0 0 184.4 119.89"><defs><style>.vcls-1{fill:none;stroke:#fff;stroke-miterlimit:10}.vcls-2{fill:#fff}</style></defs><title>stars2</title><path class="vcls-1" d="M105.69 74.32l-36.2-50.5 110.6 23.5-37.1-43-73.5 19.5-65.2 81.9 46.8-29.3 54.6-2.1 58.3 41.3m-21-111.3l21 111.3"/><circle class="vcls-2" cx="4.29" cy="105.72" r="4.29"/><circle class="vcls-2" cx="51.09" cy="76.42" r="1.87"/><circle class="vcls-2" cx="105.69" cy="74.32" r="4.78"/><circle class="vcls-2" cx="163.99" cy="115.62" r="4.27"/><circle class="vcls-2" cx="180.09" cy="47.32" r="4.31"/><circle class="vcls-2" cx="142.99" cy="4.32" r="4.32"/><circle class="vcls-2" cx="69.49" cy="23.82" r="2.79"/></symbol><symbol viewBox="0 0 103.03 124.03" id="stars3"><circle cx="5.182" cy="60.182" r="5.182"/><circle cx="50.182" cy="5.182" r="5.182"/><circle cx="31.182" cy="121.182" r="2.848"/><circle cx="65.182" cy="55.182" r="2.848"/><circle cx="100.182" cy="49.182" r="2.848"/><circle cx="94.182" cy="104.182" r="2.848"/><path stroke-width=".75" stroke-miterlimit="10" d="M50.183 5.182l-45 55 26 61.001z"/><path stroke-width=".75" stroke-miterlimit="10" d="M100.183 49.182l-50-44-45 55 89 44.43zm-35 6l-34 66.001"/></symbol><symbol viewBox="0 0 238.892 238.892" id="telegram_logo"><path d="M153.768 80.319c-24.978 15.69-49.925 31.425-74.885 47.139-2.01 1.265-3.101 2.873-2.306 5.315 3.593 11.024 7.191 22.047 10.786 33.07.5-.156.999-.315 1.499-.471.508-4.21 1.619-8.456 1.393-12.624-.417-7.655 2.813-12.654 8.521-17.603 18.473-16.013 36.429-32.621 54.502-49.092 1.763-1.607 4.662-2.638 4.417-5.828-1.457-.869-2.812-.607-3.927.094z"/><path d="M119.446 0C53.478 0 0 53.478 0 119.446c0 65.968 53.478 119.446 119.446 119.446 65.969 0 119.446-53.478 119.446-119.446C238.892 53.478 185.415 0 119.446 0zm57.905 106.34c-4.966 23.363-9.878 46.743-14.941 70.087-2.393 11.035-6.963 12.814-16.078 6.277-9.499-6.81-18.968-13.679-28.177-20.872-3.726-2.911-6.225-2.799-9.403.636-4.322 4.678-8.872 9.194-13.712 13.33-5.623 4.802-9.284 3.637-11.639-3.366-3.895-11.572-7.788-23.15-11.384-34.818-1.222-3.968-3.213-6.233-7.325-7.354-8.188-2.235-16.301-4.803-24.314-7.607-3.746-1.311-9.779-1.084-9.621-6.551.144-4.825 5.655-5.791 9.519-7.293 25.983-10.102 52.008-20.097 78.025-30.12 18.829-7.255 37.63-14.583 56.509-21.704 6.856-2.587 11.2.401 11.275 8.174-2.789 13.149-5.753 27.166-8.734 41.181z"/></symbol><symbol viewBox="0 0 30.011 17.123" id="vk"><path d="M27.625 5.832c-3.031 4.031-3.359 3.656-.859 5.984 2.406 2.234 2.906 3.313 2.984 3.453 0 0 1 1.75-1.109 1.766l-4 .063c-.859.172-2-.609-2-.609-1.5-1.031-2.906-3.703-4-3.359 0 0-1.125.359-1.094 2.766.016.516-.234.797-.234.797s-.281.297-.828.344h-1.797c-3.953.25-7.438-3.391-7.438-3.391S3.437 9.707.093 1.848c-.219-.516.016-.766.016-.766S.343.785 1 .785L5.281.754c.406.063.688.281.688.281s.25.172.375.5c.703 1.75 1.609 3.344 1.609 3.344 1.563 3.219 2.625 3.766 3.234 3.438 0 0 .797-.484.625-4.375-.063-1.406-.453-2.047-.453-2.047-.359-.485-1.031-.625-1.328-.672-.234-.031.156-.594.672-.844.766-.375 2.125-.391 3.734-.375 1.266.016 1.625.094 2.109.203 1.484.359.984 1.734.984 5.047 0 1.063-.203 2.547.563 3.031.328.219 1.141.031 3.141-3.375 0 0 .938-1.625 1.672-3.516.125-.344.391-.484.391-.484s.25-.141.594-.094l4.5-.031c1.359-.172 1.578.453 1.578.453.234.641-.501 2.141-2.344 4.594z"/></symbol><symbol viewBox="0 0 50 50" id="vk_round"><path d="M25 0C11.193 0 0 11.193 0 25s11.193 25 25 25 25-11.193 25-25S38.807 0 25 0zm11.76 28.255c2.406 2.234 2.906 3.313 2.984 3.453 0 0 1 1.75-1.109 1.766l-4 .063c-.859.172-2-.609-2-.609-1.5-1.031-2.906-3.703-4-3.359 0 0-1.125.359-1.094 2.766.016.516-.234.797-.234.797s-.281.297-.828.344h-1.797c-3.953.25-7.438-3.391-7.438-3.391s-3.813-3.938-7.156-11.797c-.219-.516.016-.766.016-.766s.234-.297.891-.297l4.281-.031c.406.063.688.281.688.281s.25.172.375.5c.703 1.75 1.609 3.344 1.609 3.344 1.563 3.219 2.625 3.766 3.234 3.438 0 0 .797-.484.625-4.375-.063-1.406-.453-2.047-.453-2.047-.359-.484-1.031-.625-1.328-.672-.234-.031.156-.594.672-.844.766-.375 2.125-.391 3.734-.375 1.266.016 1.625.094 2.109.203 1.484.359.984 1.734.984 5.047 0 1.063-.203 2.547.563 3.031.328.219 1.141.031 3.141-3.375 0 0 .938-1.625 1.672-3.516.125-.344.391-.484.391-.484s.25-.141.594-.094l4.5-.031c1.359-.172 1.578.453 1.578.453.234.641-.5 2.141-2.344 4.594-3.032 4.03-3.36 3.655-.86 5.983z"/></symbol></svg>